<?xml version="1.0" encoding="UTF-8"?>
<svg version="1.1" xmlns="http://www.w3.org/2000/svg" width="48" height="48">
<path d="M0 0 C3.79411788 -0.3529412 5.46232614 -0.4065339 8.5625 1.9375 C9.366875 2.618125 10.17125 3.29875 11 4 C11.845625 4.12375 12.69125 4.2475 13.5625 4.375 C16 5 16 5 17.8125 7.9375 C20.14666605 11.20533247 20.58739919 11.49314357 24.25 12.375 C25.4875 12.58125 26.725 12.7875 28 13 C28.33 11.68 28.66 10.36 29 9 C30.65 9 32.3 9 34 9 C35.125 12.75 35.125 12.75 34 15 C34.969375 15.474375 35.93875 15.94875 36.9375 16.4375 C40 18 40 18 41 19 C41.37086093 24.8410596 41.37086093 24.8410596 41 27 C37.5433968 29.30440213 35.91626497 29.15844007 31.90234375 28.60546875 C26.18711368 27.4131933 20.66576902 25.54371523 15.13134766 23.70703125 C12.97982004 22.99330571 10.82438581 22.2925482 8.66796875 21.59375 C-1.83900176 18.16099824 -1.83900176 18.16099824 -3 17 C-3.04063832 15.33382885 -3.042721 13.66611905 -3 12 C-2.34 11.67 -1.68 11.34 -1 11 C1.0095568 8.06295544 2 6.60777515 2 3 C1.34 2.67 0.68 2.34 0 2 C0 1.34 0 0.68 0 0 Z M7 7 C6.34 8.32 5.68 9.64 5 11 C5.99 10.67 6.98 10.34 8 10 C7.67 9.01 7.34 8.02 7 7 Z " fill="#A26B34" transform="translate(6,10)"/>
<path d="M0 0 C3.79411788 -0.3529412 5.46232614 -0.4065339 8.5625 1.9375 C9.366875 2.618125 10.17125 3.29875 11 4 C11.845625 4.12375 12.69125 4.2475 13.5625 4.375 C16 5 16 5 17.8125 7.9375 C20.14666605 11.20533247 20.58739919 11.49314357 24.25 12.375 C25.4875 12.58125 26.725 12.7875 28 13 C28.33 11.68 28.66 10.36 29 9 C30.65 9 32.3 9 34 9 C34.93065133 11.60582371 35.14917407 12.64198224 34.0625 15.25 C33.5365625 16.11625 33.5365625 16.11625 33 17 C33.66 17 34.32 17 35 17 C35 17.66 35 18.32 35 19 C29.73229802 18.34240251 24.69866827 17.26735876 19.5625 15.9375 C18.83095703 15.75123047 18.09941406 15.56496094 17.34570312 15.37304688 C15.56296802 14.9186242 13.78136213 14.45977534 12 14 C12.33 12.02 12.66 10.04 13 8 C12.34 8 11.68 8 11 8 C11.020625 9.134375 11.04125 10.26875 11.0625 11.4375 C11 15 11 15 10 16 C8.0390625 15.9140625 8.0390625 15.9140625 5.625 15.625 C4.83351563 15.53476562 4.04203125 15.44453125 3.2265625 15.3515625 C1 15 1 15 -2 14 C-0.25 8.25 -0.25 8.25 2 6 C2 5.01 2 4.02 2 3 C1.34 2.67 0.68 2.34 0 2 C0 1.34 0 0.68 0 0 Z M7 7 C6.34 8.32 5.68 9.64 5 11 C5.99 10.67 6.98 10.34 8 10 C7.67 9.01 7.34 8.02 7 7 Z " fill="#634429" transform="translate(6,10)"/>
<path d="M0 0 C10.23481648 -0.8722855 18.50111344 1.62476112 28 5 C28 5.99 28 6.98 28 8 C28.66 8.33 29.32 8.66 30 9 C22.84572565 8.47902207 16.68842676 6.80995512 9.9375 4.4375 C8.97650391 4.10814453 8.01550781 3.77878906 7.02539062 3.43945312 C4.68060973 2.63452834 2.33908854 1.82128851 0 1 C0 0.67 0 0.34 0 0 Z " fill="#C08C58" transform="translate(14,30)"/>
<path d="M0 0 C0.33 0.66 0.66 1.32 1 2 C3.05175405 2.65151097 3.05175405 2.65151097 5.4375 3.0625 C9.832021 3.9160105 9.832021 3.9160105 12 5 C11.67 5.99 11.34 6.98 11 8 C9.35328588 7.69217504 7.70764424 7.37860766 6.0625 7.0625 C5.14597656 6.88847656 4.22945313 6.71445312 3.28515625 6.53515625 C1 6 1 6 0 5 C-0.04063832 3.33382885 -0.042721 1.66611905 0 0 Z " fill="#AE7B48" transform="translate(3,22)"/>
<path d="M0 0 C0 2.64 0 5.28 0 8 C-1.65 8.33 -3.3 8.66 -5 9 C-5.33 6.69 -5.66 4.38 -6 2 C-3 0 -3 0 0 0 Z " fill="#433629" transform="translate(47,29)"/>
<path d="M0 0 C1.91595968 -0.08133791 3.83291932 -0.13934367 5.75 -0.1875 C7.35101563 -0.23970703 7.35101563 -0.23970703 8.984375 -0.29296875 C12.36572978 0.03553074 13.58732945 0.66883859 16 3 C16.99 4.485 16.99 4.485 18 6 C11.82777121 4.75971762 5.93317878 3.10396411 0 1 C0 0.67 0 0.34 0 0 Z " fill="#C3986E" transform="translate(14,30)"/>
<path d="M0 0 C1.258125 -0.020625 2.51625 -0.04125 3.8125 -0.0625 C4.52019531 -0.07410156 5.22789063 -0.08570312 5.95703125 -0.09765625 C8 0 8 0 11 1 C11 2.32 11 3.64 11 5 C6.6822542 4.49202991 2.96697886 3.80317221 -1 2 C-0.67 1.34 -0.34 0.68 0 0 Z " fill="#B57E46" transform="translate(23,26)"/>
<path d="M0 0 C0.66 0 1.32 0 2 0 C2 1.65 2 3.3 2 5 C3.98 5.66 5.96 6.32 8 7 C7.01 8.32 6.02 9.64 5 11 C0.545 10.01 0.545 10.01 -4 9 C-3.01 8.34 -2.02 7.68 -1 7 C-0.26393501 3.43230448 -0.26393501 3.43230448 0 0 Z " fill="#8F6234" transform="translate(17,18)"/>
<path d="M0 0 C1.9375 0.3125 1.9375 0.3125 4 1 C4.33 1.99 4.66 2.98 5 4 C5.66 4 6.32 4 7 4 C7 6.64 7 9.28 7 12 C6.34 12 5.68 12 5 12 C5 11.34 5 10.68 5 10 C4.01 10.33 3.02 10.66 2 11 C2 10.34 2 9.68 2 9 C2.99 8.67 3.98 8.34 5 8 C4.04134491 5.66924071 4.04134491 5.66924071 1 4 C0.3125 1.875 0.3125 1.875 0 0 Z " fill="#A6794C" transform="translate(8,12)"/>
<path d="M0 0 C1.65 0 3.3 0 5 0 C5.6875 1.8125 5.6875 1.8125 6 4 C4.5625 5.75 4.5625 5.75 3 7 C2.34 5.68 1.68 4.36 1 3 C0.01 3.495 0.01 3.495 -1 4 C-0.67 2.68 -0.34 1.36 0 0 Z " fill="#705C50" transform="translate(35,19)"/>
<path d="M0 0 C1 1 2 2 3 3 C3.8353125 3.7734375 3.8353125 3.7734375 4.6875 4.5625 C6 6 6 6 6 8 C-0.625 7.25 -0.625 7.25 -4 5 C-2.35 5 -0.7 5 1 5 C0.67 3.35 0.34 1.7 0 0 Z " fill="#422510" transform="translate(35,21)"/>
<path d="M0 0 C2.6875 -0.3125 2.6875 -0.3125 6 0 C8.875 2.5 8.875 2.5 11 5 C9.68 5.33 8.36 5.66 7 6 C6.34 5.01 5.68 4.02 5 3 C2.43717258 2.27034634 2.43717258 2.27034634 0 2 C0 1.34 0 0.68 0 0 Z " fill="#72563D" transform="translate(6,10)"/>
<path d="M0 0 C0.94875 0.350625 1.8975 0.70125 2.875 1.0625 C2.545 2.3825 2.215 3.7025 1.875 5.0625 C-0.6 4.0725 -0.6 4.0725 -3.125 3.0625 C-3.125 2.4025 -3.125 1.7425 -3.125 1.0625 C-3.785 0.7325 -4.445 0.4025 -5.125 0.0625 C-3.125 -0.9375 -3.125 -0.9375 0 0 Z " fill="#A4703A" transform="translate(37.125,28.9375)"/>
<path d="M0 0 C0.66 0 1.32 0 2 0 C1.938125 0.763125 1.87625 1.52625 1.8125 2.3125 C1.74101915 5.04525312 1.74101915 5.04525312 3.5 6.8125 C3.995 7.204375 4.49 7.59625 5 8 C3.68 8.33 2.36 8.66 1 9 C0.29925156 5.846632 0 3.27275026 0 0 Z " fill="#AE7F50" transform="translate(17,18)"/>
<path d="M0 0 C0.33 0.66 0.66 1.32 1 2 C4.02934491 2.65772428 4.02934491 2.65772428 7 3 C7 3.66 7 4.32 7 5 C1.25 5.125 1.25 5.125 -1 4 C-0.67 2.68 -0.34 1.36 0 0 Z " fill="#4F2204" transform="translate(24,21)"/>
<path d="M0 0 C2.9375 0.375 2.9375 0.375 6 1 C6.33 1.66 6.66 2.32 7 3 C5.35 3.66 3.7 4.32 2 5 C1.34 4.34 0.68 3.68 0 3 C0.66 3 1.32 3 2 3 C2 2.34 2 1.68 2 1 C1.34 0.67 0.68 0.34 0 0 Z " fill="#7C5D39" transform="translate(39,26)"/>
<path d="M0 0 C0.66 0 1.32 0 2 0 C2 0.66 2 1.32 2 2 C1.34 2 0.68 2 0 2 C0 1.34 0 0.68 0 0 Z " fill="#E2E0DB" transform="translate(36,11)"/>
<path d="M0 0 C0.99 0.495 0.99 0.495 2 1 C1.01 1.495 1.01 1.495 0 2 C0 1.34 0 0.68 0 0 Z " fill="#F8F7F4" transform="translate(0,26)"/>
</svg>
