<?xml version="1.0" encoding="UTF-8"?>
<svg version="1.1" xmlns="http://www.w3.org/2000/svg" width="48" height="48">
<path d="M0 0 C5.78982503 4.90075077 9.24151875 10.69063126 10.3125 18.1875 C10.69273497 25.03172953 8.78693583 30.8805664 4.19921875 36.015625 C-0.9507473 40.77559362 -6.16128976 44.03602855 -13.3125 44.4375 C-20.66597514 44.12431963 -26.88572465 41.65274079 -31.9375 36.25 C-36.23419261 30.77779715 -38.65800958 25.16428982 -38.3515625 18.07421875 C-37.2184011 11.38856647 -33.72737846 5.72737846 -29 1 C-19.6549646 -5.56678163 -9.83712091 -5.70360757 0 0 Z " fill="#C9B36E" transform="translate(38,4)"/>
<path d="M0 0 C0.33 0.66 0.66 1.32 1 2 C-0.50663783 5.01327566 -3.03166411 5.61056618 -6 7 C-6 8.32 -6 9.64 -6 11 C-5.01 10.34 -4.02 9.68 -3 9 C-3 9.99 -3 10.98 -3 12 C-2.236875 11.773125 -1.47375 11.54625 -0.6875 11.3125 C0.199375 11.209375 1.08625 11.10625 2 11 C3.8125 12.4375 3.8125 12.4375 5 14 C4.01 14.495 4.01 14.495 3 15 C2.01 14.67 1.02 14.34 0 14 C0 15.32 0 16.64 0 18 C0.66 18 1.32 18 2 18 C2.33 17.34 2.66 16.68 3 16 C3.99 16.33 4.98 16.66 6 17 C6.33 16.01 6.66 15.02 7 14 C7.042721 15.66611905 7.04063832 17.33382885 7 19 C6 20 6 20 3.125 20.1875 C0 20 0 20 -3 18 C-3 17.34 -3 16.68 -3 16 C-4.65 16.33 -6.3 16.66 -8 17 C-6.8553125 18.423125 -6.8553125 18.423125 -5.6875 19.875 C-5.25824219 20.40867187 -4.82898437 20.94234375 -4.38671875 21.4921875 C-2.87729455 23.25292107 -2.87729455 23.25292107 0 25 C0 25.99 0 26.98 0 28 C0.94875 27.95875 1.8975 27.9175 2.875 27.875 C6 28 6 28 8 30 C8.33 29.01 8.66 28.02 9 27 C10.4375 25.3125 10.4375 25.3125 12 24 C12.66 24 13.32 24 14 24 C14 22.35 14 20.7 14 19 C12.88625 20.4540625 12.88625 20.4540625 11.75 21.9375 C10.02690085 24.02387361 9.26131306 24.90112479 6.6875 25.875 C6.130625 25.91625 5.57375 25.9575 5 26 C5 25.01 5 24.02 5 23 C6.65 22.34 8.3 21.68 10 21 C10 19.68 10 18.36 10 17 C9.34 16.67 8.68 16.34 8 16 C8 14.68 8 13.36 8 12 C10.31 11.34 12.62 10.68 15 10 C14.34 9.34 13.68 8.68 13 8 C12.875 5.375 12.875 5.375 13 3 C15.375 2.8125 15.375 2.8125 18 3 C20.67927341 7.01891012 20.15601248 9.24161923 20 14 C19.34 14.33 18.68 14.66 18 15 C17.53069588 17.25371265 17.53069588 17.25371265 17.375 19.875 C17.30023438 20.75929688 17.22546875 21.64359375 17.1484375 22.5546875 C17.03841705 24.36712973 17 26.18422157 17 28 C16.34 28 15.68 28 15 28 C14.67 29.32 14.34 30.64 14 32 C19.79927388 26.97396264 20.498404 20.1884915 22 13 C22.99 13.99 23.98 14.98 25 16 C24.34 16 23.68 16 23 16 C23 16.66 23 17.32 23 18 C24.7763932 19.0745356 24.7763932 19.0745356 26 19 C26.33 16.36 26.66 13.72 27 11 C27.33 11 27.66 11 28 11 C28.43980421 17.92691637 27.84496907 23.09791863 24 29 C19.35526857 34.19887509 13.96268621 38.25652641 6.9140625 39.3125 C0.63661145 39.6649183 -4.38105006 37.62765091 -10 35 C-10 34.01 -10 33.02 -10 32 C-8.02 32 -6.04 32 -4 32 C-4.33 31.67 -4.66 31.34 -5 31 C-4.67 30.01 -4.34 29.02 -4 28 C-4.66 27.67 -5.32 27.34 -6 27 C-6.33 27.66 -6.66 28.32 -7 29 C-8.89777463 26.43354639 -10.65415238 23.90081101 -12 21 C-11.3125 18 -11.3125 18 -10 16 C-10.66 16 -11.32 16 -12 16 C-12.91625715 12.4182675 -13.34209011 10.66863067 -11.625 7.3125 C-11.08875 6.549375 -10.5525 5.78625 -10 5 C-9.67 4.01 -9.34 3.02 -9 2 C-5.5647952 -0.29013653 -4.014669 -0.17842973 0 0 Z " fill="#A5A09F" transform="translate(20,9)"/>
<path d="M0 0 C0.33 0.66 0.66 1.32 1 2 C-0.50663783 5.01327566 -3.03166411 5.61056618 -6 7 C-6 8.32 -6 9.64 -6 11 C-5.01 10.34 -4.02 9.68 -3 9 C-3 9.99 -3 10.98 -3 12 C-2.236875 11.773125 -1.47375 11.54625 -0.6875 11.3125 C0.199375 11.209375 1.08625 11.10625 2 11 C3.8125 12.4375 3.8125 12.4375 5 14 C4.01 14.495 4.01 14.495 3 15 C2.01 14.67 1.02 14.34 0 14 C0 15.32 0 16.64 0 18 C0.66 18 1.32 18 2 18 C2.33 17.34 2.66 16.68 3 16 C3.99 16.33 4.98 16.66 6 17 C6.33 16.01 6.66 15.02 7 14 C7.042721 15.66611905 7.04063832 17.33382885 7 19 C6 20 6 20 3.125 20.1875 C0 20 0 20 -3 18 C-3 17.34 -3 16.68 -3 16 C-4.65 16.33 -6.3 16.66 -8 17 C-6.8553125 18.423125 -6.8553125 18.423125 -5.6875 19.875 C-5.25824219 20.40867187 -4.82898437 20.94234375 -4.38671875 21.4921875 C-2.87729455 23.25292107 -2.87729455 23.25292107 0 25 C0 25.99 0 26.98 0 28 C0.94875 27.95875 1.8975 27.9175 2.875 27.875 C6 28 6 28 8 30 C7.46428571 33.53571429 7.46428571 33.53571429 6 35 C7.65 35 9.3 35 11 35 C7.26273303 37.49151132 3.33216405 37.5545813 -1 37 C-3.48972801 36.18884568 -5.64672083 35.17663958 -8 34 C-6.68 33.34 -5.36 32.68 -4 32 C-4.33 31.67 -4.66 31.34 -5 31 C-4.67 30.01 -4.34 29.02 -4 28 C-4.66 27.67 -5.32 27.34 -6 27 C-6.33 27.66 -6.66 28.32 -7 29 C-8.89777463 26.43354639 -10.65415238 23.90081101 -12 21 C-11.3125 18 -11.3125 18 -10 16 C-10.66 16 -11.32 16 -12 16 C-12.91625715 12.4182675 -13.34209011 10.66863067 -11.625 7.3125 C-11.08875 6.549375 -10.5525 5.78625 -10 5 C-9.67 4.01 -9.34 3.02 -9 2 C-5.5647952 -0.29013653 -4.014669 -0.17842973 0 0 Z " fill="#BF8629" transform="translate(20,9)"/>
<path d="M0 0 C0.12375 0.928125 0.12375 0.928125 0.25 1.875 C0.81258459 4.18437567 0.81258459 4.18437567 3.0625 5.25 C3.701875 5.4975 4.34125 5.745 5 6 C1.53087705 6.55505967 -1.73171297 7.00515937 -5.25 6.9375 C-8.21931521 6.75935062 -8.21931521 6.75935062 -11 9 C-11.59070014 10.94603274 -11.59070014 10.94603274 -12 13 C-12.99 14.485 -12.99 14.485 -14 16 C-14.16699232 19.12521833 -14.16699232 19.12521833 -14 22 C-13.34 22 -12.68 22 -12 22 C-12.2475 22.70125 -12.495 23.4025 -12.75 24.125 C-13.27451332 27.18117356 -13.27451332 27.18117356 -11.3125 30.25 C-9.29916853 33.09090077 -9.29916853 33.09090077 -6.75 33.875 C-6.1725 33.91625 -5.595 33.9575 -5 34 C-5.99 34.495 -5.99 34.495 -7 35 C-5.68 35.66 -4.36 36.32 -3 37 C-6.28194629 39.1879642 -7.22475937 39.18876203 -11 39 C-11.99 39 -12.98 39 -14 39 C-15.9249647 37.17806158 -17.37535531 35.10764717 -19 33 C-18.67 32.34 -18.34 31.68 -18 31 C-16.68 32.32 -15.36 33.64 -14 35 C-14.204335 29.99540874 -14.204335 29.99540874 -17.0625 26.1875 C-19.80357215 23.09274112 -19.62022734 20.64370304 -19.453125 16.609375 C-18.71471308 12.35714084 -16.91917248 9.15714849 -14 6 C-11.3125 4.625 -11.3125 4.625 -9 4 C-8.34 3.34 -7.68 2.68 -7 2 C-4.68234271 1.28072705 -2.34904126 0.6090107 0 0 Z " fill="#E1CFA2" transform="translate(22,3)"/>
<path d="M0 0 C4.03596599 1.74201951 5.78734832 3.7794122 8.02734375 7.4921875 C9.84740481 12.18487505 9.37089408 17.05474564 9 22 C7.02 22.99 7.02 22.99 5 24 C5 21.66666667 5 19.33333333 5 17 C4.566875 18.794375 4.566875 18.794375 4.125 20.625 C3.75193098 22.08382851 3.37697782 23.54217668 3 25 C2.731875 26.051875 2.46375 27.10375 2.1875 28.1875 C0.74143308 31.61239534 -1.25109726 33.54045544 -4 36 C-4.66 35.67 -5.32 35.34 -6 35 C-4.625 33 -4.625 33 -3 31 C-2.34 31 -1.68 31 -1 31 C-1.185625 30.34 -1.37125 29.68 -1.5625 29 C-2.13027308 25.10669886 -1.59281707 21.88624521 -1 18 C-0.01 17.67 0.98 17.34 2 17 C1.855625 16.46375 1.71125 15.9275 1.5625 15.375 C1 13 1 13 0.9375 9.9375 C0.33895476 6.91751348 0.33895476 6.91751348 -1.84375 5.94921875 C-3.88019478 5.19272254 -5.89796055 4.5458599 -8 4 C-8 3.01 -8 2.02 -8 1 C-6.35 1 -4.7 1 -3 1 C-3 1.66 -3 2.32 -3 3 C-2.34 3 -1.68 3 -1 3 C-0.67 2.01 -0.34 1.02 0 0 Z " fill="#C4AC6E" transform="translate(38,6)"/>
<path d="M0 0 C0 3 0 3 -1 5 C-1.66 5 -2.32 5 -3 5 C-3 3.68 -3 2.36 -3 1 C-4.83284443 -0.12516085 -4.83284443 -0.12516085 -7 -1 C-7.99 -0.67 -8.98 -0.34 -10 0 C-10 0.66 -10 1.32 -10 2 C-10.66 2 -11.32 2 -12 2 C-12 1.01 -12 0.02 -12 -1 C-12.66 -1.33 -13.32 -1.66 -14 -2 C-14.33 -1.34 -14.66 -0.68 -15 0 C-16.99609375 0.78125 -16.99609375 0.78125 -19.4375 1.5 C-23.09382035 2.57316512 -23.09382035 2.57316512 -26 5 C-26.61875 5.061875 -27.2375 5.12375 -27.875 5.1875 C-30.76438587 6.29226518 -31.83693431 8.1441516 -33.234375 10.828125 C-34.65185152 14.84912982 -34.76066623 18.82002829 -34 23 C-32.70896357 24.3743291 -31.3743291 25.70896357 -30 27 C-29.34636716 29.98579482 -29.13032971 32.95028476 -29 36 C-33.61789623 32.51805685 -36.92918446 29.94897523 -38 24 C-38.77277135 16.1434913 -36.45933527 9.96040928 -31.6875 3.6875 C-21.99233237 -6.00766763 -11.75204379 -5.39438076 0 0 Z " fill="#B3A79B" transform="translate(38,4)"/>
<path d="M0 0 C2.375 -0.1875 2.375 -0.1875 5 0 C7.67927341 4.01891012 7.15601248 6.24161923 7 11 C6.01 11.495 6.01 11.495 5 12 C4.53069588 14.25371265 4.53069588 14.25371265 4.375 16.875 C4.30023438 17.75929688 4.22546875 18.64359375 4.1484375 19.5546875 C4.03841705 21.36712973 4 23.18422157 4 25 C3.34 25 2.68 25 2 25 C1.34 26.32 0.68 27.64 0 29 C-1.32 28.67 -2.64 28.34 -4 28 C-4 24 -4 24 -2.625 22.25 C-1 21 -1 21 1 21 C1 19.35 1 17.7 1 16 C-0.11375 17.4540625 -0.11375 17.4540625 -1.25 18.9375 C-2.97309915 21.02387361 -3.73868694 21.90112479 -6.3125 22.875 C-6.869375 22.91625 -7.42625 22.9575 -8 23 C-8 22.01 -8 21.02 -8 20 C-6.35 19.34 -4.7 18.68 -3 18 C-3 16.68 -3 15.36 -3 14 C-3.66 13.67 -4.32 13.34 -5 13 C-5 11.68 -5 10.36 -5 9 C-2.69 8.34 -0.38 7.68 2 7 C1.34 6.34 0.68 5.68 0 5 C-0.125 2.375 -0.125 2.375 0 0 Z " fill="#837C21" transform="translate(33,12)"/>
<path d="M0 0 C1.98 0 3.96 0 6 0 C6 0.66 6 1.32 6 2 C7.45817797 2.16802051 8.9165484 2.33437143 10.375 2.5 C11.59316406 2.63921875 11.59316406 2.63921875 12.8359375 2.78125 C14.96912825 3.03352351 14.96912825 3.03352351 17 3 C17.33 2.01 17.66 1.02 18 0 C18.66 0.33 19.32 0.66 20 1 C19.65120368 4.25543229 18.97866739 5.01873107 16.4375 7.25 C15.2309375 8.11625 15.2309375 8.11625 14 9 C15.32 9 16.64 9 18 9 C18.33 8.01 18.66 7.02 19 6 C19.66 6 20.32 6 21 6 C21.66 4.35 22.32 2.7 23 1 C23.93423645 4.01031744 24.04449911 4.86650268 23 8 C22.34 8 21.68 8 21 8 C20.67 8.99 20.34 9.98 20 11 C19.34 11 18.68 11 18 11 C18 12.65 18 14.3 18 16 C17.62875 15.525625 17.2575 15.05125 16.875 14.5625 C14.37353038 12.47794198 12.18406582 12.35378509 9 12 C8.67 11.01 8.34 10.02 8 9 C6.35511706 7.31183067 4.68662458 5.64646685 3 4 C1.97186389 2.68824014 0.95915568 1.3630107 0 0 Z " fill="#E5CD95" transform="translate(11,25)"/>
<path d="M0 0 C0.7940625 -0.01417969 1.588125 -0.02835938 2.40625 -0.04296875 C4.5 0.1875 4.5 0.1875 6.5 2.1875 C5.96428571 5.72321429 5.96428571 5.72321429 4.5 7.1875 C6.15 7.1875 7.8 7.1875 9.5 7.1875 C5.76273303 9.67901132 1.83216405 9.7420813 -2.5 9.1875 C-4.98972801 8.37634568 -7.14672083 7.36413958 -9.5 6.1875 C-8.18 5.5275 -6.86 4.8675 -5.5 4.1875 C-5.83 3.8575 -6.16 3.5275 -6.5 3.1875 C-6.5 2.5275 -6.5 1.8675 -6.5 1.1875 C-4.14653604 0.01076802 -2.6193967 0.02126134 0 0 Z " fill="#98A24C" transform="translate(21.5,36.8125)"/>
<path d="M0 0 C0.12375 0.928125 0.12375 0.928125 0.25 1.875 C0.81258459 4.18437567 0.81258459 4.18437567 3.0625 5.25 C3.701875 5.4975 4.34125 5.745 5 6 C1.53087705 6.55505967 -1.73171297 7.00515937 -5.25 6.9375 C-8.21931521 6.75935062 -8.21931521 6.75935062 -11 9 C-11.59070014 10.94603274 -11.59070014 10.94603274 -12 13 C-12.99 14.485 -12.99 14.485 -14 16 C-14.16699232 19.12521833 -14.16699232 19.12521833 -14 22 C-15.51171875 20.8125 -15.51171875 20.8125 -17 19 C-17.14453125 16.625 -17.14453125 16.625 -16.8125 14 C-16.71582031 13.13375 -16.61914062 12.2675 -16.51953125 11.375 C-16 9 -16 9 -14 6 C-12.34795544 5.29788106 -10.68076231 4.63028587 -9 4 C-8.34 3.34 -7.68 2.68 -7 2 C-4.68234271 1.28072705 -2.34904126 0.6090107 0 0 Z " fill="#F3E6B7" transform="translate(22,3)"/>
<path d="M0 0 C0.66 0 1.32 0 2 0 C0.125 4.75 0.125 4.75 -1 7 C-1.3576464 10.36539397 -1.41805863 13.63902866 -1 17 C0.29103643 18.3743291 1.6256709 19.70896357 3 21 C3.65363284 23.98579482 3.86967029 26.95028476 4 30 C-0.61789623 26.51805685 -3.92918446 23.94897523 -5 18 C-5.6527119 11.3640957 -4.1774606 6.83172487 -1 1 C-0.67 0.67 -0.34 0.34 0 0 Z " fill="#9F938B" transform="translate(5,10)"/>
<path d="M0 0 C0.33 0.66 0.66 1.32 1 2 C-0.50663783 5.01327566 -3.03166411 5.61056618 -6 7 C-6 8.32 -6 9.64 -6 11 C-5.01 10.34 -4.02 9.68 -3 9 C-3.66 10.32 -4.32 11.64 -5 13 C-5.66 13 -6.32 13 -7 13 C-7 13.66 -7 14.32 -7 15 C-8.65 15 -10.3 15 -12 15 C-12.6875 12.8125 -12.6875 12.8125 -13 10 C-11.625 7.375 -11.625 7.375 -10 5 C-9.67 4.01 -9.34 3.02 -9 2 C-5.5647952 -0.29013653 -4.014669 -0.17842973 0 0 Z " fill="#D2682F" transform="translate(20,9)"/>
<path d="M0 0 C1.45986328 0.14501953 1.45986328 0.14501953 2.94921875 0.29296875 C3.72910156 0.46441406 4.50898438 0.63585938 5.3125 0.8125 C5.6425 1.4725 5.9725 2.1325 6.3125 2.8125 C4.0025 2.4825 1.6925 2.1525 -0.6875 1.8125 C-0.6875 2.4725 -0.6875 3.1325 -0.6875 3.8125 C0.3025 3.4825 1.2925 3.1525 2.3125 2.8125 C2.9725 3.1425 3.6325 3.4725 4.3125 3.8125 C3.9825 4.8025 3.6525 5.7925 3.3125 6.8125 C3.3125 6.1525 3.3125 5.4925 3.3125 4.8125 C2.68601562 5.11285156 2.05953125 5.41320312 1.4140625 5.72265625 C0.59679688 6.10292969 -0.22046875 6.48320312 -1.0625 6.875 C-1.87460937 7.25785156 -2.68671875 7.64070313 -3.5234375 8.03515625 C-4.23757812 8.29167969 -4.95171875 8.54820313 -5.6875 8.8125 C-6.3475 8.4825 -7.0075 8.1525 -7.6875 7.8125 C-8.0175 7.8125 -8.3475 7.8125 -8.6875 7.8125 C-9.0175 7.8125 -9.3475 7.8125 -9.6875 7.8125 C-9.9375 5.5 -9.9375 5.5 -9.6875 2.8125 C-6.54466061 -0.36731397 -4.33685692 -0.49216667 0 0 Z " fill="#F8EABE" transform="translate(22.6875,13.1875)"/>
<path d="M0 0 C0.33 0 0.66 0 1 0 C1.05422947 1.4370809 1.09289723 2.87475462 1.125 4.3125 C1.14820313 5.11300781 1.17140625 5.91351563 1.1953125 6.73828125 C0.87447419 10.4535889 -1.77794511 13.12264792 -3.9375 16.0625 C-4.44152344 16.75472656 -4.94554687 17.44695313 -5.46484375 18.16015625 C-7 20 -7 20 -10 22 C-9.80664062 21.31035156 -9.61328125 20.62070312 -9.4140625 19.91015625 C-7.76761853 13.96828666 -6.28514381 8.03029017 -5 2 C-4.01 2.99 -3.02 3.98 -2 5 C-2.66 5 -3.32 5 -4 5 C-4 5.66 -4 6.32 -4 7 C-2.2236068 8.0745356 -2.2236068 8.0745356 -1 8 C-0.67 5.36 -0.34 2.72 0 0 Z " fill="#6B4B39" transform="translate(47,20)"/>
<path d="M0 0 C0.99 0 1.98 0 3 0 C3 3.96 3 7.92 3 12 C2.34 12 1.68 12 1 12 C0.34 13.32 -0.32 14.64 -1 16 C-2.32 15.67 -3.64 15.34 -5 15 C-5 11 -5 11 -3.625 9.25 C-2 8 -2 8 0 8 C0 5.36 0 2.72 0 0 Z " fill="#BC744C" transform="translate(34,25)"/>
<path d="M0 0 C0.99 0.33 1.98 0.66 3 1 C4.47079646 8.10884956 4.47079646 8.10884956 2.25 12.3125 C0.56646799 14.32338545 -1.05288941 16.24760047 -3 18 C-3.66 17.67 -4.32 17.34 -5 17 C-3.625 15 -3.625 15 -2 13 C-1.34 13 -0.68 13 0 13 C-0.185625 12.34 -0.37125 11.68 -0.5625 11 C-1.13027308 7.10669886 -0.59281707 3.88624521 0 0 Z " fill="#EBD8A3" transform="translate(37,24)"/>
<path d="M0 0 C1.98 0.495 1.98 0.495 4 1 C3.34 1 2.68 1 2 1 C2 1.99 2 2.98 2 4 C2.66 4 3.32 4 4 4 C4 3.34 4 2.68 4 2 C4.66 2 5.32 2 6 2 C6.33 1.34 6.66 0.68 7 0 C8.65 0.99 10.3 1.98 12 3 C11 5 11 5 9.29296875 5.703125 C3.55378062 7.19382322 3.55378062 7.19382322 0.5 6.125 C0.005 5.75375 -0.49 5.3825 -1 5 C-0.67 3.35 -0.34 1.7 0 0 Z " fill="#934124" transform="translate(24,2)"/>
<path d="M0 0 C3.875 1.75 3.875 1.75 5 4 C5.07065617 6.04055005 5.08421976 8.08334257 5.0625 10.125 C5.05347656 11.22070312 5.04445313 12.31640625 5.03515625 13.4453125 C5.02355469 14.28835937 5.01195312 15.13140625 5 16 C3.02 16.99 3.02 16.99 1 18 C1 15 1 15 1.625 11.25 C2.20031548 6.99424163 1.42418686 4.02123349 0 0 Z " fill="#DD9C70" transform="translate(42,12)"/>
<path d="M0 0 C2.375 0.5625 2.375 0.5625 5 2 C6.58927005 5.90093559 7.60886615 8.97783462 6 13 C1.90050429 8.69027374 0.36881356 6.14689273 0 0 Z " fill="#BB4129" transform="translate(2,27)"/>
<path d="M0 0 C1.625 3.3125 1.625 3.3125 3 7 C2.01 8.485 2.01 8.485 1 10 C0.67 9.34 0.34 8.68 0 8 C-1.98 8.33 -3.96 8.66 -6 9 C-6 7.68 -6 6.36 -6 5 C-4.68 4.67 -3.36 4.34 -2 4 C-2.99 3.01 -3.98 2.02 -5 1 C-3 0 -3 0 0 0 Z " fill="#C9AC60" transform="translate(26,18)"/>
<path d="M0 0 C0.93423645 3.01031744 1.04449911 3.86650268 0 7 C-0.66 7 -1.32 7 -2 7 C-2.33 7.99 -2.66 8.98 -3 10 C-3.66 10 -4.32 10 -5 10 C-5 11.65 -5 13.3 -5 15 C-5.66 14.34 -6.32 13.68 -7 13 C-7 12.01 -7 11.02 -7 10 C-8.32 9.67 -9.64 9.34 -11 9 C-9.02 8.67 -7.04 8.34 -5 8 C-4.67 7.01 -4.34 6.02 -4 5 C-3.34 5 -2.68 5 -2 5 C-1.34 3.35 -0.68 1.7 0 0 Z " fill="#F7EFC5" transform="translate(34,26)"/>
<path d="M0 0 C1.32 0 2.64 0 4 0 C4.37617555 4.51410658 4.37617555 4.51410658 2.5 6.9375 C0.49460589 9.6949169 0.77317278 11.67320074 1 15 C-0.515625 13.81640625 -0.515625 13.81640625 -2 12 C-2.109375 9.58984375 -2.109375 9.58984375 -1.75 6.9375 C-1.64171875 6.05964844 -1.5334375 5.18179687 -1.421875 4.27734375 C-1 2 -1 2 0 0 Z " fill="#FBF1C7" transform="translate(7,10)"/>
<path d="M0 0 C2.375 -0.1875 2.375 -0.1875 5 0 C7 3 7 3 7 7 C4.625 7.125 4.625 7.125 2 7 C0 5 0 5 -0.125 2.375 C-0.08375 1.59125 -0.0425 0.8075 0 0 Z " fill="#CC1E12" transform="translate(33,12)"/>
<path d="M0 0 C1.32 0.66 2.64 1.32 4 2 C3.34 2.66 2.68 3.32 2 4 C1.01 3.67 0.02 3.34 -1 3 C-1 4.32 -1 5.64 -1 7 C-0.34 7 0.32 7 1 7 C1.33 6.34 1.66 5.68 2 5 C2.99 5.33 3.98 5.66 5 6 C5.33 5.01 5.66 4.02 6 3 C6.042721 4.66611905 6.04063832 6.33382885 6 8 C5 9 5 9 2.0625 9.1875 C-1 9 -1 9 -3 7 C-2.625 4.375 -2.625 4.375 -2 2 C-1.34 2 -0.68 2 0 2 C0 1.34 0 0.68 0 0 Z " fill="#C22004" transform="translate(21,20)"/>
<path d="M0 0 C0 3 0 3 -1 6 C-5.39529916 7.98834962 -9.22037853 8.19118486 -14 8 C-11.8125 5.4375 -11.8125 5.4375 -9 3 C-7.32457024 3.28604898 -5.65614657 3.61781233 -4 4 C-1.66545339 2.16641665 -1.66545339 2.16641665 0 0 Z " fill="#AF975C" transform="translate(38,37)"/>
<path d="M0 0 C2.31 0.66 4.62 1.32 7 2 C6.01 2.495 6.01 2.495 5 3 C6.32 3.66 7.64 4.32 9 5 C6 7 6 7 2.8125 6.625 C1.884375 6.41875 0.95625 6.2125 0 6 C0 4.02 0 2.04 0 0 Z " fill="#F7E5B7" transform="translate(10,35)"/>
<path d="M0 0 C1.98 0 3.96 0 6 0 C6 0.66 6 1.32 6 2 C7.32 2.66 8.64 3.32 10 4 C9.01 4.99 8.02 5.98 7 7 C3.00003714 5.66667905 2.16217663 3.5042173 0 0 Z " fill="#EAE1B9" transform="translate(11,25)"/>
<path d="M0 0 C5.63470383 -0.5497272 8.38987758 1.04952165 13 4 C12.34 5.32 11.68 6.64 11 8 C10.34 8 9.68 8 9 8 C9 6.68 9 5.36 9 4 C7.16715557 2.87483915 7.16715557 2.87483915 5 2 C4.01 2.33 3.02 2.66 2 3 C2 3.66 2 4.32 2 5 C1.34 5 0.68 5 0 5 C0 3.35 0 1.7 0 0 Z " fill="#C49076" transform="translate(26,1)"/>
<path d="M0 0 C1.4540625 0.0309375 1.4540625 0.0309375 2.9375 0.0625 C3.2675 0.7225 3.5975 1.3825 3.9375 2.0625 C2.9375 4.0625 2.9375 4.0625 -0.125 5.1875 C-1.5790625 5.620625 -1.5790625 5.620625 -3.0625 6.0625 C-3.44468767 4.40635343 -3.77645102 2.73792976 -4.0625 1.0625 C-3.0625 0.0625 -3.0625 0.0625 0 0 Z " fill="#DA5236" transform="translate(17.0625,8.9375)"/>
<path d="M0 0 C-0.33 1.65 -0.66 3.3 -1 5 C-3.3431213 4.74438677 -5.67843403 4.40729228 -8 4 C-8.33 3.34 -8.66 2.68 -9 2 C-5.62902617 0.50178941 -3.79557881 0 0 0 Z " fill="#D4170B" transform="translate(21,40)"/>
<path d="M0 0 C-0.33 1.32 -0.66 2.64 -1 4 C-2.32 3.34 -3.64 2.68 -5 2 C-5 2.66 -5 3.32 -5 4 C-4.34 4 -3.68 4 -3 4 C-4.25541557 6.51083114 -5.50063488 6.87125446 -8 8 C-8.25 5.6875 -8.25 5.6875 -8 3 C-5.18144066 0.08077783 -4.20010777 0 0 0 Z " fill="#E1C286" transform="translate(21,13)"/>
<path d="M0 0 C0 0.99 0 1.98 0 3 C-2.64 3.33 -5.28 3.66 -8 4 C-8 2.68 -8 1.36 -8 0 C-5.13822943 -1.43088528 -3.06624227 -0.59991697 0 0 Z " fill="#4E9717" transform="translate(29,10)"/>
<path d="M0 0 C0 0.66 0 1.32 0 2 C-0.83144531 2.29003906 -0.83144531 2.29003906 -1.6796875 2.5859375 C-2.40414063 2.84632812 -3.12859375 3.10671875 -3.875 3.375 C-4.59429687 3.63023438 -5.31359375 3.88546875 -6.0546875 4.1484375 C-8.18157994 4.93877783 -8.18157994 4.93877783 -10 7 C-12.125 6.625 -12.125 6.625 -14 6 C-9.4386162 2.43765127 -5.97768223 0 0 0 Z " fill="#8A6D44" transform="translate(22,2)"/>
<path d="M0 0 C0.99 0.33 1.98 0.66 3 1 C1.64978174 5.41889613 -0.26115668 7.34345343 -4 10 C-3.52449439 8.51965236 -3.04448784 7.04074979 -2.5625 5.5625 C-2.29566406 4.73878906 -2.02882812 3.91507813 -1.75390625 3.06640625 C-1 1 -1 1 0 0 Z " fill="#4D560D" transform="translate(41,32)"/>
<path d="M0 0 C1.65 0.33 3.3 0.66 5 1 C5 1.66 5 2.32 5 3 C6.65 3 8.3 3 10 3 C6.09971775 5.60018816 2.52565431 5.15085514 -2 5 C-1.34 3.35 -0.68 1.7 0 0 Z " fill="#695026" transform="translate(21,41)"/>
<path d="M0 0 C0.33 1.32 0.66 2.64 1 4 C-2 6 -2 6 -5 6 C-5 4.35 -5 2.7 -5 1 C-3 0 -3 0 0 0 Z " fill="#4A680F" transform="translate(39,19)"/>
<path d="M0 0 C2.375 -0.1875 2.375 -0.1875 5 0 C5.66 0.99 6.32 1.98 7 3 C7.99 3.33 8.98 3.66 10 4 C10 4.33 10 4.66 10 5 C2.25 4.125 2.25 4.125 0 3 C0 2.01 0 1.02 0 0 Z " fill="#F2E3B1" transform="translate(30,7)"/>
<path d="M0 0 C0.99 0.33 1.98 0.66 3 1 C-1.43076923 6.78461538 -1.43076923 6.78461538 -4.3125 7.875 C-5.1478125 7.936875 -5.1478125 7.936875 -6 8 C-6 7.01 -6 6.02 -6 5 C-5.195625 4.731875 -4.39125 4.46375 -3.5625 4.1875 C-2.716875 3.795625 -1.87125 3.40375 -1 3 C-0.67 2.01 -0.34 1.02 0 0 Z " fill="#BC893E" transform="translate(31,27)"/>
<path d="M0 0 C3 2 3 2 4 4 C2.54536519 4.38909985 1.08608793 4.76088029 -0.375 5.125 C-1.18710938 5.33382813 -1.99921875 5.54265625 -2.8359375 5.7578125 C-3.55007813 5.83773438 -4.26421875 5.91765625 -5 6 C-5.66 5.34 -6.32 4.68 -7 4 C-5.824375 3.566875 -5.824375 3.566875 -4.625 3.125 C-1.90328368 2.15087746 -1.90328368 2.15087746 0 0 Z " fill="#E9C785" transform="translate(15,5)"/>
<path d="M0 0 C2 0 2 0 4.625 2.3125 C7 5 7 5 7 8 C5.35 7.67 3.7 7.34 2 7 C1.34 4.69 0.68 2.38 0 0 Z " fill="#BC3D13" transform="translate(13,29)"/>
<path d="M0 0 C3.75504711 1.45356662 3.75504711 1.45356662 4.8125 3.8125 C5.03322704 6.38764878 4.62444329 8.50222685 4 11 C3.34 11 2.68 11 2 11 C1.855625 9.9275 1.71125 8.855 1.5625 7.75 C1.16250558 5.08337051 0.72408076 2.58600271 0 0 Z " fill="#8A6F42" transform="translate(42,12)"/>
<path d="M0 0 C2.64 0 5.28 0 8 0 C8 1.65 8 3.3 8 5 C7.01 5.33 6.02 5.66 5 6 C5 4.68 5 3.36 5 2 C3.35 2 1.7 2 0 2 C0 1.34 0 0.68 0 0 Z " fill="#E3C988" transform="translate(22,15)"/>
<path d="M0 0 C0.66 0 1.32 0 2 0 C1.71125 0.70125 1.4225 1.4025 1.125 2.125 C-0.02133588 5.05452503 -1.02625654 8.00921653 -2 11 C-3.1875 9.375 -3.1875 9.375 -4 7 C-1.9 1.9 -1.9 1.9 0 0 Z " fill="#A08B6F" transform="translate(5,10)"/>
<path d="M0 0 C2.475 0.99 2.475 0.99 5 2 C4.67 3.32 4.34 4.64 4 6 C2.35 6.33 0.7 6.66 -1 7 C-0.01 5.35 0.98 3.7 2 2 C1.34 2 0.68 2 0 2 C0 1.34 0 0.68 0 0 Z " fill="#FAF1D0" transform="translate(16,15)"/>
<path d="M0 0 C2.97 0 5.94 0 9 0 C9.33 1.32 9.66 2.64 10 4 C6.7 3.01 3.4 2.02 0 1 C0 0.67 0 0.34 0 0 Z " fill="#708314" transform="translate(17,37)"/>
<path d="M0 0 C0.66 0.33 1.32 0.66 2 1 C1.67 2.32 1.34 3.64 1 5 C-1.97 5 -4.94 5 -8 5 C-8 4.67 -8 4.34 -8 4 C-4.535 3.505 -4.535 3.505 -1 3 C-0.67 2.01 -0.34 1.02 0 0 Z " fill="#DABE84" transform="translate(29,25)"/>
<path d="M0 0 C0.99 0.99 1.98 1.98 3 3 C2.34 3 1.68 3 1 3 C1 3.66 1 4.32 1 5 C1.66 5.33 2.32 5.66 3 6 C1.625 7.5 1.625 7.5 0 9 C-0.66 9 -1.32 9 -2 9 C-1.34 6.03 -0.68 3.06 0 0 Z " fill="#A94D15" transform="translate(42,22)"/>
<path d="M0 0 C0.33 1.32 0.66 2.64 1 4 C-0.98 4.33 -2.96 4.66 -5 5 C-5 3.68 -5 2.36 -5 1 C-3.35 0.67 -1.7 0.34 0 0 Z " fill="#F65D3F" transform="translate(25,22)"/>
<path d="M0 0 C0.33 0.66 0.66 1.32 1 2 C0.34 2 -0.32 2 -1 2 C-1.33 3.65 -1.66 5.3 -2 7 C-2.45375 6.505 -2.9075 6.01 -3.375 5.5 C-4.87635519 3.77390663 -4.87635519 3.77390663 -7 4 C-7 3.34 -7 2.68 -7 2 C-4.69 1.34 -2.38 0.68 0 0 Z " fill="#CAB866" transform="translate(20,20)"/>
<path d="M0 0 C0.99 0.33 1.98 0.66 3 1 C4.3125 3.875 4.3125 3.875 5 7 C4.01 8.485 4.01 8.485 3 10 C2.01 6.7 1.02 3.4 0 0 Z " fill="#EED68A" transform="translate(40,13)"/>
<path d="M0 0 C1.32 0.33 2.64 0.66 4 1 C3.34 1 2.68 1 2 1 C3.30155006 5.07964281 3.30155006 5.07964281 5 9 C3.0625 8.625 3.0625 8.625 1 8 C-0.35439668 5.29120665 -0.06501451 2.99066732 0 0 Z " fill="#AD7F3D" transform="translate(31,11)"/>
<path d="M0 0 C0.99 0.33 1.98 0.66 3 1 C2.67 1.99 2.34 2.98 2 4 C-0.31 4.33 -2.62 4.66 -5 5 C-3.35 3.35 -1.7 1.7 0 0 Z " fill="#D1B97E" transform="translate(29,40)"/>
<path d="M0 0 C-0.33 1.98 -0.66 3.96 -1 6 C-1.66 5.34 -2.32 4.68 -3 4 C-3 3.01 -3 2.02 -3 1 C-4.32 0.67 -5.64 0.34 -7 0 C-3.86650268 -1.04449911 -3.01031744 -0.93423645 0 0 Z " fill="#F8F3DA" transform="translate(30,35)"/>
<path d="M0 0 C0.99 0.33 1.98 0.66 3 1 C2.67 2.65 2.34 4.3 2 6 C1.34 6 0.68 6 0 6 C-0.33 6.66 -0.66 7.32 -1 8 C-0.67 5.36 -0.34 2.72 0 0 Z " fill="#FAF1CF" transform="translate(37,24)"/>
<path d="M0 0 C0 1.98 0 3.96 0 6 C-0.99 6 -1.98 6 -3 6 C-3.33 4.35 -3.66 2.7 -4 1 C-2 0 -2 0 0 0 Z " fill="#E1CD99" transform="translate(42,22)"/>
<path d="M0 0 C1.98 0.495 1.98 0.495 4 1 C3.34 1 2.68 1 2 1 C2.33 2.65 2.66 4.3 3 6 C1.68 5.67 0.36 5.34 -1 5 C-0.67 3.35 -0.34 1.7 0 0 Z " fill="#E0531E" transform="translate(24,2)"/>
<path d="M0 0 C0.33 0.66 0.66 1.32 1 2 C3.01669827 3.13350534 3.01669827 3.13350534 5 4 C3.625 5.5 3.625 5.5 2 7 C1.34 7 0.68 7 0 7 C0 4.69 0 2.38 0 0 Z " fill="#F7ECC3" transform="translate(16,25)"/>
<path d="M0 0 C0.99 0.33 1.98 0.66 3 1 C3 2.65 3 4.3 3 6 C2.34 6 1.68 6 1 6 C0.34 4.35 -0.32 2.7 -1 1 C-0.67 0.67 -0.34 0.34 0 0 Z " fill="#829D2A" transform="translate(9,27)"/>
</svg>
