<?xml version="1.0" encoding="UTF-8"?>
<svg version="1.1" xmlns="http://www.w3.org/2000/svg" width="48" height="48">
<path d="M0 0 C2.5625 1.0625 2.5625 1.0625 4.4375 4.5625 C6.07251561 9.65125645 5.97908852 15.22932297 3.5625 20.0625 C4.2225 20.0625 4.8825 20.0625 5.5625 20.0625 C5.5625 20.7225 5.5625 21.3825 5.5625 22.0625 C6.160625 22.31 6.75875 22.5575 7.375 22.8125 C10.07940582 24.35787476 11.12992238 25.26897365 12.5625 28.0625 C12.80742511 31.07976886 12.73672028 34.04268176 12.5625 37.0625 C5.77030865 41.24231006 0.44852342 41.5356614 -7.4375 41.0625 C-7.4375 42.7125 -7.4375 44.3625 -7.4375 46.0625 C-13.60096358 49.14423179 -22.09139483 46.54634923 -28.4375 45.0625 C-28.1075 43.4125 -27.7775 41.7625 -27.4375 40.0625 C-23.74859101 38.83286367 -20.30050794 38.50579599 -16.4375 38.0625 C-16.21610352 37.36801758 -15.99470703 36.67353516 -15.76660156 35.95800781 C-14.74103753 32.74258176 -13.7142738 29.52753994 -12.6875 26.3125 C-12.33945312 25.22066406 -11.99140625 24.12882812 -11.6328125 23.00390625 C-10.92832081 20.79910818 -10.22062468 18.59533151 -9.50976562 16.39257812 C-8.78075131 14.12851727 -8.06103049 11.86144738 -7.34960938 9.59179688 C-7.00220703 8.50447266 -6.65480469 7.41714844 -6.296875 6.296875 C-5.98717773 5.31428711 -5.67748047 4.33169922 -5.35839844 3.31933594 C-4.10933573 0.25827135 -3.24550066 0.08321797 0 0 Z M-2.4375 4.0625 C-3.30439178 6.64217797 -4.15623789 9.22526127 -5 11.8125 C-5.24685547 12.54210938 -5.49371094 13.27171875 -5.74804688 14.0234375 C-5.97685547 14.73242188 -6.20566406 15.44140625 -6.44140625 16.171875 C-6.65611572 16.82124023 -6.8708252 17.47060547 -7.09204102 18.13964844 C-7.49758636 20.39694538 -7.13046911 21.89723482 -6.4375 24.0625 C-1.94748972 21.6304769 -1.94748972 21.6304769 1.5625 18.0625 C2.9116555 12.66587801 2.33306684 9.16589855 0.5625 4.0625 C-0.4275 4.0625 -1.4175 4.0625 -2.4375 4.0625 Z M-8.4375 24.0625 C-7.4375 26.0625 -7.4375 26.0625 -7.4375 26.0625 Z M-12.4375 38.0625 C-11.4375 40.0625 -11.4375 40.0625 -11.4375 40.0625 Z " fill="#363537" transform="translate(32.4375,-0.0625)"/>
<path d="M0 0 C2.475 0.99 2.475 0.99 5 2 C5 2.66 5 3.32 5 4 C5.598125 4.2475 6.19625 4.495 6.8125 4.75 C9.51690582 6.29537476 10.56742238 7.20647365 12 10 C12.24492511 13.01726886 12.17422028 15.98018176 12 19 C10.03533587 20.06775224 8.03144641 21.06553465 6 22 C5.34 21.67 4.68 21.34 4 21 C4.33 20.01 4.66 19.02 5 18 C3.02 18.33 1.04 18.66 -1 19 C-1 18.01 -1 17.02 -1 16 C-1.99 16.33 -2.98 16.66 -4 17 C-4 17.66 -4 18.32 -4 19 C-5.32 18.67 -6.64 18.34 -8 18 C-8.30899273 13.4681066 -7.95212007 11.44414008 -5 8 C-5 7.34 -5 6.68 -5 6 C-5.66 5.67 -6.32 5.34 -7 5 C-6.21625 4.54625 -5.4325 4.0925 -4.625 3.625 C-1.96301969 2.11571258 -1.96301969 2.11571258 0 0 Z " fill="#2F5B8C" transform="translate(33,18)"/>
<path d="M0 0 C2.5 1.1875 2.5 1.1875 4.375 4.6875 C5.79854722 9.16843841 5.97571393 13.68563852 4.5 18.1875 C3.51 18.8475 2.52 19.5075 1.5 20.1875 C1.51160156 19.61902344 1.52320313 19.05054687 1.53515625 18.46484375 C1.59223194 13.58079516 1.31956772 9.00246035 0.5 4.1875 C-0.49 4.1875 -1.48 4.1875 -2.5 4.1875 C-2.60957031 4.77015625 -2.71914063 5.3528125 -2.83203125 5.953125 C-6.46336858 24.72979607 -6.46336858 24.72979607 -10.5 33.1875 C-11.92376318 30.33997365 -11.01354329 28.26875973 -10.5 25.1875 C-10.83 24.5275 -11.16 23.8675 -11.5 23.1875 C-10.84691905 19.80956566 -9.75088911 16.53961948 -8.75 13.25 C-8.48445313 12.33025391 -8.21890625 11.41050781 -7.9453125 10.46289062 C-7.67976563 9.57923828 -7.41421875 8.69558594 -7.140625 7.78515625 C-6.89860352 6.97570557 -6.65658203 6.16625488 -6.40722656 5.33227539 C-4.98582617 1.97194105 -3.71361545 0.27852116 0 0 Z " fill="#565557" transform="translate(32.5,-0.1875)"/>
<path d="M0 0 C2.31 0 4.62 0 7 0 C7 0.66 7 1.32 7 2 C6.01 2 5.02 2 4 2 C4 2.66 4 3.32 4 4 C5.32 4 6.64 4 8 4 C8 7.3 8 10.6 8 14 C7.34 14 6.68 14 6 14 C6 13.01 6 12.02 6 11 C5.01 11.33 4.02 11.66 3 12 C3 12.66 3 13.32 3 14 C1.68 13.67 0.36 13.34 -1 13 C-1.30899273 8.4681066 -0.95212007 6.44414008 2 3 C2 2.34 2 1.68 2 1 C1.34 0.67 0.68 0.34 0 0 Z " fill="#646776" transform="translate(26,23)"/>
<path d="M0 0 C2.475 0.99 2.475 0.99 5 2 C5 2.66 5 3.32 5 4 C5.66 4 6.32 4 7 4 C6.67 5.65 6.34 7.3 6 9 C5.01 9 4.02 9 3 9 C3 11.31 3 13.62 3 16 C2.67 16 2.34 16 2 16 C2 13.36 2 10.72 2 8 C0.35 8.33 -1.3 8.66 -3 9 C-3 8.34 -3 7.68 -3 7 C-2.01 7 -1.02 7 0 7 C0 6.34 0 5.68 0 5 C-1.32 5.33 -2.64 5.66 -4 6 C-2.84826645 3.53199953 -1.95216435 1.95216435 0 0 Z " fill="#0E3D77" transform="translate(33,18)"/>
<path d="M0 0 C1.69752187 0.25245197 3.38471545 0.57645775 5.0625 0.9375 C5.98160156 1.13214844 6.90070312 1.32679687 7.84765625 1.52734375 C8.91306641 1.76130859 8.91306641 1.76130859 10 2 C10 2.66 10 3.32 10 4 C8.35 4 6.7 4 5 4 C5 4.66 5 5.32 5 6 C5.66 6.33 6.32 6.66 7 7 C4.03 6.67 1.06 6.34 -2 6 C-1.125 1.125 -1.125 1.125 0 0 Z " fill="#4E4042" transform="translate(6,39)"/>
<path d="M0 0 C0.99 0.33 1.98 0.66 3 1 C4.56154748 10.68581477 4.56154748 10.68581477 2 15 C1.01 15.495 1.01 15.495 0 16 C0 10.72 0 5.44 0 0 Z " fill="#303032" transform="translate(34,4)"/>
<path d="M0 0 C0.99 0.66 1.98 1.32 3 2 C3 2.66 3 3.32 3 4 C2.34 4 1.68 4 1 4 C1 6.97 1 9.94 1 13 C0.01 13.33 -0.98 13.66 -2 14 C-3.32 12.68 -4.64 11.36 -6 10 C-5.01 10 -4.02 10 -3 10 C-3 9.34 -3 8.68 -3 8 C-2.34 8 -1.68 8 -1 8 C-0.67 5.36 -0.34 2.72 0 0 Z " fill="#45474B" transform="translate(24,33)"/>
<path d="M0 0 C1.61949011 2.57213134 2.04408751 3.67669159 1.625 6.75 C1.41875 7.4925 1.2125 8.235 1 9 C-1.31 9.66 -3.62 10.32 -6 11 C-5.67 9.68 -5.34 8.36 -5 7 C-3.68 6.67 -2.36 6.34 -1 6 C-1.020625 5.195625 -1.04125 4.39125 -1.0625 3.5625 C-1 1 -1 1 0 0 Z " fill="#58595C" transform="translate(43,29)"/>
<path d="M0 0 C0.99 0 1.98 0 3 0 C3.33 0.99 3.66 1.98 4 3 C3.34 3 2.68 3 2 3 C1.5196682 4.58298026 1.04078388 6.16639978 0.5625 7.75 C0.16224609 9.07257812 0.16224609 9.07257812 -0.24609375 10.421875 C-0.88468494 12.60565835 -1.46775833 14.78835498 -2 17 C-2.66 16.67 -3.32 16.34 -4 16 C-2.68 10.72 -1.36 5.44 0 0 Z " fill="#151213" transform="translate(25,24)"/>
<path d="M0 0 C7.50769231 0.61538462 7.50769231 0.61538462 10 2.5625 C10.33 3.036875 10.66 3.51125 11 4 C9.741875 4.04125 8.48375 4.0825 7.1875 4.125 C6.47980469 4.14820313 5.77210937 4.17140625 5.04296875 4.1953125 C3 4 3 4 0 2 C0 1.34 0 0.68 0 0 Z " fill="#363638" transform="translate(11,43)"/>
<path d="M0 0 C4.92307692 4.30769231 4.92307692 4.30769231 5.3125 7.8125 C5.209375 8.534375 5.10625 9.25625 5 10 C4.34 9.01 3.68 8.02 3 7 C2.67 8.65 2.34 10.3 2 12 C0 8.25 0 8.25 0 6 C0.66 6 1.32 6 2 6 C1.34 5.01 0.68 4.02 0 3 C0 2.01 0 1.02 0 0 Z " fill="#738FB4" transform="translate(40,23)"/>
<path d="M0 0 C-0.33 1.98 -0.66 3.96 -1 6 C-1.66 6 -2.32 6 -3 6 C-3 5.01 -3 4.02 -3 3 C-4.32 2.67 -5.64 2.34 -7 2 C-4.35261084 0.5393715 -3.10551666 0 0 0 Z " fill="#262425" transform="translate(19,38)"/>
<path d="M0 0 C0 2.97 0 5.94 0 9 C-0.33 7.68 -0.66 6.36 -1 5 C-2.32 5 -3.64 5 -5 5 C-4.6875 3.0625 -4.6875 3.0625 -4 1 C-1 0 -1 0 0 0 Z " fill="#D6CFCA" transform="translate(34,27)"/>
<path d="M0 0 C2.475 0.99 2.475 0.99 5 2 C5 2.66 5 3.32 5 4 C5.66 4.33 6.32 4.66 7 5 C6.34 5 5.68 5 5 5 C5 5.99 5 6.98 5 8 C4.34 8 3.68 8 3 8 C3 6.68 3 5.36 3 4 C1.35 3.67 -0.3 3.34 -2 3 C-1.34 2.01 -0.68 1.02 0 0 Z " fill="#4C6D97" transform="translate(33,18)"/>
<path d="M0 0 C1.4800841 0.11362262 2.95910074 0.24122908 4.4375 0.375 C5.26121094 0.44460937 6.08492187 0.51421875 6.93359375 0.5859375 C7.95646484 0.79089844 7.95646484 0.79089844 9 1 C9.33 1.66 9.66 2.32 10 3 C6.7 3 3.4 3 0 3 C0 2.01 0 1.02 0 0 Z " fill="#181618" transform="translate(25,37)"/>
<path d="M0 0 C2.00720923 0.28674418 4.0085944 0.61866701 6 1 C5.01 2.485 5.01 2.485 4 4 C2.68 4 1.36 4 0 4 C-0.33 3.01 -0.66 2.02 -1 1 C-0.67 0.67 -0.34 0.34 0 0 Z " fill="#575657" transform="translate(6,39)"/>
<path d="M0 0 C0.33 0 0.66 0 1 0 C1.125 6.625 1.125 6.625 0 10 C-0.66 10 -1.32 10 -2 10 C-1.54177532 6.53058454 -1.10868317 3.32604951 0 0 Z " fill="#212122" transform="translate(27,7)"/>
<path d="M0 0 C1.32 0 2.64 0 4 0 C4 0.99 4 1.98 4 3 C4.66 3.33 5.32 3.66 6 4 C3.69 4 1.38 4 -1 4 C-0.34 3.67 0.32 3.34 1 3 C0.67 2.01 0.34 1.02 0 0 Z " fill="#192945" transform="translate(28,34)"/>
</svg>
