<?xml version="1.0" encoding="UTF-8"?>
<svg version="1.1" xmlns="http://www.w3.org/2000/svg" width="48" height="48">
<path d="M0 0 C1 1 1 1 1.1328125 2.78857422 C1.1083868 10.26436646 0.58467092 17.67439621 0 25.125 C-0.19025493 27.56489091 -0.37782715 30.00499274 -0.5625 32.4453125 C-0.64628906 33.51281738 -0.73007812 34.58032227 -0.81640625 35.68017578 C-1.02569045 39.46454617 -1.02886227 43.21028138 -1 47 C-2.13542236 46.96970703 -3.27084473 46.93941406 -4.44067383 46.90820312 C-8.65062419 46.7959867 -12.86058824 46.68429132 -17.07055664 46.57275391 C-18.89315157 46.52439372 -20.71574275 46.47589195 -22.53833008 46.42724609 C-25.15705408 46.35737543 -27.77579111 46.28801279 -30.39453125 46.21875 C-31.21025101 46.19687622 -32.02597076 46.17500244 -32.8664093 46.15246582 C-37.77760838 46.02318523 -42.19360762 45.96078003 -47 47 C-46.74766602 46.03368652 -46.74766602 46.03368652 -46.49023438 45.04785156 C-45.84910562 41.0618698 -46.00490509 37.25855327 -46.15625 33.234375 C-46.195224 31.98337006 -46.195224 31.98337006 -46.23498535 30.70709229 C-46.31787634 28.05451847 -46.40812751 25.40227695 -46.5 22.75 C-46.59163606 20.08343854 -46.68154911 17.41689141 -46.76501465 14.75006104 C-46.81688329 13.09279753 -46.87348811 11.43567445 -46.93518066 9.77874756 C-46.99549509 7.85332165 -47.00320438 5.9263677 -47 4 C-38.87409447 -4.12590553 -10.28999954 -0.72387547 0 0 Z M-27 36 C-27 36.33 -27 36.66 -27 37 C-24.36 37 -21.72 37 -19 37 C-19 36.67 -19 36.34 -19 36 C-21.64 36 -24.28 36 -27 36 Z M-17 37 C-17 37.33 -17 37.66 -17 38 C-13.7 38 -10.4 38 -7 38 C-7 37.67 -7 37.34 -7 37 C-10.3 37 -13.6 37 -17 37 Z M-37 42 C-37.33 42.66 -37.66 43.32 -38 44 C-37.01 43.67 -36.02 43.34 -35 43 C-35.66 42.67 -36.32 42.34 -37 42 Z " fill="#979C9C" transform="translate(47,1)"/>
<path d="M0 0 C1 1 1 1 1.1328125 2.78857422 C1.1083868 10.26436646 0.58467092 17.67439621 0 25.125 C-0.19025493 27.56489091 -0.37782715 30.00499274 -0.5625 32.4453125 C-0.64628906 33.51281738 -0.73007812 34.58032227 -0.81640625 35.68017578 C-1.02478587 39.44818923 -1 43.22622902 -1 47 C-13.54 46.67 -26.08 46.34 -39 46 C-36.08131263 43.08131263 -34.13428204 41.28056922 -30.75 39.25 C-30.04359375 38.82203125 -29.3371875 38.3940625 -28.609375 37.953125 C-28.07828125 37.63859375 -27.5471875 37.3240625 -27 37 C-27.66 36.34 -28.32 35.68 -29 35 C-26.375 29.25 -26.375 29.25 -23 27 C-20.08203125 26.8046875 -20.08203125 26.8046875 -16.8125 26.875 C-15.18248047 26.90207031 -15.18248047 26.90207031 -13.51953125 26.9296875 C-12.27236328 26.96449219 -12.27236328 26.96449219 -11 27 C-10.67 25.35 -10.34 23.7 -10 22 C-9.505 22.99 -9.505 22.99 -9 24 C-9.495 25.485 -9.495 25.485 -10 27 C-8.02 27.33 -6.04 27.66 -4 28 C-2.39875222 24.79750445 -2.65996793 21.27521916 -2.5 17.75 C-2.4302835 16.24464005 -2.35742167 14.73942212 -2.28125 13.234375 C-2.25095703 12.56631836 -2.22066406 11.89826172 -2.18945312 11.20996094 C-1.95326517 8.45484056 -1.4546003 5.7276018 -1 3 C-9.25 3 -17.5 3 -26 3 C-25.16537965 7.71058562 -25.16537965 7.71058562 -24 11 C-24.165 11.804375 -24.33 12.60875 -24.5 13.4375 C-25.01333512 16.06834251 -24.83558658 17.49324027 -24 20 C-26.90600261 21.25664978 -28.79604584 22 -32 22 C-32 21.34 -32 20.68 -32 20 C-31.34 20 -30.68 20 -30 20 C-28.81304447 16.43913342 -28.64904582 13.02668976 -28.4375 9.3125 C-28.39431641 8.61060547 -28.35113281 7.90871094 -28.30664062 7.18554688 C-28.2008264 5.45724794 -28.09993419 3.7286489 -28 2 C-28.8353125 2.2165625 -28.8353125 2.2165625 -29.6875 2.4375 C-30.450625 2.623125 -31.21375 2.80875 -32 3 C-33.11375 3.2784375 -33.11375 3.2784375 -34.25 3.5625 C-37.7917589 4.12596164 -41.41370036 4 -45 4 C-44.67 17.53 -44.34 31.06 -44 45 C-46.56235091 41.15647364 -46.36851097 37.89459572 -46.44921875 33.4296875 C-46.47095657 32.59285431 -46.4926944 31.75602112 -46.51509094 30.89382935 C-46.55897271 29.12708084 -46.59818053 27.36021094 -46.63305664 25.59326172 C-46.68743613 22.878189 -46.75757951 20.16386195 -46.83007812 17.44921875 C-46.87072135 15.73439678 -46.91046595 14.01955323 -46.94921875 12.3046875 C-46.96997971 11.48805634 -46.99074066 10.67142517 -47.01213074 9.83004761 C-47.0474219 7.88701467 -47.02923109 5.94313356 -47 4 C-38.87409447 -4.12590553 -10.28999954 -0.72387547 0 0 Z M-17 37 C-17 37.33 -17 37.66 -17 38 C-13.7 38 -10.4 38 -7 38 C-7 37.67 -7 37.34 -7 37 C-10.3 37 -13.6 37 -17 37 Z " fill="#B7BAB8" transform="translate(47,1)"/>
<path d="M0 0 C8.25 0 16.5 0 25 0 C24.814375 5.5996875 24.814375 5.5996875 24.625 11.3125 C24.59100098 12.48594971 24.55700195 13.65939941 24.52197266 14.8684082 C24.4863623 15.79484131 24.45075195 16.72127441 24.4140625 17.67578125 C24.3826416 18.62364502 24.3512207 19.57150879 24.31884766 20.5480957 C24 23 24 23 22 26 C20.02 25.34 18.04 24.68 16 24 C16.33 21.69 16.66 19.38 17 17 C16.01 17 15.02 17 14 17 C14 18.32 14 19.64 14 21 C10.04 21 6.08 21 2 21 C2 20.67 2 20.34 2 20 C3.65 20 5.3 20 7 20 C7 18.68 7 17.36 7 16 C4.69 16 2.38 16 0 16 C0 10.66666667 0 5.33333333 0 0 Z " fill="#8B6263" transform="translate(21,4)"/>
<path d="M0 0 C0 3.63 0 7.26 0 11 C-0.99 11 -1.98 11 -3 11 C-2.67 12.32 -2.34 13.64 -2 15 C-3.98 15.66 -5.96 16.32 -8 17 C-8 16.34 -8 15.68 -8 15 C-6.68 15 -5.36 15 -4 15 C-4 14.34 -4 13.68 -4 13 C-6.64 13.33 -9.28 13.66 -12 14 C-10.86983745 17.52692672 -10.86983745 17.52692672 -9 21 C-6.42267086 22.05167527 -6.42267086 22.05167527 -4 22 C-4 21.34 -4 20.68 -4 20 C-3.01 20.33 -2.02 20.66 -1 21 C-0.67 23.97 -0.34 26.94 0 30 C-1.57789598 31.15330947 -3.1625482 32.29737927 -4.75 33.4375 C-5.63171875 34.07558594 -6.5134375 34.71367188 -7.421875 35.37109375 C-10 37 -10 37 -14 38 C-14 34.37 -14 30.74 -14 27 C-13.34 27 -12.68 27 -12 27 C-11.83322718 23.58343976 -11.83322718 23.58343976 -12 20 C-12.66 19.34 -13.32 18.68 -14 18 C-14.99757977 14.36730384 -15.10770918 10.93986214 -15.0625 7.1875 C-15.05347656 6.21167969 -15.04445313 5.23585938 -15.03515625 4.23046875 C-15.02355469 3.49441406 -15.01195312 2.75835937 -15 2 C-9.77487721 0.53329887 -5.4185766 -0.22577402 0 0 Z " fill="#D2D4D2" transform="translate(18,5)"/>
<path d="M0 0 C1 1 1 1 1.12841797 2.84350586 C1.0964135 9.77943008 0.69008304 16.65077537 0.125 23.5625 C0.04636719 24.65369141 -0.03226563 25.74488281 -0.11328125 26.86914062 C-0.19707031 27.90361328 -0.28085937 28.93808594 -0.3671875 30.00390625 C-0.44050293 30.94049072 -0.51381836 31.8770752 -0.58935547 32.84204102 C-0.72486816 33.55416748 -0.86038086 34.26629395 -1 35 C-1.99 35.495 -1.99 35.495 -3 36 C-2.86061293 31.62476975 -2.71235541 27.24988322 -2.5625 22.875 C-2.52318359 21.6375 -2.48386719 20.4 -2.44335938 19.125 C-2.38051758 17.32675781 -2.38051758 17.32675781 -2.31640625 15.4921875 C-2.27974854 14.39245605 -2.24309082 13.29272461 -2.20532227 12.15966797 C-2 9 -2 9 -1 3 C-9.25 3 -17.5 3 -26 3 C-25.16537965 7.71058562 -25.16537965 7.71058562 -24 11 C-24.165 11.804375 -24.33 12.60875 -24.5 13.4375 C-25.01333512 16.06834251 -24.83558658 17.49324027 -24 20 C-26.90600261 21.25664978 -28.79604584 22 -32 22 C-32 21.34 -32 20.68 -32 20 C-31.34 20 -30.68 20 -30 20 C-28.81304447 16.43913342 -28.64904582 13.02668976 -28.4375 9.3125 C-28.39431641 8.61060547 -28.35113281 7.90871094 -28.30664062 7.18554688 C-28.2008264 5.45724794 -28.09993419 3.7286489 -28 2 C-28.8353125 2.2165625 -28.8353125 2.2165625 -29.6875 2.4375 C-30.450625 2.623125 -31.21375 2.80875 -32 3 C-33.11375 3.2784375 -33.11375 3.2784375 -34.25 3.5625 C-37.7917589 4.12596164 -41.41370036 4 -45 4 C-44.67 17.53 -44.34 31.06 -44 45 C-46.56235091 41.15647364 -46.36851097 37.89459572 -46.44921875 33.4296875 C-46.47095657 32.59285431 -46.4926944 31.75602112 -46.51509094 30.89382935 C-46.55897271 29.12708084 -46.59818053 27.36021094 -46.63305664 25.59326172 C-46.68743613 22.878189 -46.75757951 20.16386195 -46.83007812 17.44921875 C-46.87072135 15.73439678 -46.91046595 14.01955323 -46.94921875 12.3046875 C-46.96997971 11.48805634 -46.99074066 10.67142517 -47.01213074 9.83004761 C-47.0474219 7.88701467 -47.02923109 5.94313356 -47 4 C-38.87409447 -4.12590553 -10.28999954 -0.72387547 0 0 Z " fill="#D2D5D3" transform="translate(47,1)"/>
<path d="M0 0 C0.94359375 0.07992187 1.8871875 0.15984375 2.859375 0.2421875 C5.24429244 0.46451031 7.62167776 0.71662543 10 1 C10.66 3.31 11.32 5.62 12 8 C7.99679847 8.95377184 4.27788253 9.1157616 0.16796875 9.09765625 C-1.12431641 9.09443359 -2.41660156 9.09121094 -3.74804688 9.08789062 C-5.10286526 9.07953665 -6.45768297 9.07107172 -7.8125 9.0625 C-9.18684735 9.05748 -10.56119645 9.05291797 -11.93554688 9.04882812 C-15.29040924 9.03705668 -18.64518221 9.02061283 -22 9 C-15.04487169 1.97472687 -10.01879076 -0.92988777 0 0 Z " fill="#C3C9CC" transform="translate(30,38)"/>
<path d="M0 0 C2.97 0 5.94 0 9 0 C10 4 10 4 9 7 C9 7.33 9 7.66 9 8 C9.33 7.01 9.66 6.02 10 5 C11.98 5 13.96 5 16 5 C16 6.98 16 8.96 16 11 C14.68 10.34 13.36 9.68 12 9 C12 9.66 12 10.32 12 11 C12.66 11.33 13.32 11.66 14 12 C13.01 12 12.02 12 11 12 C11 13.32 11 14.64 11 16 C7.04 16 3.08 16 -1 16 C-1 15.67 -1 15.34 -1 15 C0.65 15 2.3 15 4 15 C4 13.68 4 12.36 4 11 C1.69 11 -0.62 11 -3 11 C-3 8.69 -3 6.38 -3 4 C-2.01 3.67 -1.02 3.34 0 3 C0 2.01 0 1.02 0 0 Z " fill="#37272E" transform="translate(24,9)"/>
<path d="M0 0 C0 0.66 0 1.32 0 2 C-1.32 2 -2.64 2 -4 2 C-2.35 2.33 -0.7 2.66 1 3 C1 3.66 1 4.32 1 5 C2.216875 4.505 3.43375 4.01 4.6875 3.5 C7.92486738 2.27520559 10.50099357 1.67196815 14 2 C14 3.32 14 4.64 14 6 C16.31 6.33 18.62 6.66 21 7 C21 5.68 21 4.36 21 3 C21.99 3 22.98 3 24 3 C23.34 5.31 22.68 7.62 22 10 C21.20335938 10.01417969 20.40671875 10.02835938 19.5859375 10.04296875 C12.58881892 10.35792421 8.86289767 10.874243 4 16 C3.67 16 3.34 16 3 16 C2.8046875 13.94921875 2.609375 11.8984375 2.4140625 9.84765625 C2.20910156 8.93306641 2.20910156 8.93306641 2 8 C1.34 7.67 0.68 7.34 0 7 C0 7.66 0 8.32 0 9 C-1.65 9 -3.3 9 -5 9 C-8 3.25 -8 3.25 -8 1 C-3.375 -1.125 -3.375 -1.125 0 0 Z " fill="#A7ACA4" transform="translate(14,18)"/>
<path d="M0 0 C0.4640625 1.6396875 0.4640625 1.6396875 0.9375 3.3125 C1.58337897 5.55407994 2.2623117 7.7869351 3 10 C2.835 10.804375 2.67 11.60875 2.5 12.4375 C1.98666488 15.06834251 2.16441342 16.49324027 3 19 C0.09399739 20.25664978 -1.79604584 21 -5 21 C-5 20.34 -5 19.68 -5 19 C-4.34 19 -3.68 19 -3 19 C-1.81304447 15.43913342 -1.64904582 12.02668976 -1.4375 8.3125 C-1.39431641 7.61060547 -1.35113281 6.90871094 -1.30664062 6.18554688 C-1.2008264 4.45724794 -1.09993419 2.7286489 -1 1 C-1.556875 1.144375 -2.11375 1.28875 -2.6875 1.4375 C-3.450625 1.623125 -4.21375 1.80875 -5 2 C-6.11375 2.2784375 -6.11375 2.2784375 -7.25 2.5625 C-10.7917589 3.12596164 -14.41370036 3 -18 3 C-17.67 16.53 -17.34 30.06 -17 44 C-19.56235091 40.15647364 -19.36851097 36.89459572 -19.44921875 32.4296875 C-19.47095657 31.59285431 -19.4926944 30.75602112 -19.51509094 29.89382935 C-19.55897271 28.12708084 -19.59818053 26.36021094 -19.63305664 24.59326172 C-19.68743613 21.878189 -19.75757951 19.16386195 -19.83007812 16.44921875 C-19.87072135 14.73439678 -19.91046595 13.01955323 -19.94921875 11.3046875 C-19.96997971 10.48805634 -19.99074066 9.67142517 -20.01213074 8.83004761 C-20.0474219 6.88701467 -20.02923109 4.94313356 -20 3 C-18.1650111 1.1650111 -15.2895435 1.31535409 -12.8125 0.9375 C-11.12060547 0.67259766 -11.12060547 0.67259766 -9.39453125 0.40234375 C-6.22235119 0.02635463 -3.19013918 -0.07261318 0 0 Z " fill="#C2C6C4" transform="translate(20,2)"/>
<path d="M0 0 C0 0.99 0 1.98 0 3 C-1.32 3 -2.64 3 -4 3 C-4 3.66 -4 4.32 -4 5 C-3.34 5 -2.68 5 -2 5 C-2 5.66 -2 6.32 -2 7 C0.97851562 6.90234375 0.97851562 6.90234375 3.95703125 6.8046875 C6 7 6 7 9 9 C0.09 9 -8.82 9 -18 9 C-12.73455128 3.73455128 -7.88078543 -0.98509818 0 0 Z " fill="#8E938F" transform="translate(26,38)"/>
<path d="M0 0 C1.98 0 3.96 0 6 0 C6 0.66 6 1.32 6 2 C11.28 2 16.56 2 22 2 C21 7 21 7 19 9 C17.01178687 9.39764263 15.01055661 9.73775349 13 10 C12.67 11.32 12.34 12.64 12 14 C11.01 13.67 10.02 13.34 9 13 C9.99 12.67 10.98 12.34 12 12 C12 10.02 12 8.04 12 6 C9.03 5.67 6.06 5.34 3 5 C2.67 5.99 2.34 6.98 2 8 C1.34 7.67 0.68 7.34 0 7 C0 4.69 0 2.38 0 0 Z " fill="#4C5978" transform="translate(21,4)"/>
<path d="M0 0 C0.66 0.33 1.32 0.66 2 1 C2 3.31 2 5.62 2 8 C2.66 8 3.32 8 4 8 C4 11.63 4 15.26 4 19 C1.03 18.67 -1.94 18.34 -5 18 C-3.68 17.34 -2.36 16.68 -1 16 C-1.33 13.69 -1.66 11.38 -2 9 C-2.7734375 9.01160156 -3.546875 9.02320313 -4.34375 9.03515625 C-10.33936364 9.08709845 -16.07302983 8.91184156 -22 8 C-22 7.67 -22 7.34 -22 7 C-16.06 6.505 -16.06 6.505 -10 6 C-10 6.66 -10 7.32 -10 8 C-7.03 8 -4.06 8 -1 8 C-1.33 6.68 -1.66 5.36 -2 4 C-1.0625 1.75 -1.0625 1.75 0 0 Z " fill="#959797" transform="translate(42,29)"/>
<path d="M0 0 C0.99 0.33 1.98 0.66 3 1 C3.33 3.97 3.66 6.94 4 10 C-2.625 15 -2.625 15 -6 15 C-6.08159574 10.83861737 -5.98248524 7.0527516 -5 3 C-4.360625 2.87625 -3.72125 2.7525 -3.0625 2.625 C-2.0415625 2.315625 -2.0415625 2.315625 -1 2 C-0.67 1.34 -0.34 0.68 0 0 Z " fill="#D5DBE7" transform="translate(14,25)"/>
<path d="M0 0 C0 3.63 0 7.26 0 11 C-0.99 11 -1.98 11 -3 11 C-2.67 12.32 -2.34 13.64 -2 15 C-3.98 15.66 -5.96 16.32 -8 17 C-8 16.34 -8 15.68 -8 15 C-6.68 15 -5.36 15 -4 15 C-4 14.34 -4 13.68 -4 13 C-4.99 12.67 -5.98 12.34 -7 12 C-7 11.01 -7 10.02 -7 9 C-7.66 8.67 -8.32 8.34 -9 8 C-8.01 8 -7.02 8 -6 8 C-6 6.68 -6 5.36 -6 4 C-7.98 3.34 -9.96 2.68 -12 2 C-12 1.67 -12 1.34 -12 1 C-7.9472484 0.01751476 -4.16138263 -0.08159574 0 0 Z " fill="#C6C8C7" transform="translate(18,5)"/>
<path d="M0 0 C6.27 0 12.54 0 19 0 C18.67 3.3 18.34 6.6 18 10 C17.67 9.34 17.34 8.68 17 8 C16.01 8.33 15.02 8.66 14 9 C11.99124558 8.72428861 9.98821313 8.39764263 8 8 C8 7.67 8 7.34 8 7 C11.465 6.505 11.465 6.505 15 6 C15.33 4.68 15.66 3.36 16 2 C15.21625 2.185625 14.4325 2.37125 13.625 2.5625 C11 3 11 3 9 2 C8.67 2.66 8.34 3.32 8 4 C8 3.34 8 2.68 8 2 C6.576875 2.2784375 6.576875 2.2784375 5.125 2.5625 C2 3 2 3 0 2 C0 1.34 0 0.68 0 0 Z " fill="#38272A" transform="translate(27,4)"/>
<path d="M0 0 C0.33 0 0.66 0 1 0 C0.98839844 0.69867187 0.97679688 1.39734375 0.96484375 2.1171875 C0.95582031 3.02726562 0.94679688 3.93734375 0.9375 4.875 C0.92589844 5.77992187 0.91429688 6.68484375 0.90234375 7.6171875 C0.83750743 10.0168585 0.83750743 10.0168585 2 12 C-0.39050096 13.48842513 -2.78674435 14.96578095 -5.1875 16.4375 C-5.86103516 16.85837891 -6.53457031 17.27925781 -7.22851562 17.71289062 C-10.79793012 19.88936288 -13.75570427 21.5467257 -18 22 C-17.67 21.34 -17.34 20.68 -17 20 C-16.34 20 -15.68 20 -15 20 C-14.67 19.01 -14.34 18.02 -14 17 C-12.46305052 16.0869198 -10.91985118 15.18171065 -9.33862305 14.34765625 C-3.59793461 11.47698016 -3.59793461 11.47698016 0.08203125 6.4765625 C0.29121912 4.22867931 0.3152254 2.23241595 0 0 Z " fill="#57595B" transform="translate(18,26)"/>
<path d="M0 0 C0.33 0.66 0.66 1.32 1 2 C0.67 2.99 0.34 3.98 0 5 C2.475 5.495 2.475 5.495 5 6 C3.68 6.33 2.36 6.66 1 7 C1 7.66 1 8.32 1 9 C-0.7290774 9.02725341 -2.45828176 9.04650987 -4.1875 9.0625 C-5.63189453 9.07990234 -5.63189453 9.07990234 -7.10546875 9.09765625 C-9.85576513 9.00486622 -12.32479591 8.62111685 -15 8 C-15 7.34 -15 6.68 -15 6 C-12.23547967 4.61773984 -9.9538637 4.90474613 -6.875 4.9375 C-5.77929688 4.94652344 -4.68359375 4.95554687 -3.5546875 4.96484375 C-2.71164063 4.97644531 -1.86859375 4.98804688 -1 5 C-0.67 3.35 -0.34 1.7 0 0 Z " fill="#C8CFD1" transform="translate(37,23)"/>
<path d="M0 0 C0 0.66 0 1.32 0 2 C-1.32 2 -2.64 2 -4 2 C-2.35 2.33 -0.7 2.66 1 3 C1 3.66 1 4.32 1 5 C1.99 5 2.98 5 4 5 C4 5.66 4 6.32 4 7 C2.68 7 1.36 7 0 7 C0 7.66 0 8.32 0 9 C-1.65 9 -3.3 9 -5 9 C-8 3.25 -8 3.25 -8 1 C-3.375 -1.125 -3.375 -1.125 0 0 Z " fill="#6E86AD" transform="translate(14,18)"/>
<path d="M0 0 C2.97 0 5.94 0 9 0 C10 4 10 4 9 7 C6.9375 7.6875 6.9375 7.6875 5 8 C4.67 7.01 4.34 6.02 4 5 C2.35 5.33 0.7 5.66 -1 6 C-0.67 4.02 -0.34 2.04 0 0 Z " fill="#362D32" transform="translate(24,9)"/>
<path d="M0 0 C2.31 0 4.62 0 7 0 C5.68 0.33 4.36 0.66 3 1 C3 5.29 3 9.58 3 14 C1.35 14.66 -0.3 15.32 -2 16 C-2 12.37 -2 8.74 -2 5 C-1.34 5 -0.68 5 0 5 C0 3.35 0 1.7 0 0 Z " fill="#C6C9CA" transform="translate(6,27)"/>
<path d="M0 0 C0.99 0 1.98 0 3 0 C2.34 2.31 1.68 4.62 1 7 C-1.10241603 7.13496251 -3.2072961 7.23197307 -5.3125 7.3125 C-6.48425781 7.37050781 -7.65601563 7.42851562 -8.86328125 7.48828125 C-12 7 -12 7 -13.91796875 4.48046875 C-14.27503906 3.66191406 -14.63210937 2.84335937 -15 2 C-14.01 2.33 -13.02 2.66 -12 3 C-9.94106379 3.22325814 -7.87766347 3.40705759 -5.8125 3.5625 C-4.72582031 3.64628906 -3.63914062 3.73007812 -2.51953125 3.81640625 C-1.27236328 3.90728516 -1.27236328 3.90728516 0 4 C0 2.68 0 1.36 0 0 Z " fill="#7C8996" transform="translate(35,21)"/>
<path d="M0 0 C2 2 2 2 2.265625 4.93359375 C2.26046875 6.08988281 2.2553125 7.24617188 2.25 8.4375 C2.25515625 9.59121094 2.2603125 10.74492187 2.265625 11.93359375 C2 15 2 15 0 18 C-1.98 17.34 -3.96 16.68 -6 16 C-5.67 14.68 -5.34 13.36 -5 12 C-3.35 12.33 -1.7 12.66 0 13 C0 8.71 0 4.42 0 0 Z " fill="#635A5A" transform="translate(43,12)"/>
<path d="M0 0 C0.99 0 1.98 0 3 0 C3 2.31 3 4.62 3 7 C0.03 7 -2.94 7 -6 7 C-6 6.34 -6 5.68 -6 5 C-8.64 5 -11.28 5 -14 5 C-13.67 4.01 -13.34 3.02 -13 2 C-12.67 2.66 -12.34 3.32 -12 4 C-6.555 3.505 -6.555 3.505 -1 3 C-0.67 2.01 -0.34 1.02 0 0 Z " fill="#ADB1B0" transform="translate(38,30)"/>
<path d="M0 0 C0.05397335 2.4377963 0.09365616 4.87439685 0.125 7.3125 C0.15013672 8.34793945 0.15013672 8.34793945 0.17578125 9.40429688 C0.21217794 13.17135396 0.14378864 14.78431704 -2 18 C-2.66 17.67 -3.32 17.34 -4 17 C-4 15.68 -4 14.36 -4 13 C-3.01 13 -2.02 13 -1 13 C-1 9.37 -1 5.74 -1 2 C-6.28 2.66 -11.56 3.32 -17 4 C-17 3.34 -17 2.68 -17 2 C-14.91727106 1.66291092 -12.83378963 1.33046884 -10.75 1 C-9.58984375 0.814375 -8.4296875 0.62875 -7.234375 0.4375 C-4 0 -4 0 0 0 Z " fill="#2C3441" transform="translate(19,3)"/>
<path d="M0 0 C2.16874252 0.50603992 3.99967627 0.99983813 6 2 C6 4.64 6 7.28 6 10 C3.03 9.67 0.06 9.34 -3 9 C-1.68 8.34 -0.36 7.68 1 7 C0.67 4.69 0.34 2.38 0 0 Z " fill="#979C9B" transform="translate(40,38)"/>
<path d="M0 0 C0 2.31 0 4.62 0 7 C-3.3 7 -6.6 7 -10 7 C-3.48275862 0 -3.48275862 0 0 0 Z " fill="#D4D9DD" transform="translate(18,40)"/>
<path d="M0 0 C4.29 0.33 8.58 0.66 13 1 C12.67 1.99 12.34 2.98 12 4 C8.7 4 5.4 4 2 4 C2 3.34 2 2.68 2 2 C1.34 2 0.68 2 0 2 C0 1.34 0 0.68 0 0 Z " fill="#CDCFD0" transform="translate(22,41)"/>
<path d="M0 0 C6.93 0.495 6.93 0.495 14 1 C14.33 2.32 14.66 3.64 15 5 C7.575 4.01 7.575 4.01 0 3 C0 2.01 0 1.02 0 0 Z " fill="#B3B7B6" transform="translate(26,38)"/>
<path d="M0 0 C6.27 0 12.54 0 19 0 C19 0.33 19 0.66 19 1 C18.28972656 1.04898437 17.57945313 1.09796875 16.84765625 1.1484375 C15.46900391 1.26058594 15.46900391 1.26058594 14.0625 1.375 C13.14597656 1.44460937 12.22945312 1.51421875 11.28515625 1.5859375 C10.15400391 1.79089844 10.15400391 1.79089844 9 2 C8.67 2.66 8.34 3.32 8 4 C8 3.34 8 2.68 8 2 C6.576875 2.2784375 6.576875 2.2784375 5.125 2.5625 C2 3 2 3 0 2 C0 1.34 0 0.68 0 0 Z " fill="#59554D" transform="translate(27,4)"/>
<path d="M0 0 C1.98 0 3.96 0 6 0 C6 0.66 6 1.32 6 2 C6.66 2.33 7.32 2.66 8 3 C7.34 3.66 6.68 4.32 6 5 C5.01 5 4.02 5 3 5 C2.67 5.99 2.34 6.98 2 8 C1.34 7.67 0.68 7.34 0 7 C0 4.69 0 2.38 0 0 Z " fill="#707277" transform="translate(21,4)"/>
<path d="M0 0 C1.09570312 0.00902344 2.19140625 0.01804687 3.3203125 0.02734375 C4.16335937 0.03894531 5.00640625 0.05054687 5.875 0.0625 C4.73046875 1.55078125 4.73046875 1.55078125 2.875 3.0625 C0.17578125 3.35546875 0.17578125 3.35546875 -2.8125 3.25 C-3.80636719 3.22292969 -4.80023437 3.19585938 -5.82421875 3.16796875 C-6.58347656 3.13316406 -7.34273437 3.09835938 -8.125 3.0625 C-8.125 2.4025 -8.125 1.7425 -8.125 1.0625 C-5.36047967 -0.31976016 -3.0788637 -0.03275387 0 0 Z " fill="#D4D8DA" transform="translate(30.125,27.9375)"/>
<path d="M0 0 C-0.33 1.32 -0.66 2.64 -1 4 C-2.60495567 3.88557539 -4.20898119 3.75805306 -5.8125 3.625 C-6.70582031 3.55539062 -7.59914063 3.48578125 -8.51953125 3.4140625 C-11 3 -11 3 -14 1 C-4.58997722 -0.14806378 -4.58997722 -0.14806378 0 0 Z " fill="#8593A0" transform="translate(38,6)"/>
<path d="M0 0 C0.33 0.99 0.66 1.98 1 3 C2.65 2.67 4.3 2.34 6 2 C6 2.99 6 3.98 6 5 C3.85143123 7.14856877 2.8872435 7.44117868 0 8 C-0.33 8 -0.66 8 -1 8 C-1.04241723 5.66705225 -1.04092937 3.33297433 -1 1 C-0.67 0.67 -0.34 0.34 0 0 Z " fill="#3B536D" transform="translate(22,12)"/>
<path d="M0 0 C0.33 0 0.66 0 1 0 C1.66 5.61 2.32 11.22 3 17 C2.01 17.33 1.02 17.66 0 18 C0 12.06 0 6.12 0 0 Z " fill="#ADB0AF" transform="translate(2,7)"/>
<path d="M0 0 C2.64 0.66 5.28 1.32 8 2 C8 2.66 8 3.32 8 4 C8.66 4.33 9.32 4.66 10 5 C6.6875 5.3125 6.6875 5.3125 3 5 C1.0625 2.5 1.0625 2.5 0 0 Z " fill="#8D9496" transform="translate(20,23)"/>
<path d="M0 0 C1.32 0.66 2.64 1.32 4 2 C3.01 4.31 2.02 6.62 1 9 C0.34 8.67 -0.32 8.34 -1 8 C-1 7.01 -1 6.02 -1 5 C-1.66 4.67 -2.32 4.34 -3 4 C-2.01 4 -1.02 4 0 4 C0 2.68 0 1.36 0 0 Z " fill="#9DAEC1" transform="translate(12,9)"/>
<path d="M0 0 C2.97 0 5.94 0 9 0 C9.33 0.99 9.66 1.98 10 3 C6.7 2.67 3.4 2.34 0 2 C0 1.34 0 0.68 0 0 Z " fill="#902E49" transform="translate(24,9)"/>
<path d="M0 0 C1.98 0 3.96 0 6 0 C6 0.66 6 1.32 6 2 C5.01 2 4.02 2 3 2 C3 2.66 3 3.32 3 4 C0.36 4 -2.28 4 -5 4 C-5 3.67 -5 3.34 -5 3 C-3.35 3 -1.7 3 0 3 C0 2.01 0 1.02 0 0 Z " fill="#4F494B" transform="translate(28,21)"/>
<path d="M0 0 C1.65 0.33 3.3 0.66 5 1 C5 1.66 5 2.32 5 3 C3.68 3 2.36 3 1 3 C1 3.66 1 4.32 1 5 C-0.32 5 -1.64 5 -3 5 C-3.33 4.01 -3.66 3.02 -4 2 C-3.01 2 -2.02 2 -1 2 C-0.67 1.34 -0.34 0.68 0 0 Z " fill="#3F352E" transform="translate(13,22)"/>
<path d="M0 0 C0.66 0.33 1.32 0.66 2 1 C2 3.31 2 5.62 2 8 C1.01 7.67 0.02 7.34 -1 7 C-2 4 -2 4 -1.0625 1.8125 C-0.5365625 0.9153125 -0.5365625 0.9153125 0 0 Z " fill="#7E837E" transform="translate(42,29)"/>
<path d="M0 0 C0.99 0.33 1.98 0.66 3 1 C3.33 3.97 3.66 6.94 4 10 C3.01 10 2.02 10 1 10 C0.67 6.7 0.34 3.4 0 0 Z " fill="#CCCECE" transform="translate(14,25)"/>
<path d="M0 0 C0.33 1.32 0.66 2.64 1 4 C-1.90600261 5.25664978 -3.79604584 6 -7 6 C-7 5.34 -7 4.68 -7 4 C-6.34 4 -5.68 4 -5 4 C-4.67 3.01 -4.34 2.02 -4 1 C-3.67 1.66 -3.34 2.32 -3 3 C-2.01 3 -1.02 3 0 3 C0 2.01 0 1.02 0 0 Z " fill="#6F8AA4" transform="translate(22,17)"/>
<path d="M0 0 C1.65 0 3.3 0 5 0 C5 1.32 5 2.64 5 4 C3.35 4 1.7 4 0 4 C0 2.68 0 1.36 0 0 Z " fill="#AF8886" transform="translate(23,20)"/>
<path d="M0 0 C-0.33 0.99 -0.66 1.98 -1 3 C-3.97 3 -6.94 3 -10 3 C-6.68152292 -0.06320961 -4.44849969 -0.3033068 0 0 Z " fill="#D7DDE1" transform="translate(35,42)"/>
<path d="M0 0 C2.475 0.99 2.475 0.99 5 2 C5 3.32 5 4.64 5 6 C4.01 6 3.02 6 2 6 C2 4.68 2 3.36 2 2 C1.34 2 0.68 2 0 2 C0 1.34 0 0.68 0 0 Z " fill="#937979" transform="translate(36,18)"/>
<path d="M0 0 C0 0.66 0 1.32 0 2 C-2.64 2.33 -5.28 2.66 -8 3 C-8 2.34 -8 1.68 -8 1 C-3.375 -1.125 -3.375 -1.125 0 0 Z " fill="#2F3540" transform="translate(14,18)"/>
<path d="M0 0 C0.99 0 1.98 0 3 0 C2.67 1.65 2.34 3.3 2 5 C1.01 5 0.02 5 -1 5 C-0.67 3.35 -0.34 1.7 0 0 Z " fill="#A6A5A5" transform="translate(40,6)"/>
</svg>
