<?xml version="1.0" encoding="UTF-8"?>
<svg version="1.1" xmlns="http://www.w3.org/2000/svg" width="48" height="48">
<path d="M0 0 C1.32 0 2.64 0 4 0 C4.33 0.99 4.66 1.98 5 3 C8.63 3 12.26 3 16 3 C17.44118477 7.86478528 18.65676426 12.71482856 19.6875 17.6875 C19.95949219 18.97011719 20.23148438 20.25273437 20.51171875 21.57421875 C20.95364233 24.67475462 20.84607722 26.10980023 20 29 C20.495 29.66 20.99 30.32 21.5 31 C23 33 23 33 22.6875 35.25 C22.460625 35.8275 22.23375 36.405 22 37 C21.01 37 20.02 37 19 37 C19 37.66 19 38.32 19 39 C16.4374282 39.02710123 13.87514635 39.04688771 11.3125 39.0625 C10.59126953 39.07087891 9.87003906 39.07925781 9.12695312 39.08789062 C5.28444618 39.10543632 1.73360474 38.93524221 -2 38 C-2 38.33 -2 38.66 -2 39 C-8.6 39 -15.2 39 -22 39 C-22.33 38.34 -22.66 37.68 -23 37 C-22.01 37 -21.02 37 -20 37 C-20 36.34 -20 35.68 -20 35 C-19 34 -18 33 -17 32 C-15.82425289 29.90010348 -15.82425289 29.90010348 -15 28 C-15.66 28 -16.32 28 -17 28 C-16.52522284 25.38872564 -16.04920389 22.77777695 -15.56640625 20.16796875 C-15.19515763 18.09153683 -14.84788786 16.01064253 -14.52734375 13.92578125 C-14.37394531 12.96027344 -14.22054688 11.99476562 -14.0625 11 C-13.92972656 10.113125 -13.79695312 9.22625 -13.66015625 8.3125 C-12.89081108 5.61751572 -12.35225381 4.53564168 -10 3 C-7.30078125 2.92578125 -7.30078125 2.92578125 -4.3125 3.3125 C-2.82169922 3.49232422 -2.82169922 3.49232422 -1.30078125 3.67578125 C-0.54152344 3.78277344 0.21773437 3.88976562 1 4 C0.67 2.68 0.34 1.36 0 0 Z M-10 6 C-9.38955672 13.63054095 -7.20378179 20.70189474 -5 28 C-5.66 28.33 -6.32 28.66 -7 29 C-4.69 29 -2.38 29 0 29 C0.19635974 25.54210946 0.38058252 22.08367803 0.5625 18.625 C0.61857422 17.64015625 0.67464844 16.6553125 0.73242188 15.640625 C0.78076172 14.69960938 0.82910156 13.75859375 0.87890625 12.7890625 C0.9260376 11.91975098 0.97316895 11.05043945 1.02172852 10.15478516 C1.15685853 7.94857369 1.15685853 7.94857369 0 6 C-3.3 6 -6.6 6 -10 6 Z M4 6 C4 11.61 4 17.22 4 23 C6.31 23 8.62 23 11 23 C12.32 17.39 13.64 11.78 15 6 C11.37 6 7.74 6 4 6 Z M16 15 C15.67 17.97 15.34 20.94 15 24 C16.32 24.33 17.64 24.66 19 25 C18.34 21.7 17.68 18.4 17 15 C16.67 15 16.34 15 16 15 Z M-13 18 C-13.33 20.31 -13.66 22.62 -14 25 C-13.01 24.67 -12.02 24.34 -11 24 C-11.33 22.02 -11.66 20.04 -12 18 C-12.33 18 -12.66 18 -13 18 Z M13 20 C14 24 14 24 14 24 Z M-9 22 C-8 25 -8 25 -8 25 Z " fill="#512B19" transform="translate(23,6)"/>
<path d="M0 0 C1.32 0 2.64 0 4 0 C4.33 0.99 4.66 1.98 5 3 C8.63 3 12.26 3 16 3 C18.18846468 10.19066967 20.18840228 17.43699439 20 25 C19.34 24.67 18.68 24.34 18 24 C17.375 21.9375 17.375 21.9375 17 20 C16.7018576 23.7763932 16.7018576 23.7763932 18 26 C15.625 26.625 15.625 26.625 13 27 C11 25 11 25 10.91796875 23.1875 C11.65538356 17.20268415 13.14115733 11.7381665 15 6 C11.37 6 7.74 6 4 6 C4.12568359 7.86205078 4.12568359 7.86205078 4.25390625 9.76171875 C4.35711175 11.40362444 4.45995742 13.04555278 4.5625 14.6875 C4.61857422 15.50412109 4.67464844 16.32074219 4.73242188 17.16210938 C4.98341571 21.29514123 5.11127743 24.95824282 4 29 C3.34 29 2.68 29 2 29 C1.67 27.68 1.34 26.36 1 25 C0.34 25 -0.32 25 -1 25 C-0.67 18.73 -0.34 12.46 0 6 C-3.3 6 -6.6 6 -10 6 C-9.69964844 7.10859375 -9.39929688 8.2171875 -9.08984375 9.359375 C-8.70522947 10.82278543 -8.32114243 12.2863345 -7.9375 13.75 C-7.73833984 14.47960938 -7.53917969 15.20921875 -7.33398438 15.9609375 C-6.36255593 19.71031044 -5.84550613 22.30274238 -7 26 C-8.98 26 -10.96 26 -13 26 C-13 25.01 -13 24.02 -13 23 C-15.30671915 25.71549154 -15.30671915 25.71549154 -14.625 28.1875 C-14.315625 29.0846875 -14.315625 29.0846875 -14 30 C-14.33 29.34 -14.66 28.68 -15 28 C-15.66 28 -16.32 28 -17 28 C-16.52522284 25.38872564 -16.04920389 22.77777695 -15.56640625 20.16796875 C-15.19515763 18.09153683 -14.84788786 16.01064253 -14.52734375 13.92578125 C-14.37394531 12.96027344 -14.22054688 11.99476562 -14.0625 11 C-13.92972656 10.113125 -13.79695312 9.22625 -13.66015625 8.3125 C-12.89081108 5.61751572 -12.35225381 4.53564168 -10 3 C-7.30078125 2.92578125 -7.30078125 2.92578125 -4.3125 3.3125 C-2.82169922 3.49232422 -2.82169922 3.49232422 -1.30078125 3.67578125 C-0.54152344 3.78277344 0.21773437 3.88976562 1 4 C0.67 2.68 0.34 1.36 0 0 Z M13 20 C14 24 14 24 14 24 Z M-9 22 C-8 25 -8 25 -8 25 Z " fill="#9D8F76" transform="translate(23,6)"/>
<path d="M0 0 C1.32 0 2.64 0 4 0 C4.33 0.99 4.66 1.98 5 3 C7.64 3.33 10.28 3.66 13 4 C13 4.33 13 4.66 13 5 C9.7 5 6.4 5 3 5 C3 5.99 3 6.98 3 8 C2.01 8 1.02 8 0 8 C0 7.34 0 6.68 0 6 C-3.3 6 -6.6 6 -10 6 C-9.69964844 7.10859375 -9.39929688 8.2171875 -9.08984375 9.359375 C-8.70522947 10.82278543 -8.32114243 12.2863345 -7.9375 13.75 C-7.73833984 14.47960938 -7.53917969 15.20921875 -7.33398438 15.9609375 C-6.36255593 19.71031044 -5.84550613 22.30274238 -7 26 C-8.98 26 -10.96 26 -13 26 C-13 25.01 -13 24.02 -13 23 C-15.30671915 25.71549154 -15.30671915 25.71549154 -14.625 28.1875 C-14.315625 29.0846875 -14.315625 29.0846875 -14 30 C-14.33 29.34 -14.66 28.68 -15 28 C-15.66 28 -16.32 28 -17 28 C-16.52522284 25.38872564 -16.04920389 22.77777695 -15.56640625 20.16796875 C-15.19515763 18.09153683 -14.84788786 16.01064253 -14.52734375 13.92578125 C-14.37394531 12.96027344 -14.22054688 11.99476562 -14.0625 11 C-13.92972656 10.113125 -13.79695312 9.22625 -13.66015625 8.3125 C-12.89081108 5.61751572 -12.35225381 4.53564168 -10 3 C-7.30078125 2.92578125 -7.30078125 2.92578125 -4.3125 3.3125 C-2.82169922 3.49232422 -2.82169922 3.49232422 -1.30078125 3.67578125 C-0.54152344 3.78277344 0.21773437 3.88976562 1 4 C0.67 2.68 0.34 1.36 0 0 Z M-9 22 C-8 25 -8 25 -8 25 Z " fill="#988B7A" transform="translate(23,6)"/>
<path d="M0 0 C1 3 1 3 1 5 C1.99 6.485 1.99 6.485 3 8 C3 8.99 3 9.98 3 11 C-2.36095333 12.12862175 -7.55306686 12.09688221 -13 12 C-13 11.34 -13 10.68 -13 10 C-11.35 10 -9.7 10 -8 10 C-8 8.68 -8 7.36 -8 6 C-9.32 6 -10.64 6 -12 6 C-12.33 4.68 -12.66 3.36 -13 2 C-11.68 1.67 -10.36 1.34 -9 1 C-8.67 1.99 -8.34 2.98 -8 4 C-6.35 4 -4.7 4 -3 4 C-2.67 3.34 -2.34 2.68 -2 2 C-1.34 2 -0.68 2 0 2 C0 1.34 0 0.68 0 0 Z " fill="#8F603A" transform="translate(43,31)"/>
<path d="M0 0 C9.1870117 0.73152654 18.35282652 0.65172181 27.5625 0.5625 C26.5725 0.8925 25.5825 1.2225 24.5625 1.5625 C24.5625 2.2225 24.5625 2.8825 24.5625 3.5625 C21.9999282 3.58960123 19.43764635 3.60938771 16.875 3.625 C15.7931543 3.63756836 15.7931543 3.63756836 14.68945312 3.65039062 C10.84694618 3.66793632 7.29610474 3.49774221 3.5625 2.5625 C3.5625 2.8925 3.5625 3.2225 3.5625 3.5625 C-3.0375 3.5625 -9.6375 3.5625 -16.4375 3.5625 C-16.7675 2.9025 -17.0975 2.2425 -17.4375 1.5625 C-16.49777344 1.47162109 -16.49777344 1.47162109 -15.5390625 1.37890625 C-14.31316406 1.25322266 -14.31316406 1.25322266 -13.0625 1.125 C-12.25039062 1.04378906 -11.43828125 0.96257813 -10.6015625 0.87890625 C-2.87550105 -0.25071645 -2.87550105 -0.25071645 0 0 Z " fill="#080202" transform="translate(17.4375,41.4375)"/>
<path d="M0 0 C1.9375 0.8125 1.9375 0.8125 3.9375 3.8125 C7.4025 3.3175 7.4025 3.3175 10.9375 2.8125 C10.9375 3.4725 10.9375 4.1325 10.9375 4.8125 C10.2775 4.8125 9.6175 4.8125 8.9375 4.8125 C8.6075 5.8025 8.2775 6.7925 7.9375 7.8125 C3.1875 7.0625 3.1875 7.0625 0.9375 4.8125 C-0.0525 4.8125 -1.0425 4.8125 -2.0625 4.8125 C-1.7325 6.1325 -1.4025 7.4525 -1.0625 8.8125 C0.2575 8.8125 1.5775 8.8125 2.9375 8.8125 C2.9375 10.1325 2.9375 11.4525 2.9375 12.8125 C1.2875 12.8125 -0.3625 12.8125 -2.0625 12.8125 C-4.20535714 5.38392857 -4.20535714 5.38392857 -5.0625 1.8125 C-2.0625 -0.1875 -2.0625 -0.1875 0 0 Z " fill="#36221D" transform="translate(32.0625,28.1875)"/>
<path d="M0 0 C0.33 0 0.66 0 1 0 C1 6.27 1 12.54 1 19 C2.32 18.67 3.64 18.34 5 18 C6.4783226 20.95664519 6.06032783 23.74229737 6 27 C4.68 27 3.36 27 2 27 C2 26.34 2 25.68 2 25 C-1.63 25 -5.26 25 -9 25 C-5.96474514 22.97649676 -4.80573798 22.67875982 -1.3125 22.375 C-0.50425781 22.30023438 0.30398437 22.22546875 1.13671875 22.1484375 C2.05904297 22.07496094 2.05904297 22.07496094 3 22 C3 21.34 3 20.68 3 20 C1.68 19.67 0.36 19.34 -1 19 C-0.67 12.73 -0.34 6.46 0 0 Z " fill="#8D4A1B" transform="translate(24,16)"/>
<path d="M0 0 C1.32 0 2.64 0 4 0 C4.33 0.99 4.66 1.98 5 3 C7.64 3.33 10.28 3.66 13 4 C13 4.33 13 4.66 13 5 C9.7 5 6.4 5 3 5 C3 5.99 3 6.98 3 8 C2.01 8 1.02 8 0 8 C0 7.34 0 6.68 0 6 C-1.670625 6.061875 -1.670625 6.061875 -3.375 6.125 C-7 6 -7 6 -9 4 C-5.7 4 -2.4 4 1 4 C0.67 2.68 0.34 1.36 0 0 Z " fill="#786135" transform="translate(23,6)"/>
<path d="M0 0 C0.33 0 0.66 0 1 0 C1 6.27 1 12.54 1 19 C2.32 18.67 3.64 18.34 5 18 C5.33 19.32 5.66 20.64 6 22 C5.01 22 4.02 22 3 22 C3 21.34 3 20.68 3 20 C1.68 19.67 0.36 19.34 -1 19 C-0.67 12.73 -0.34 6.46 0 0 Z " fill="#775E34" transform="translate(24,16)"/>
<path d="M0 0 C0 0.99 0 1.98 0 3 C4.455 3.99 4.455 3.99 9 5 C9 5.66 9 6.32 9 7 C6.89337849 6.77160737 4.78964049 6.51650087 2.6875 6.25 C1.51574219 6.11078125 0.34398437 5.9715625 -0.86328125 5.828125 C-4 5 -4 5 -5.91796875 2.921875 C-6.27503906 2.28765625 -6.63210938 1.6534375 -7 1 C-2.25 0 -2.25 0 0 0 Z " fill="#574431" transform="translate(18,31)"/>
<path d="M0 0 C0.33 0 0.66 0 1 0 C1.19600577 2.22843488 1.38146569 4.45779893 1.5625 6.6875 C1.66691406 7.92886719 1.77132813 9.17023437 1.87890625 10.44921875 C1.98493841 13.55835533 1.77228525 16.00810972 1 19 C0.34 19 -0.32 19 -1 19 C-1.02714735 16.77090129 -1.04646254 14.54170633 -1.0625 12.3125 C-1.07990234 10.45044922 -1.07990234 10.45044922 -1.09765625 8.55078125 C-1.01478673 5.53764546 -0.70839449 2.91724661 0 0 Z " fill="#BFB086" transform="translate(26,16)"/>
<path d="M0 0 C0 0.66 0 1.32 0 2 C-0.66 2 -1.32 2 -2 2 C-2.33 2.99 -2.66 3.98 -3 5 C-4.65 4.67 -6.3 4.34 -8 4 C-7.67 3.01 -7.34 2.02 -7 1 C-2.25 0 -2.25 0 0 0 Z " fill="#311A0B" transform="translate(43,31)"/>
<path d="M0 0 C1.32 0.99 2.64 1.98 4 3 C3.01 3 2.02 3 1 3 C1.33 4.65 1.66 6.3 2 8 C1.01 8 0.02 8 -1 8 C-1.625 5.125 -1.625 5.125 -2 2 C-1.34 1.34 -0.68 0.68 0 0 Z " fill="#998668" transform="translate(12,9)"/>
<path d="M0 0 C0.99 0.33 1.98 0.66 3 1 C3.33 2.98 3.66 4.96 4 7 C2.35 7 0.7 7 -1 7 C-0.67 4.69 -0.34 2.38 0 0 Z " fill="#B7A47C" transform="translate(11,25)"/>
<path d="M0 0 C0.66 0.33 1.32 0.66 2 1 C2 1.99 2 2.98 2 4 C0.68 4.33 -0.64 4.66 -2 5 C-2.33 3.68 -2.66 2.36 -3 1 C-2.01 0.67 -1.02 0.34 0 0 Z " fill="#DDCB98" transform="translate(33,32)"/>
</svg>
