<?xml version="1.0" encoding="UTF-8"?>
<svg version="1.1" xmlns="http://www.w3.org/2000/svg" width="48" height="48">
<path d="M0 0 C1.59134766 -0.02126953 1.59134766 -0.02126953 3.21484375 -0.04296875 C6.0625 0.1875 6.0625 0.1875 9.0625 2.1875 C9.0625 3.1775 9.0625 4.1675 9.0625 5.1875 C7.62814486 6.43060779 6.18777924 7.67155034 4.66796875 8.80859375 C2.80319154 10.41021506 1.47779456 12.18568697 0.0625 14.1875 C0.83335938 14.41824219 1.60421875 14.64898437 2.3984375 14.88671875 C3.40132812 15.21285156 4.40421875 15.53898437 5.4375 15.875 C6.43523438 16.18824219 7.43296875 16.50148438 8.4609375 16.82421875 C11.0625 18.1875 11.0625 18.1875 12.390625 20.63671875 C13.1958797 23.69387756 13.47272819 26.04241723 13.0625 29.1875 C7.84236637 34.23237735 -0.90752178 35.09131022 -7.875 35.3125 C-8.885625 35.27125 -9.89625 35.23 -10.9375 35.1875 C-11.989375 35.435 -13.04125 35.6825 -14.125 35.9375 C-16.9375 36.1875 -16.9375 36.1875 -19.3125 34.4375 C-20.9375 32.1875 -20.9375 32.1875 -20.9375 29.1875 C-24.96089001 27.80441223 -24.96089001 27.80441223 -29.0625 26.6875 C-31.19625281 26.11849925 -32.97828901 25.19555877 -34.9375 24.1875 C-35.22077859 20.47969804 -35.36987113 16.88728333 -34.9375 13.1875 C-32.8125 11.125 -32.8125 11.125 -29.9375 10.1875 C-28.57625 9.630625 -28.57625 9.630625 -27.1875 9.0625 C-24.42791889 8.31953586 -22.3108453 8.08066699 -19.5 7.9375 C-14.89009555 7.53257596 -12.59076081 5.75193616 -9.34765625 2.5625 C-6.46028061 -0.25289121 -3.8950509 0.02360637 0 0 Z " fill="#76716C" transform="translate(34.9375,5.8125)"/>
<path d="M0 0 C1.59134766 -0.02126953 1.59134766 -0.02126953 3.21484375 -0.04296875 C6.0625 0.1875 6.0625 0.1875 9.0625 2.1875 C9.0625 3.1775 9.0625 4.1675 9.0625 5.1875 C7.62814486 6.43060779 6.18777924 7.67155034 4.66796875 8.80859375 C2.80319154 10.41021506 1.47779456 12.18568697 0.0625 14.1875 C0.84496094 14.41824219 1.62742187 14.64898437 2.43359375 14.88671875 C3.44550781 15.21285156 4.45742188 15.53898437 5.5 15.875 C6.50933594 16.18824219 7.51867187 16.50148438 8.55859375 16.82421875 C11.0625 18.1875 11.0625 18.1875 11.91015625 20.83203125 C11.96042969 21.60933594 12.01070312 22.38664062 12.0625 23.1875 C11.0725 22.8575 10.0825 22.5275 9.0625 22.1875 C8.4025 23.5075 7.7425 24.8275 7.0625 26.1875 C5.0825 26.1875 3.1025 26.1875 1.0625 26.1875 C0.7325 25.5275 0.4025 24.8675 0.0625 24.1875 C-0.5975 24.8475 -1.2575 25.5075 -1.9375 26.1875 C-2.2675 24.8675 -2.5975 23.5475 -2.9375 22.1875 C-5.2475 21.8575 -7.5575 21.5275 -9.9375 21.1875 C-10.2675 20.1975 -10.5975 19.2075 -10.9375 18.1875 C-12.030625 18.22875 -13.12375 18.27 -14.25 18.3125 C-17.9375 18.1875 -17.9375 18.1875 -20.9375 16.1875 C-20.6075 15.1975 -20.2775 14.2075 -19.9375 13.1875 C-19.9375 13.8475 -19.9375 14.5075 -19.9375 15.1875 C-19.2775 15.1875 -18.6175 15.1875 -17.9375 15.1875 C-18.2675 13.5375 -18.5975 11.8875 -18.9375 10.1875 C-17.6175 10.1875 -16.2975 10.1875 -14.9375 10.1875 C-14.89625 9.630625 -14.855 9.07375 -14.8125 8.5 C-12.32128827 1.91608327 -6.33372027 0.03838618 0 0 Z " fill="#0E1111" transform="translate(34.9375,5.8125)"/>
<path d="M0 0 C0 0.66 0 1.32 0 2 C-1.32 2 -2.64 2 -4 2 C-3.814375 2.804375 -3.62875 3.60875 -3.4375 4.4375 C-3.293125 5.283125 -3.14875 6.12875 -3 7 C-3.33 7.33 -3.66 7.66 -4 8 C-2.81819318 9.38645369 -2.81819318 9.38645369 0.5 9.4375 C1.655 9.623125 2.81 9.80875 4 10 C4.33 10.66 4.66 11.32 5 12 C6.7015625 12.2165625 6.7015625 12.2165625 8.4375 12.4375 C9.613125 12.623125 10.78875 12.80875 12 13 C12.99 14.485 12.99 14.485 14 16 C14.66 15.67 15.32 15.34 16 15 C16 15.99 16 16.98 16 18 C18.35171131 17.40138258 20.6859378 16.73075648 23 16 C23.33 15.34 23.66 14.68 24 14 C25.32 14.33 26.64 14.66 28 15 C27 18 27 18 24.9765625 19.1484375 C21.09595316 20.25863807 17.39319594 20.46043225 13.375 20.625 C12.611875 20.66367187 11.84875 20.70234375 11.0625 20.7421875 C8.03916884 20.89070201 5.02723628 21 2 21 C1.01 19.02 0.02 17.04 -1 15 C-2.32 15 -3.64 15 -5 15 C-5.33 16.32 -5.66 17.64 -6 19 C-5.34 19 -4.68 19 -4 19 C-3.67 18.34 -3.34 17.68 -3 17 C-1.4375 18.75 -1.4375 18.75 0 21 C-0.3125 23.25 -0.3125 23.25 -1 25 C-1.99 24.67 -2.98 24.34 -4 24 C-4.33333333 22.66666667 -4.66666667 21.33333333 -5 20 C-5.99 19.67 -6.98 19.34 -8 19 C-8 18.34 -8 17.68 -8 17 C-9.98 16.01 -11.96 15.02 -14 14 C-14 13.67 -14 13.34 -14 13 C-11.03 13 -8.06 13 -5 13 C-5 12.34 -5 11.68 -5 11 C-5.680625 10.896875 -6.36125 10.79375 -7.0625 10.6875 C-10.65694548 9.8462468 -13.72148982 8.70230336 -17 7 C-17.703125 4.89453125 -17.703125 4.89453125 -18 3 C-11.75726932 0.5206176 -6.71700347 -0.31985731 0 0 Z " fill="#B2BFC7" transform="translate(20,14)"/>
<path d="M0 0 C0.66 0.33 1.32 0.66 2 1 C2 1.66 2 2.32 2 3 C2.85851562 3.19916016 2.85851562 3.19916016 3.734375 3.40234375 C5.97650875 3.99380317 8.08579619 4.73288854 10.25 5.5625 C10.95640625 5.83191406 11.6628125 6.10132813 12.390625 6.37890625 C12.92171875 6.58386719 13.4528125 6.78882813 14 7 C14 7.66 14 8.32 14 9 C11.69 9.33 9.38 9.66 7 10 C8.65 10.99 10.3 11.98 12 13 C11.34 13.66 10.68 14.32 10 15 C5.83028311 14.69113208 2.6592063 13.96662189 -1 12 C-1.02687279 10.18757948 -1.04633715 8.37504767 -1.0625 6.5625 C-1.07410156 5.55316406 -1.08570312 4.54382813 -1.09765625 3.50390625 C-1 1 -1 1 0 0 Z " fill="#5D6E74" transform="translate(1,18)"/>
<path d="M0 0 C2.375 0.3125 2.375 0.3125 5 1 C7.29633824 4.44450737 7.54016485 6.93812283 8 11 C12.29 11 16.58 11 21 11 C21 11.33 21 11.66 21 12 C20.3709375 12.06058594 19.741875 12.12117188 19.09375 12.18359375 C18.2378125 12.26738281 17.381875 12.35117187 16.5 12.4375 C15.58992188 12.52257813 14.67984375 12.60765625 13.7421875 12.6953125 C11.0637105 12.95886801 11.0637105 12.95886801 8.6953125 13.4296875 C6.625 13.8125 6.625 13.8125 3 14 C0.5 12.25 0.5 12.25 -1 10 C-1 9.01 -1 8.02 -1 7 C-1.969375 6.71125 -2.93875 6.4225 -3.9375 6.125 C-7 5 -7 5 -8 3 C-4.19574313 4.09900754 -1.56236287 4.92516456 1 8 C1.66 8.66 2.32 9.32 3 10 C3.6814823 8.10820797 3.6814823 8.10820797 4 6 C3.34 5.34 2.68 4.68 2 4 C1.01 4.33 0.02 4.66 -1 5 C-0.67 3.35 -0.34 1.7 0 0 Z " fill="#0A0B0B" transform="translate(15,28)"/>
<path d="M0 0 C2.875 -0.1875 2.875 -0.1875 6 0 C6.66 0.99 7.32 1.98 8 3 C8.66 2.67 9.32 2.34 10 2 C10 2.99 10 3.98 10 5 C12.35171131 4.40138258 14.6859378 3.73075648 17 3 C17.33 2.34 17.66 1.68 18 1 C19.32 1.33 20.64 1.66 22 2 C21 5 21 5 18.98828125 6.2109375 C14.93624169 7.28088781 11.33280955 6.97246937 7.1875 6.625 C6.00510742 6.53992187 6.00510742 6.53992187 4.79882812 6.453125 C2.86510039 6.31249026 0.93241405 6.15766112 -1 6 C-1.33 5.34 -1.66 4.68 -2 4 C-1.0625 1.875 -1.0625 1.875 0 0 Z " fill="#6A7377" transform="translate(26,27)"/>
<path d="M0 0 C3.40077179 0.07018478 6.6778746 0.24035136 10 1 C12.125 3.5625 12.125 3.5625 13 6 C12.34 6 11.68 6 11 6 C11 6.99 11 7.98 11 9 C14.63 9.33 18.26 9.66 22 10 C22 10.33 22 10.66 22 11 C20.22932584 11.16834933 18.45845388 11.33461909 16.6875 11.5 C15.70136719 11.5928125 14.71523438 11.685625 13.69921875 11.78125 C11 12 11 12 8 12 C7.4121875 10.700625 7.4121875 10.700625 6.8125 9.375 C4.86106043 5.74128495 2.71596841 3.08299117 0 0 Z " fill="#CDDDE7" transform="translate(14,23)"/>
<path d="M0 0 C0 0.99 0 1.98 0 3 C-0.33 3.33 -0.66 3.66 -1 4 C0.17369141 4.39832031 0.17369141 4.39832031 1.37109375 4.8046875 C2.38300781 5.15789063 3.39492188 5.51109375 4.4375 5.875 C5.44683594 6.22304688 6.45617187 6.57109375 7.49609375 6.9296875 C10 8 10 8 11 10 C8.83125748 9.49396008 7.00032373 9.00016187 5 8 C5 8.66 5 9.32 5 10 C5.66 10.33 6.32 10.66 7 11 C5.02 11.33 3.04 11.66 1 12 C0.67 11.01 0.34 10.02 0 9 C-2.31 9 -4.62 9 -7 9 C-6.34 8.67 -5.68 8.34 -5 8 C-5 7.01 -5 6.02 -5 5 C-4.34 5 -3.68 5 -3 5 C-2.690625 4.360625 -2.38125 3.72125 -2.0625 3.0625 C-1 1 -1 1 0 0 Z " fill="#515D60" transform="translate(36,16)"/>
<path d="M0 0 C1.98 0.66 3.96 1.32 6 2 C5.67 2.99 5.34 3.98 5 5 C4.34 4.67 3.68 4.34 3 4 C2.34 5.32 1.68 6.64 1 8 C-0.98 8 -2.96 8 -5 8 C-5.33 7.34 -5.66 6.68 -6 6 C-6.66 6.66 -7.32 7.32 -8 8 C-8.33 6.35 -8.66 4.7 -9 3 C-5.846632 2.29925156 -3.27275026 2 0 2 C0 1.34 0 0.68 0 0 Z " fill="#1A2125" transform="translate(41,24)"/>
<path d="M0 0 C0.33 1.32 0.66 2.64 1 4 C-2.2153369 6.84433649 -4.73414068 7.65176659 -9 8 C-11.875 7.5625 -11.875 7.5625 -14 7 C-13.67 6.34 -13.34 5.68 -13 5 C-11.68 5 -10.36 5 -9 5 C-9 4.34 -9 3.68 -9 3 C-6.03 2.01 -3.06 1.02 0 0 Z " fill="#252829" transform="translate(47,31)"/>
<path d="M0 0 C-0.33 0.66 -0.66 1.32 -1 2 C-1.66 2 -2.32 2 -3 2 C-3 2.99 -3 3.98 -3 5 C-0.69 5 1.62 5 4 5 C3.01 6.485 3.01 6.485 2 8 C-0.6015625 8.29296875 -0.6015625 8.29296875 -3.625 8.1875 C-5.12933594 8.14689453 -5.12933594 8.14689453 -6.6640625 8.10546875 C-7.43492188 8.07066406 -8.20578125 8.03585938 -9 8 C-9 4.82629722 -8.69066658 3.6205332 -7 1 C-4.0449252 -1.00182486 -3.50436101 -1.16812034 0 0 Z " fill="#0F1517" transform="translate(34,19)"/>
<path d="M0 0 C3.96 0 7.92 0 12 0 C11.01 0.66 10.02 1.32 9 2 C8.27617533 4.05925139 8.27617533 4.05925139 8 6 C8.66 6 9.32 6 10 6 C10.33 5.34 10.66 4.68 11 4 C12.5625 5.75 12.5625 5.75 14 8 C13.6875 10.25 13.6875 10.25 13 12 C12.01 11.67 11.02 11.34 10 11 C9.66666667 9.66666667 9.33333333 8.33333333 9 7 C8.01 6.67 7.02 6.34 6 6 C6 5.34 6 4.68 6 4 C4.02 3.01 2.04 2.02 0 1 C0 0.67 0 0.34 0 0 Z " fill="#6D797C" transform="translate(6,27)"/>
<path d="M0 0 C0.33 0.66 0.66 1.32 1 2 C2.19625 1.67 3.3925 1.34 4.625 1 C8.15791497 0.10734177 11.34079109 -0.18296045 15 0 C14.01 0.495 14.01 0.495 13 1 C12.27840576 2.64363134 11.60648579 4.31050386 11 6 C9.741875 5.87625 8.48375 5.7525 7.1875 5.625 C6.12595703 5.52058594 6.12595703 5.52058594 5.04296875 5.4140625 C3 5 3 5 0 3 C0 2.01 0 1.02 0 0 Z " fill="#203035" transform="translate(14,19)"/>
<path d="M0 0 C2.93814003 1.46907001 3.3286226 3.59447806 4.625 6.5625 C5.07101563 7.57441406 5.51703125 8.58632813 5.9765625 9.62890625 C6.31429688 10.41136719 6.65203125 11.19382812 7 12 C4.625 12.625 4.625 12.625 2 13 C0 11 0 11 -0.1953125 8.3984375 C-0.17210938 7.40070312 -0.14890625 6.40296875 -0.125 5.375 C-0.10695312 4.37210938 -0.08890625 3.36921875 -0.0703125 2.3359375 C-0.04710937 1.56507812 -0.02390625 0.79421875 0 0 Z " fill="#40484B" transform="translate(0,19)"/>
<path d="M0 0 C2.375 0.1875 2.375 0.1875 5 1 C6.4375 3.1875 6.4375 3.1875 7 6 C6.125 9.3125 6.125 9.3125 5 12 C4.34 11.67 3.68 11.34 3 11 C3.20625 10.21625 3.4125 9.4325 3.625 8.625 C3.810625 7.325625 3.810625 7.325625 4 6 C3.34 5.34 2.68 4.68 2 4 C1.01 4.33 0.02 4.66 -1 5 C-0.67 3.35 -0.34 1.7 0 0 Z " fill="#3A4042" transform="translate(15,28)"/>
<path d="M0 0 C1.06347656 0.00515625 2.12695312 0.0103125 3.22265625 0.015625 C4.28355469 0.01046875 5.34445313 0.0053125 6.4375 0 C9.28515625 0.265625 9.28515625 0.265625 12.28515625 2.265625 C12.28515625 3.255625 12.28515625 4.245625 12.28515625 5.265625 C10.30515625 6.255625 10.30515625 6.255625 8.28515625 7.265625 C8.61515625 5.615625 8.94515625 3.965625 9.28515625 2.265625 C7.96515625 2.595625 6.64515625 2.925625 5.28515625 3.265625 C5.28515625 2.605625 5.28515625 1.945625 5.28515625 1.265625 C1.98515625 1.595625 -1.31484375 1.925625 -4.71484375 2.265625 C-2.71484375 0.265625 -2.71484375 0.265625 0 0 Z " fill="#556062" transform="translate(31.71484375,5.734375)"/>
<path d="M0 0 C1.98 0 3.96 0 6 0 C6.33 1.98 6.66 3.96 7 6 C3.62537285 5.45276317 1.91765 4.9451 -1 3 C-0.67 2.01 -0.34 1.02 0 0 Z " fill="#314143" transform="translate(5,16)"/>
<path d="M0 0 C0 0.99 0 1.98 0 3 C-0.33 3.33 -0.66 3.66 -1 4 C-0.01 4.66 0.98 5.32 2 6 C1.34 6 0.68 6 0 6 C0 6.99 0 7.98 0 9 C-2.31 9 -4.62 9 -7 9 C-6.34 8.67 -5.68 8.34 -5 8 C-5 7.01 -5 6.02 -5 5 C-4.34 5 -3.68 5 -3 5 C-2.690625 4.360625 -2.38125 3.72125 -2.0625 3.0625 C-1 1 -1 1 0 0 Z " fill="#3E494E" transform="translate(36,16)"/>
<path d="M0 0 C5.28 0.99 10.56 1.98 16 3 C16 3.33 16 3.66 16 4 C11.05 4 6.1 4 1 4 C0.67 2.68 0.34 1.36 0 0 Z " fill="#545A59" transform="translate(22,35)"/>
<path d="M0 0 C0.99 0.33 1.98 0.66 3 1 C3 1.66 3 2.32 3 3 C6.63 3.33 10.26 3.66 14 4 C14 4.33 14 4.66 14 5 C12.22932584 5.16834933 10.45845388 5.33461909 8.6875 5.5 C7.70136719 5.5928125 6.71523438 5.685625 5.69921875 5.78125 C3 6 3 6 0 6 C-1.125 2.25 -1.125 2.25 0 0 Z " fill="#BCCAD1" transform="translate(22,29)"/>
<path d="M0 0 C0.66 0 1.32 0 2 0 C2.66 3.63 3.32 7.26 4 11 C3.34 11 2.68 11 2 11 C0.57741188 7.17679443 -0.24042276 4.08718695 0 0 Z " fill="#374044" transform="translate(42,12)"/>
<path d="M0 0 C1.32 0.33 2.64 0.66 4 1 C3.67 1.99 3.34 2.98 3 4 C-1.455 4.495 -1.455 4.495 -6 5 C-4.68 4.34 -3.36 3.68 -2 3 C-1.34 2.01 -0.68 1.02 0 0 Z " fill="#B0BFC7" transform="translate(44,28)"/>
<path d="M0 0 C1.32 1.65 2.64 3.3 4 5 C3.01 5.66 2.02 6.32 1 7 C-0.32 6.34 -1.64 5.68 -3 5 C-2.67 4.01 -2.34 3.02 -2 2 C-1.67 2.66 -1.34 3.32 -1 4 C-0.67 2.68 -0.34 1.36 0 0 Z " fill="#050606" transform="translate(3,25)"/>
<path d="M0 0 C1.98 0.66 3.96 1.32 6 2 C5.67 2.99 5.34 3.98 5 5 C2.36 4.67 -0.28 4.34 -3 4 C-2.34 3.34 -1.68 2.68 -1 2 C-0.67 1.34 -0.34 0.68 0 0 Z " fill="#283135" transform="translate(41,24)"/>
<path d="M0 0 C1.65 0 3.3 0 5 0 C5.33 1.65 5.66 3.3 6 5 C4.02 4.34 2.04 3.68 0 3 C0 2.01 0 1.02 0 0 Z " fill="#688B97" transform="translate(11,16)"/>
<path d="M0 0 C3.96 1.98 3.96 1.98 8 4 C7.34 4.66 6.68 5.32 6 6 C3.96166576 4.7260411 1.96147874 3.38938077 0 2 C0 1.34 0 0.68 0 0 Z " fill="#485152" transform="translate(5,27)"/>
<path d="M0 0 C1.98 0.66 3.96 1.32 6 2 C5.01 2.66 4.02 3.32 3 4 C2.34 3.67 1.68 3.34 1 3 C0.67 3.66 0.34 4.32 0 5 C0 3.33333333 0 1.66666667 0 0 Z " fill="#EBF6FA" transform="translate(21,26)"/>
<path d="M0 0 C1.65 0.33 3.3 0.66 5 1 C4.67 1.66 4.34 2.32 4 3 C3.01 2.67 2.02 2.34 1 2 C1 2.99 1 3.98 1 5 C0.34 5 -0.32 5 -1 5 C-0.67 3.35 -0.34 1.7 0 0 Z " fill="#141819" transform="translate(15,28)"/>
</svg>
