<?xml version="1.0" encoding="UTF-8"?>
<svg version="1.1" xmlns="http://www.w3.org/2000/svg" width="48" height="48">
<path d="M0 0 C0.66 0 1.32 0 2 0 C2 1.32 2 2.64 2 4 C2.66 3.67 3.32 3.34 4 3 C10.01231145 2.36325826 14.75829585 2.94233925 20 6 C21.77921102 10.32094106 20.72141435 15.06801303 20.30859375 19.59375 C20.11636126 21.71560737 19.9568433 23.84100231 19.84765625 25.96875 C19.79480469 26.8453125 19.74195313 27.721875 19.6875 28.625 C19.65011719 29.40101562 19.61273438 30.17703125 19.57421875 30.9765625 C18.78070007 33.77277118 17.44844503 34.52825708 15 36 C12.24921116 36.91692961 10.64051087 37.10886083 7.8125 37.0625 C6.554375 37.041875 5.29625 37.02125 4 37 C4.268125 37.556875 4.53625 38.11375 4.8125 38.6875 C5 41 5 41 3.4375 43.75 C-0.45804656 47.35698756 -5.85224245 46.46037196 -10.8203125 46.37109375 C-14 46 -14 46 -17 44 C-17.5625 40.625 -17.5625 40.625 -17 37 C-16.05125 36.443125 -15.1025 35.88625 -14.125 35.3125 C-10.77594094 33.33336037 -10.77594094 33.33336037 -10.2265625 30.16015625 C-9.91406301 28.00595896 -9.64423457 25.84504616 -9.421875 23.6796875 C-9 21 -9 21 -7 19 C-6.47994517 16.93121045 -6.0313866 14.84408623 -5.625 12.75 C-4.50385245 7.6109328 -3.49553282 3.94656931 0 0 Z " fill="#191313" transform="translate(23,0)"/>
<path d="M0 0 C4.75 0.75 4.75 0.75 7 3 C7.42019343 8.98775637 6.83156577 14.91269202 6.25 20.875 C6.18844727 21.62467041 6.12689453 22.37434082 6.06347656 23.14672852 C5.70350185 26.44736804 5.4673212 28.51916124 3.109375 30.9453125 C-1.05322003 33.02661001 -4.39923231 33.08680694 -9 33 C-9.33 31.68 -9.66 30.36 -10 29 C-9.34 29 -8.68 29 -8 29 C-8.33 27.96875 -8.66 26.9375 -9 25.875 C-9.98199029 22.49940838 -10 19.51522482 -10 16 C-10.63474075 14.65117592 -11.29848848 13.3153341 -12 12 C-12 10.68 -12 9.36 -12 8 C-11.34 8 -10.68 8 -10 8 C-10 8.66 -10 9.32 -10 10 C-7.69 10 -5.38 10 -3 10 C-3 10.66 -3 11.32 -3 12 C-2.34 12 -1.68 12 -1 12 C-1.33 10.35 -1.66 8.7 -2 7 C-0.35 6.34 1.3 5.68 3 5 C2.2236068 1.9254644 2.2236068 1.9254644 0 0 Z " fill="#B8B7B7" transform="translate(37,4)"/>
<path d="M0 0 C1.32 0 2.64 0 4 0 C4 4.33333333 4 8.66666667 4 13 C4.061875 14.155 4.12375 15.31 4.1875 16.5 C4.125625 17.655 4.06375 18.81 4 20 C3.01 20.66 2.02 21.32 1 22 C0.67 20.35 0.34 18.7 0 17 C-2.31 17 -4.62 17 -7 17 C-7.185625 15.4221875 -7.185625 15.4221875 -7.375 13.8125 C-7.9158698 10.51319419 -8.75999107 8.05868869 -10 5 C-10 3.68 -10 2.36 -10 1 C-9.34 1 -8.68 1 -8 1 C-8 1.66 -8 2.32 -8 3 C-5.69 3 -3.38 3 -1 3 C-1 3.66 -1 4.32 -1 5 C-0.34 5 0.32 5 1 5 C0.67 3.35 0.34 1.7 0 0 Z " fill="#C7C4C5" transform="translate(35,11)"/>
<path d="M0 0 C1.9921875 1.125 1.9921875 1.125 4 3 C4.3203125 5.8125 4.3203125 5.8125 4.125 9 C3.75969575 13.80540566 3.75969575 13.80540566 6 18 C5.96856707 20.73990408 5.44521663 23.28417854 5 26 C0.94393835 25.53199289 -2.46588679 25.12046792 -6 23 C-6.125 19.625 -6.125 19.625 -6 16 C-5.34 15.34 -4.68 14.68 -4 14 C-3.41025158 11.83006442 -2.89891889 9.638299 -2.4375 7.4375 C-1.09722222 1.09722222 -1.09722222 1.09722222 0 0 Z " fill="#EBDCA5" transform="translate(20,5)"/>
<path d="M0 0 C0.66 0 1.32 0 2 0 C2 1.32 2 2.64 2 4 C2.66 3.67 3.32 3.34 4 3 C8.72722742 2.43347569 12.00700352 2.35151251 16.0625 5 C16.701875 5.66 17.34125 6.32 18 7 C17.1875 8.9375 17.1875 8.9375 16 11 C15.01 11.33 14.02 11.66 13 12 C13 13.32 13 14.64 13 16 C12.34 16 11.68 16 11 16 C11 15.34 11 14.68 11 14 C8.69 14 6.38 14 4 14 C4 13.34 4 12.68 4 12 C3.01 12 2.02 12 1 12 C1 14.64 1 17.28 1 20 C0.67 20 0.34 20 0 20 C-0.02712066 18.56260487 -0.04645067 17.12506137 -0.0625 15.6875 C-0.07410156 14.88699219 -0.08570312 14.08648437 -0.09765625 13.26171875 C0 11 0 11 1 8 C0.01 7.67 -0.98 7.34 -2 7 C-1.125 1.125 -1.125 1.125 0 0 Z " fill="#A17E78" transform="translate(23,0)"/>
<path d="M0 0 C0.061875 0.556875 0.12375 1.11375 0.1875 1.6875 C1.3608937 5.027159 3.34446814 6.71500747 6 9 C8.01633305 10.13306157 8.01633305 10.13306157 10 10 C12.48615558 8.15840327 13.00156904 6.99529289 14 4 C14.66 4.33 15.32 4.66 16 5 C15.68866849 7.87981647 15.4471961 9.54083515 13.39453125 11.6484375 C10.13688129 13.4871763 7.6567739 13.36334181 3.9375 13.3125 C2.70902344 13.30863281 1.48054687 13.30476563 0.21484375 13.30078125 C-3 13 -3 13 -6 11 C-6.5625 7.625 -6.5625 7.625 -6 4 C-3 1.5625 -3 1.5625 0 0 Z " fill="#F95A5B" transform="translate(12,33)"/>
<path d="M0 0 C8.19256018 -0.4726477 8.19256018 -0.4726477 11.5625 1.5 C12.036875 1.995 12.51125 2.49 13 3 C12.67 3.99 12.34 4.98 12 6 C7.05 6.33 2.1 6.66 -3 7 C-3 6.34 -3 5.68 -3 5 C-2.34 5 -1.68 5 -1 5 C-0.67 3.35 -0.34 1.7 0 0 Z " fill="#852222" transform="translate(28,4)"/>
<path d="M0 0 C0.33 0 0.66 0 1 0 C0.97679687 0.81984375 0.95359375 1.6396875 0.9296875 2.484375 C0.91164063 3.56203125 0.89359375 4.6396875 0.875 5.75 C0.85179687 6.81734375 0.82859375 7.8846875 0.8046875 8.984375 C0.99858316 11.97812395 1.67532085 13.39651803 3 16 C1.5625 18.625 1.5625 18.625 0 21 C0.33 21.66 0.66 22.32 1 23 C-0.98 22.67 -2.96 22.34 -5 22 C-5.125 18.625 -5.125 18.625 -5 15 C-4.34 14.34 -3.68 13.68 -3 13 C-2.38649958 10.8105352 -1.85440188 8.59768143 -1.375 6.375 C-1.11460938 5.18648437 -0.85421875 3.99796875 -0.5859375 2.7734375 C-0.29589844 1.40058594 -0.29589844 1.40058594 0 0 Z " fill="#D6D0B2" transform="translate(19,6)"/>
<path d="M0 0 C2 0.8125 2 0.8125 3.1875 2.625 C3.94939939 4.67626758 4.54175992 6.67404631 5 8.8125 C1.52674819 9.9702506 -1.36067448 9.88116652 -5 9.8125 C-5.33 8.4925 -5.66 7.1725 -6 5.8125 C-5.34 5.8125 -4.68 5.8125 -4 5.8125 C-4 4.1625 -4 2.5125 -4 0.8125 C-2 -0.1875 -2 -0.1875 0 0 Z " fill="#C5C5C6" transform="translate(33,27.1875)"/>
<path d="M0 0 C1.60875 0.5878125 1.60875 0.5878125 3.25 1.1875 C4.343125 1.496875 5.43625 1.80625 6.5625 2.125 C7.8928125 2.6509375 7.8928125 2.6509375 9.25 3.1875 C9.58 4.1775 9.91 5.1675 10.25 6.1875 C6.89 9.1875 6.89 9.1875 4.3125 9.1875 C0.25803944 7.22170094 -2.29462127 3.87056809 -4.75 0.1875 C-2.75 -0.8125 -2.75 -0.8125 0 0 Z " fill="#A91212" transform="translate(15.75,34.8125)"/>
<path d="M0 0 C2.67564953 5.16018124 4.23929407 9.46262667 4.625 15.3125 C4.69976563 16.38113281 4.77453125 17.44976563 4.8515625 18.55078125 C4.90054687 19.35902344 4.94953125 20.16726562 5 21 C4.34 21 3.68 21 3 21 C3.33 21.99 3.66 22.98 4 24 C3.01 24.33 2.02 24.66 1 25 C0.87625 24.38125 0.7525 23.7625 0.625 23.125 C0.12802644 20.80879168 0.12802644 20.80879168 -2 19 C-1.01 19 -0.02 19 1 19 C1.020625 17.72125 1.04125 16.4425 1.0625 15.125 C1.07410156 14.40570313 1.08570313 13.68640625 1.09765625 12.9453125 C1.12649242 10.91814596 1.12649242 10.91814596 0 9 C-0.06950541 7.45976004 -0.08452357 5.91665012 -0.0625 4.375 C-0.05347656 3.55773437 -0.04445313 2.74046875 -0.03515625 1.8984375 C-0.02355469 1.27195312 -0.01195313 0.64546875 0 0 Z " fill="#462424" transform="translate(24,12)"/>
<path d="M0 0 C4.75 0.75 4.75 0.75 7 3 C6.86328125 5.71484375 6.86328125 5.71484375 6.3125 8.9375 C6.14363281 9.99839844 5.97476563 11.05929688 5.80078125 12.15234375 C4.98707666 15.04595666 4.31873379 16.16673113 2 18 C0.69441527 14.51844073 1.19437358 11.57570543 1.74609375 8 C2.08396151 5.6746504 2.08396151 5.6746504 2 2 C1.34 1.34 0.68 0.68 0 0 Z " fill="#959394" transform="translate(37,4)"/>
<path d="M0 0 C0.66 0 1.32 0 2 0 C2 0.66 2 1.32 2 2 C4.31 2 6.62 2 9 2 C9 2.66 9 3.32 9 4 C9.66 4.33 10.32 4.66 11 5 C10.34 6.65 9.68 8.3 9 10 C8.34 8.68 7.68 7.36 7 6 C5.68 6.99 4.36 7.98 3 9 C0.70620251 5.55930376 0 4.27709699 0 0 Z " fill="#B4B2AE" transform="translate(25,12)"/>
<path d="M0 0 C0.66 0.33 1.32 0.66 2 1 C1.68866849 3.87981647 1.4471961 5.54083515 -0.60546875 7.6484375 C-3.86311871 9.4871763 -6.3432261 9.36334181 -10.0625 9.3125 C-11.29097656 9.30863281 -12.51945313 9.30476563 -13.78515625 9.30078125 C-17 9 -17 9 -20 7 C-19.67 6.34 -19.34 5.68 -19 5 C-17.515 5.99 -17.515 5.99 -16 7 C-11.34582831 7.34222445 -11.34582831 7.34222445 -7 6 C-6.175 5.9175 -5.35 5.835 -4.5 5.75 C-3.675 5.5025 -2.85 5.255 -2 5 C-0.62533375 2.52363988 -0.62533375 2.52363988 0 0 Z " fill="#D6C3C5" transform="translate(26,37)"/>
<path d="M0 0 C0.78375 0.185625 1.5675 0.37125 2.375 0.5625 C4.97089775 1.25962266 4.97089775 1.25962266 7 0 C6.67 2.64 6.34 5.28 6 8 C3.69 7.67 1.38 7.34 -1 7 C-0.67 4.69 -0.34 2.38 0 0 Z " fill="#B3ACA8" transform="translate(19,23)"/>
<path d="M0 0 C0.061875 0.53625 0.12375 1.0725 0.1875 1.625 C1.02166766 4.06333625 1.89660615 5.20498675 3.5625 7.125 C6 10 6 10 6 12 C3.75 12 3.75 12 1 11 C-0.67198768 8.47332213 -1.85805571 5.80063432 -3 3 C-2.01 2.01 -1.02 1.02 0 0 Z " fill="#E43A3A" transform="translate(12,33)"/>
<path d="M0 0 C0.33 0.66 0.66 1.32 1 2 C3.01669827 3.13350534 3.01669827 3.13350534 5 4 C5 5.32 5 6.64 5 8 C1.25 9.125 1.25 9.125 -1 8 C-1.04241723 5.66705225 -1.04092937 3.33297433 -1 1 C-0.67 0.67 -0.34 0.34 0 0 Z " fill="#E0DFDE" transform="translate(15,20)"/>
<path d="M0 0 C1.32 0 2.64 0 4 0 C4 3.63 4 7.26 4 11 C3.01 11 2.02 11 1 11 C0.67 7.37 0.34 3.74 0 0 Z " fill="#E8EAEA" transform="translate(35,11)"/>
<path d="M0 0 C0.1875 3.375 0.1875 3.375 0 7 C-0.99 7.66 -1.98 8.32 -3 9 C-3.12375 8.195625 -3.2475 7.39125 -3.375 6.5625 C-3.684375 5.2940625 -3.684375 5.2940625 -4 4 C-4.66 3.67 -5.32 3.34 -6 3 C-2.25 0 -2.25 0 0 0 Z " fill="#D6D5D6" transform="translate(39,24)"/>
<path d="M0 0 C0.33 0 0.66 0 1 0 C1 1.65 1 3.3 1 5 C2.65 5 4.3 5 6 5 C6 5.99 6 6.98 6 8 C3.69 8 1.38 8 -1 8 C-1.33 6.68 -1.66 5.36 -2 4 C-1.34 4 -0.68 4 0 4 C0 2.68 0 1.36 0 0 Z " fill="#9E9A9A" transform="translate(29,29)"/>
<path d="M0 0 C1.45823212 -0.0270043 2.91660675 -0.04639787 4.375 -0.0625 C5.18710937 -0.07410156 5.99921875 -0.08570313 6.8359375 -0.09765625 C9 0 9 0 11 1 C10.67 1.99 10.34 2.98 10 4 C9.01 3.34 8.02 2.68 7 2 C7 2.66 7 3.32 7 4 C6.34 4 5.68 4 5 4 C5 3.34 5 2.68 5 2 C3.35 2 1.7 2 0 2 C0 1.34 0 0.68 0 0 Z " fill="#A34343" transform="translate(28,4)"/>
<path d="M0 0 C0.66 0 1.32 0 2 0 C2 2.64 2 5.28 2 8 C0.68 7.67 -0.64 7.34 -2 7 C-1.125 1.125 -1.125 1.125 0 0 Z " fill="#F63838" transform="translate(23,0)"/>
<path d="M0 0 C4.45796545 8.89712092 4.45796545 8.89712092 3 14 C0.54023511 10.31035266 -0.12465307 8.72571521 -0.0625 4.375 C-0.05347656 3.55773437 -0.04445313 2.74046875 -0.03515625 1.8984375 C-0.02355469 1.27195312 -0.01195313 0.64546875 0 0 Z " fill="#1B130D" transform="translate(24,12)"/>
<path d="M0 0 C0.66 0.33 1.32 0.66 2 1 C2 3.64 2 6.28 2 9 C1.01 9.33 0.02 9.66 -1 10 C-0.67 6.7 -0.34 3.4 0 0 Z " fill="#A4A3A4" transform="translate(39,25)"/>
<path d="M0 0 C2.97 0.99 5.94 1.98 9 3 C8.67 3.99 8.34 4.98 8 6 C4.21032475 5.45861782 2.48587161 3.84099612 0 1 C0 0.67 0 0.34 0 0 Z " fill="#C51112" transform="translate(14,38)"/>
<path d="M0 0 C0.33 0.66 0.66 1.32 1 2 C2.32 1.67 3.64 1.34 5 1 C5 2.32 5 3.64 5 5 C4.01 5 3.02 5 2 5 C2 4.34 2 3.68 2 3 C0.35 3 -1.3 3 -3 3 C-3 2.34 -3 1.68 -3 1 C-2.01 0.67 -1.02 0.34 0 0 Z " fill="#B7B7B7" transform="translate(33,31)"/>
<path d="M0 0 C0.33 0 0.66 0 1 0 C3.42857143 6.28571429 3.42857143 6.28571429 2 10 C1.01 9.67 0.02 9.34 -1 9 C-0.67 6.03 -0.34 3.06 0 0 Z " fill="#E1D89B" transform="translate(22,15)"/>
<path d="M0 0 C0.99 0.66 1.98 1.32 3 2 C0.23776722 4.76223278 -2.20706617 4.57856291 -6 5 C-6 4.34 -6 3.68 -6 3 C-5.195625 2.690625 -4.39125 2.38125 -3.5625 2.0625 C-1.10919595 1.23664655 -1.10919595 1.23664655 0 0 Z " fill="#9A9696" transform="translate(34,23)"/>
<path d="M0 0 C0 1.32 0 2.64 0 4 C-0.66 4 -1.32 4 -2 4 C-2 3.34 -2 2.68 -2 2 C-3.32 2 -4.64 2 -6 2 C-6 1.34 -6 0.68 -6 0 C-3.50907189 -1.24546405 -2.58919267 -0.7767578 0 0 Z " fill="#8A8B8B" transform="translate(36,12)"/>
<path d="M0 0 C0.66 0.33 1.32 0.66 2 1 C1.67 2.65 1.34 4.3 1 6 C-0.65 6.33 -2.3 6.66 -4 7 C-3.525625 6.401875 -3.05125 5.80375 -2.5625 5.1875 C-0.83534256 2.99617076 -0.83534256 2.99617076 0 0 Z " fill="#AD9091" transform="translate(26,37)"/>
<path d="M0 0 C4.75 0.75 4.75 0.75 7 3 C7 3.99 7 4.98 7 6 C6.01 6 5.02 6 4 6 C3.71125 5.38125 3.4225 4.7625 3.125 4.125 C2.06279958 1.86674235 2.06279958 1.86674235 0 0 Z " fill="#C3C6C6" transform="translate(37,4)"/>
</svg>
