<?xml version="1.0" encoding="UTF-8"?>
<svg version="1.1" xmlns="http://www.w3.org/2000/svg" width="48" height="48">
<path d="M0 0 C2.5 0.25 2.5 0.25 6 1 C6.82886719 1.14824219 7.65773438 1.29648437 8.51171875 1.44921875 C15.61934673 2.74623116 15.61934673 2.74623116 19 5 C20.98799818 5.70164642 22.98698517 6.37372872 25 7 C25 8.32 25 9.64 25 11 C22.08517222 11.80967438 20.53886783 12.21845993 17.6875 11.0625 C17.130625 10.711875 16.57375 10.36125 16 10 C16 10.66 16 11.32 16 12 C16.66 12 17.32 12 18 12 C18.38063221 14.3260857 18.71269945 16.66055264 19 19 C18.67 19.33 18.34 19.66 18 20 C19.216875 20.2475 20.43375 20.495 21.6875 20.75 C25.68787105 21.79418856 28.16599377 22.85110419 31 26 C32.21803433 28.580093 33.24336656 31.1689318 34.203125 33.85546875 C34.81247897 35.9513223 34.81247897 35.9513223 36 37 C36 39.31 36 41.62 36 44 C30.06 44 24.12 44 18 44 C18 41.03 18 38.06 18 35 C17.319375 35.28875 16.63875 35.5775 15.9375 35.875 C12.66566333 37.12804383 9.37712836 38.06837838 6 39 C4.845 39.37125 3.69 39.7425 2.5 40.125 C-2.11377978 41.27844494 -5.99006275 41.87612649 -10.4375 39.9375 C-12 38 -12 38 -12.6875 34.625 C-11.97631286 30.87510418 -11.86277741 30.38213602 -9.0625 28.1875 C-4.98281301 25.64605565 -0.70739141 24.71518191 4 24 C4.91580376 20.46942825 4.91580376 20.46942825 4.375 16.9375 C4 15 4 15 5.3125 12.75 C5.869375 12.1725 6.42625 11.595 7 11 C7.66 11 8.32 11 9 11 C7.24548064 7.65300819 7.24548064 7.65300819 3.5 7.0625 C0 6 0 6 -1.4375 3.875 C-1.623125 3.25625 -1.80875 2.6375 -2 2 C-1.34 1.34 -0.68 0.68 0 0 Z " fill="#E1E0DB" transform="translate(12,2)"/>
<path d="M0 0 C2.5 0.25 2.5 0.25 6 1 C6.82886719 1.14824219 7.65773438 1.29648437 8.51171875 1.44921875 C15.61934673 2.74623116 15.61934673 2.74623116 19 5 C20.98799818 5.70164642 22.98698517 6.37372872 25 7 C25 8.32 25 9.64 25 11 C22.08517222 11.80967438 20.53886783 12.21845993 17.6875 11.0625 C17.130625 10.711875 16.57375 10.36125 16 10 C16 10.66 16 11.32 16 12 C16.66 12 17.32 12 18 12 C18.33 14.31 18.66 16.62 19 19 C17.35 18.34 15.7 17.68 14 17 C14.66 18.65 15.32 20.3 16 22 C16.66 22 17.32 22 18 22 C18 22.66 18 23.32 18 24 C16.02 24 14.04 24 12 24 C12 21 12 21 13 19 C12.01 19 11.02 19 10 19 C10 18.34 10 17.68 10 17 C8.02 17.33 6.04 17.66 4 18 C4.25 15.625 4.25 15.625 5 13 C7.0625 11.6875 7.0625 11.6875 9 11 C7.24548064 7.65300819 7.24548064 7.65300819 3.5 7.0625 C0 6 0 6 -1.4375 3.875 C-1.623125 3.25625 -1.80875 2.6375 -2 2 C-1.34 1.34 -0.68 0.68 0 0 Z " fill="#A6A4A0" transform="translate(12,2)"/>
<path d="M0 0 C1.875 1.3125 1.875 1.3125 3 3 C3 3.99 3 4.98 3 6 C2.34 6 1.68 6 1 6 C1 6.66 1 7.32 1 8 C-2.92945443 9.66704127 -6.8871385 10.86541752 -11 12 C-12.7325 12.556875 -12.7325 12.556875 -14.5 13.125 C-18.13526564 14.03381641 -21.26880993 14.15229347 -25 14 C-25.33 13.34 -25.66 12.68 -26 12 C-24.35 11.34 -22.7 10.68 -21 10 C-21.33 8.68 -21.66 7.36 -22 6 C-21.43152344 5.81824219 -20.86304688 5.63648438 -20.27734375 5.44921875 C-16.52773165 4.22856039 -12.88272051 2.99354553 -9.3125 1.3125 C-5.85851745 -0.05605912 -3.67031762 -0.50049786 0 0 Z " fill="#6C6B66" transform="translate(29,29)"/>
<path d="M0 0 C1.86328125 0.1875 1.86328125 0.1875 4 1 C5.23046875 3.25 5.23046875 3.25 6.1875 6 C7.1604517 9.2610197 7.1604517 9.2610197 9 12 C9 14.31 9 16.62 9 19 C3.39 19 -2.22 19 -8 19 C-8 18.34 -8 17.68 -8 17 C-6.02 16.67 -4.04 16.34 -2 16 C-2 14.35 -2 12.7 -2 11 C-1.01 11 -0.02 11 1 11 C1 10.34 1 9.68 1 9 C0.34 8.67 -0.32 8.34 -1 8 C-0.67 5.36 -0.34 2.72 0 0 Z " fill="#A9A7A2" transform="translate(39,27)"/>
<path d="M0 0 C0 0.66 0 1.32 0 2 C2.475 2.495 2.475 2.495 5 3 C2.14415227 4.90389849 0.0688238 5.69462177 -3.1875 6.625 C-4.08855469 6.88539062 -4.98960938 7.14578125 -5.91796875 7.4140625 C-6.94857422 7.70410156 -6.94857422 7.70410156 -8 8 C-7.67 9.32 -7.34 10.64 -7 12 C-10.465 13.485 -10.465 13.485 -14 15 C-16 13 -16 13 -16.5625 9.6875 C-15.96076247 5.74277619 -15.85740374 5.39961403 -12.875 3.1875 C-8.6418365 0.59104546 -4.92090766 -1.64030255 0 0 Z " fill="#AEADAA" transform="translate(16,27)"/>
<path d="M0 0 C1.98 0.99 1.98 0.99 4 2 C4 2.33 4 2.66 4 3 C5.258125 3.268125 6.51625 3.53625 7.8125 3.8125 C10.99448801 4.59532537 13.00244311 5.25335928 15 8 C14.34 8 13.68 8 13 8 C12.979375 9.258125 12.95875 10.51625 12.9375 11.8125 C12.92589844 12.52019531 12.91429687 13.22789063 12.90234375 13.95703125 C12.91736783 16.20305461 12.91736783 16.20305461 14 19 C13.01 19 12.02 19 11 19 C11 20.65 11 22.3 11 24 C10.030625 24.12375 9.06125 24.2475 8.0625 24.375 C7.051875 24.58125 6.04125 24.7875 5 25 C4.67 25.66 4.34 26.32 4 27 C4 23.37 4 19.74 4 16 C4.99 16 5.98 16 7 16 C7 16.66 7 17.32 7 18 C7.66 18 8.32 18 9 18 C9 15.36 9 12.72 9 10 C9.99 10.33 10.98 10.66 12 11 C11.5748108 8.97034802 11.5748108 8.97034802 10 7 C8.11970765 6.42163141 8.11970765 6.42163141 6 6.0625 C3.84375 5.63671875 3.84375 5.63671875 2 5 C0.5 2.375 0.5 2.375 0 0 Z " fill="#C4C3C0" transform="translate(26,19)"/>
<path d="M0 0 C-0.33 0.66 -0.66 1.32 -1 2 C-5.63236792 3.33475008 -10.23007601 4.2845114 -15 5 C-15 5.66 -15 6.32 -15 7 C-13.35 7 -11.7 7 -10 7 C-10.33 7.99 -10.66 8.98 -11 10 C-10.34 10.33 -9.68 10.66 -9 11 C-13.873261 12.5912689 -17.80790596 13.21192221 -23 13 C-23.33 12.34 -23.66 11.68 -24 11 C-22.35 10.34 -20.7 9.68 -19 9 C-19.33 7.68 -19.66 6.36 -20 5 C-19.40832031 4.80664062 -18.81664062 4.61328125 -18.20703125 4.4140625 C-13.19898782 2.77488278 -13.19898782 2.77488278 -8.3125 0.8125 C-5.45619996 -0.19106488 -3.00434863 -0.13973715 0 0 Z " fill="#4E4D48" transform="translate(27,30)"/>
<path d="M0 0 C0 0.66 0 1.32 0 2 C0.99 2 1.98 2 3 2 C2.67 3.32 2.34 4.64 2 6 C4.31 6.33 6.62 6.66 9 7 C9 7.33 9 7.66 9 8 C8.25234375 8.06058594 7.5046875 8.12117188 6.734375 8.18359375 C5.74953125 8.26738281 4.7646875 8.35117187 3.75 8.4375 C2.28820312 8.55931641 2.28820312 8.55931641 0.796875 8.68359375 C-1.56461753 8.95074584 -3.71901065 9.35371968 -6 10 C-5.88637738 8.5199159 -5.75877092 7.04089926 -5.625 5.5625 C-5.55539063 4.73878906 -5.48578125 3.91507813 -5.4140625 3.06640625 C-5.27742188 2.38449219 -5.14078125 1.70257812 -5 1 C-3 0 -3 0 0 0 Z " fill="#DAD9D5" transform="translate(22,19)"/>
<path d="M0 0 C0.33 1.32 0.66 2.64 1 4 C-0.32 3.34 -1.64 2.68 -3 2 C-2.34 3.65 -1.68 5.3 -1 7 C-0.34 7 0.32 7 1 7 C1 7.66 1 8.32 1 9 C-0.98 9 -2.96 9 -5 9 C-5 6 -5 6 -4 4 C-4.99 4 -5.98 4 -7 4 C-7 3.34 -7 2.68 -7 2 C-8.65 2.33 -10.3 2.66 -12 3 C-12 2.34 -12 1.68 -12 1 C-8.00439392 -1.83022097 -4.57262677 -0.76210446 0 0 Z " fill="#858380" transform="translate(29,17)"/>
<path d="M0 0 C1.98 0.99 1.98 0.99 4 2 C4 2.33 4 2.66 4 3 C5.258125 3.268125 6.51625 3.53625 7.8125 3.8125 C10.99448801 4.59532537 13.00244311 5.25335928 15 8 C14.34 8 13.68 8 13 8 C13 9.65 13 11.3 13 13 C12.01 13.495 12.01 13.495 11 14 C9.86649466 16.01669827 9.86649466 16.01669827 9 18 C9 15.36 9 12.72 9 10 C9.99 10.33 10.98 10.66 12 11 C11.5748108 8.97034802 11.5748108 8.97034802 10 7 C8.11970765 6.42163141 8.11970765 6.42163141 6 6.0625 C3.84375 5.63671875 3.84375 5.63671875 2 5 C0.5 2.375 0.5 2.375 0 0 Z " fill="#C6C4BE" transform="translate(26,19)"/>
<path d="M0 0 C-6.28643637 4.19095758 -10.54308006 5.4474152 -18 5 C-18 4.34 -18 3.68 -18 3 C-5.57142857 -1.92857143 -5.57142857 -1.92857143 0 0 Z " fill="#C5C4C0" transform="translate(30,32)"/>
<path d="M0 0 C1.27230469 0.00902344 2.54460938 0.01804688 3.85546875 0.02734375 C5.31919922 0.04474609 5.31919922 0.04474609 6.8125 0.0625 C6.8125 1.0525 6.8125 2.0425 6.8125 3.0625 C1.2025 3.0625 -4.4075 3.0625 -10.1875 3.0625 C-10.1875 2.4025 -10.1875 1.7425 -10.1875 1.0625 C-6.62704823 -0.12431726 -3.74941663 -0.03439832 0 0 Z " fill="#454543" transform="translate(41.1875,42.9375)"/>
<path d="M0 0 C3.90532683 0.37793485 7.2815754 0.76052513 11 2 C11 2.66 11 3.32 11 4 C7.52674819 5.1577506 4.63932552 5.06866652 1 5 C0.34 3.68 -0.32 2.36 -1 1 C-0.67 0.67 -0.34 0.34 0 0 Z " fill="#6A6965" transform="translate(12,4)"/>
<path d="M0 0 C0 1.65 0 3.3 0 5 C0.66 5.33 1.32 5.66 2 6 C0.63875 5.9690625 0.63875 5.9690625 -0.75 5.9375 C-3.43791858 5.98919074 -5.49820306 6.07340854 -8 7 C-8.33 7.66 -8.66 8.32 -9 9 C-8.875 6.75 -8.875 6.75 -8 4 C-2.91891892 0 -2.91891892 0 0 0 Z " fill="#CCCBC7" transform="translate(25,11)"/>
<path d="M0 0 C3.48052073 3.48052073 4.16404868 8.26294254 5 13 C3.68 13 2.36 13 1 13 C-0.2834998 8.9088444 -1.38021934 5.3091525 -1 1 C-0.67 0.67 -0.34 0.34 0 0 Z " fill="#DBDAD7" transform="translate(43,30)"/>
<path d="M0 0 C2.64 0.33 5.28 0.66 8 1 C8 2.32 8 3.64 8 5 C4.7 4.67 1.4 4.34 -2 4 C-2 3.34 -2 2.68 -2 2 C-1.34 2 -0.68 2 0 2 C0 1.34 0 0.68 0 0 Z " fill="#686662" transform="translate(28,9)"/>
<path d="M0 0 C5.36513131 0.847126 10.6787385 1.91681831 16 3 C15.67 3.66 15.34 4.32 15 5 C14.05125 4.855625 13.1025 4.71125 12.125 4.5625 C7.43259653 3.88802722 2.71865588 3.44623104 -2 3 C-1.34 2.01 -0.68 1.02 0 0 Z " fill="#C5C3BD" transform="translate(12,2)"/>
<path d="M0 0 C1.09570312 0.00902344 2.19140625 0.01804687 3.3203125 0.02734375 C4.16335937 0.03894531 5.00640625 0.05054687 5.875 0.0625 C5.875 1.0525 5.875 2.0425 5.875 3.0625 C1.255 3.0625 -3.365 3.0625 -8.125 3.0625 C-8.125 2.4025 -8.125 1.7425 -8.125 1.0625 C-5.36047967 -0.31976016 -3.0788637 -0.03275387 0 0 Z " fill="#F6F5F3" transform="translate(26.125,26.9375)"/>
<path d="M0 0 C-4.37384413 2.91589609 -7.70542471 4.30254716 -13 4 C-12.67 3.01 -12.34 2.02 -12 1 C-7.63771021 -1.028972 -4.64343758 -1.10558038 0 0 Z " fill="#BCBBB8" transform="translate(21,30)"/>
<path d="M0 0 C0.33 1.32 0.66 2.64 1 4 C0.34 3.67 -0.32 3.34 -1 3 C-2.87379605 2.92966231 -4.75001102 2.9156978 -6.625 2.9375 C-8.12933594 2.95103516 -8.12933594 2.95103516 -9.6640625 2.96484375 C-10.82035156 2.98224609 -10.82035156 2.98224609 -12 3 C-12 2.34 -12 1.68 -12 1 C-8.00439392 -1.83022097 -4.57262677 -0.76210446 0 0 Z " fill="#5C5B58" transform="translate(29,17)"/>
<path d="M0 0 C1.546875 0.8353125 1.546875 0.8353125 3.125 1.6875 C-0.07880017 3.82336678 -0.89439967 3.91882175 -4.5625 3.8125 C-5.37074219 3.79445313 -6.17898437 3.77640625 -7.01171875 3.7578125 C-7.93404297 3.72300781 -7.93404297 3.72300781 -8.875 3.6875 C-9.205 3.0275 -9.535 2.3675 -9.875 1.6875 C-6.14604956 -0.76815029 -4.10830666 -1.80732024 0 0 Z " fill="#6E6D69" transform="translate(12.875,39.3125)"/>
<path d="M0 0 C1.65 0 3.3 0 5 0 C6.35439668 2.70879335 6.06501451 5.00933268 6 8 C5.34 8 4.68 8 4 8 C2.66666667 5.33333333 1.33333333 2.66666667 0 0 Z " fill="#EBEAE8" transform="translate(29,29)"/>
<path d="M0 0 C0.33 0.66 0.66 1.32 1 2 C3.02463255 2.65213292 3.02463255 2.65213292 5 3 C5.33 5.31 5.66 7.62 6 10 C5.62875 9.0409375 5.62875 9.0409375 5.25 8.0625 C4.18437567 5.81258459 4.18437567 5.81258459 1.875 5.25 C1.25625 5.1675 0.6375 5.085 0 5 C0 3.35 0 1.7 0 0 Z " fill="#B0AEA9" transform="translate(25,11)"/>
<path d="M0 0 C0 0.66 0 1.32 0 2 C-0.66 2 -1.32 2 -2 2 C-2 2.66 -2 3.32 -2 4 C-1.34 4.33 -0.68 4.66 0 5 C-1.65 5.33 -3.3 5.66 -5 6 C-5 4.35 -5 2.7 -5 1 C-2 0 -2 0 0 0 Z " fill="#B0AEAA" transform="translate(42,37)"/>
<path d="M0 0 C2.31 0 4.62 0 7 0 C7 0.99 7 1.98 7 3 C4.69 3 2.38 3 0 3 C0 2.01 0 1.02 0 0 Z " fill="#656563" transform="translate(41,43)"/>
<path d="M0 0 C-0.66 1.32 -1.32 2.64 -2 4 C-2.99 4 -3.98 4 -5 4 C-5.33 2.68 -5.66 1.36 -6 0 C-3 -1 -3 -1 0 0 Z " fill="#9E9C95" transform="translate(16,27)"/>
<path d="M0 0 C1.33333333 0.66666667 2.66666667 1.33333333 4 2 C5.0828125 2.495 5.0828125 2.495 6.1875 3 C8 4 8 4 9 6 C6.69 5.67 4.38 5.34 2 5 C1.34 3.35 0.68 1.7 0 0 Z " fill="#AEADA9" transform="translate(26,19)"/>
<path d="M0 0 C1.0828125 0.37125 1.0828125 0.37125 2.1875 0.75 C2.1875 1.41 2.1875 2.07 2.1875 2.75 C-1.28575181 3.9077506 -4.17317448 3.81866652 -7.8125 3.75 C-3.50480769 -0.31153846 -3.50480769 -0.31153846 0 0 Z " fill="#73716E" transform="translate(20.8125,5.25)"/>
<path d="M0 0 C0.99 0 1.98 0 3 0 C3 0.66 3 1.32 3 2 C3.99 2 4.98 2 6 2 C5.67 3.65 5.34 5.3 5 7 C4.34 7 3.68 7 3 7 C2.87625 6.030625 2.7525 5.06125 2.625 4.0625 C2.41875 3.051875 2.2125 2.04125 2 1 C1.34 0.67 0.68 0.34 0 0 Z " fill="#CDCCC7" transform="translate(19,19)"/>
<path d="M0 0 C-0.33 1.32 -0.66 2.64 -1 4 C-2.32 4.33 -3.64 4.66 -5 5 C-5 3.68 -5 2.36 -5 1 C-2 0 -2 0 0 0 Z " fill="#DFDEDB" transform="translate(5,32)"/>
</svg>
