<?xml version="1.0" encoding="UTF-8"?>
<svg version="1.1" xmlns="http://www.w3.org/2000/svg" width="48" height="48">
<path d="M0 0 C0.88945313 0.25652344 1.77890625 0.51304688 2.6953125 0.77734375 C2.7778125 1.87046875 2.8603125 2.96359375 2.9453125 4.08984375 C3.33220459 7.81011039 3.33220459 7.81011039 5.7578125 9.71484375 C6.716875 10.24078125 6.716875 10.24078125 7.6953125 10.77734375 C7.3653125 12.09734375 7.0353125 13.41734375 6.6953125 14.77734375 C9.1703125 15.76734375 9.1703125 15.76734375 11.6953125 16.77734375 C12.0078125 19.58984375 12.0078125 19.58984375 11.6953125 22.77734375 C7.61533165 26.18710596 3.52803134 26.21687624 -1.5625 26.17578125 C-2.34736786 26.17865143 -3.13223572 26.18152161 -3.94088745 26.18447876 C-5.59324875 26.18651336 -7.24563447 26.18102584 -8.89794922 26.16845703 C-11.42860488 26.15235064 -13.95767403 26.16834734 -16.48828125 26.1875 C-18.09635769 26.1855183 -19.70443314 26.18167615 -21.3125 26.17578125 C-22.06878693 26.18185394 -22.82507385 26.18792664 -23.60427856 26.19418335 C-28.7791589 26.12470945 -28.7791589 26.12470945 -31.28076172 24.47119141 C-33.02795558 21.58086451 -32.65501103 19.04703 -32.3046875 15.77734375 C-30.58442966 13.40174959 -28.79145051 12.43518576 -26.3046875 10.77734375 C-26.3046875 9.78734375 -26.3046875 8.79734375 -26.3046875 7.77734375 C-25.3146875 7.77734375 -24.3246875 7.77734375 -23.3046875 7.77734375 C-23.3046875 5.79734375 -23.3046875 3.81734375 -23.3046875 1.77734375 C-22.02854777 2.17746357 -20.75888383 2.59826463 -19.4921875 3.02734375 C-18.78449219 3.259375 -18.07679687 3.49140625 -17.34765625 3.73046875 C-14.87755401 4.99621904 -13.80969276 6.47948083 -12.3046875 8.77734375 C-11.72460938 8.11605469 -11.14453125 7.45476563 -10.546875 6.7734375 C-9.76570313 5.92910156 -8.98453125 5.08476562 -8.1796875 4.21484375 C-7.41398437 3.36792969 -6.64828125 2.52101563 -5.859375 1.6484375 C-3.3046875 -0.22265625 -3.3046875 -0.22265625 0 0 Z " fill="#F6D95A" transform="translate(34.3046875,12.22265625)"/>
<path d="M0 0 C0.66 0.66 1.32 1.32 2 2 C1.625 4.125 1.625 4.125 1 6 C2.65 6.66 4.3 7.32 6 8 C6.3125 10.8125 6.3125 10.8125 6 14 C3.19791377 16.54735112 1.18318714 16.97428952 -2.5625 17.5 C-6 17 -6 17 -8.3125 14.5625 C-8.869375 13.716875 -9.42625 12.87125 -10 12 C-10.66 11.67 -11.32 11.34 -12 11 C-12 11.99 -12 12.98 -12 14 C-12.99 14 -13.98 14 -15 14 C-15.625 12.125 -15.625 12.125 -16 10 C-15.34 9.34 -14.68 8.68 -14 8 C-12.68 8 -11.36 8 -10 8 C-10.33 5.69 -10.66 3.38 -11 1 C-6.91543861 -0.6148266 -4.23493122 -1.41164374 0 0 Z " fill="#EF8ABA" transform="translate(40,21)"/>
<path d="M0 0 C0.88945313 0.24363281 1.77890625 0.48726562 2.6953125 0.73828125 C3.0253125 2.71828125 3.3553125 4.69828125 3.6953125 6.73828125 C-0.9296875 9.73828125 -0.9296875 9.73828125 -4.3046875 9.73828125 C-4.1190625 10.52203125 -3.9334375 11.30578125 -3.7421875 12.11328125 C-3.3046875 14.73828125 -3.3046875 14.73828125 -4.3046875 16.73828125 C-5.94831884 17.45987549 -7.61519136 18.13179546 -9.3046875 18.73828125 C-9.3046875 20.05828125 -9.3046875 21.37828125 -9.3046875 22.73828125 C-8.3146875 22.73828125 -7.3246875 22.73828125 -6.3046875 22.73828125 C-6.3046875 21.74828125 -6.3046875 20.75828125 -6.3046875 19.73828125 C-2.56829534 20.9837453 -2.11712237 22.37233078 -0.3046875 25.73828125 C-5.1380347 25.82161482 -9.54161313 25.69089612 -14.3046875 24.73828125 C-13.9746875 23.95453125 -13.6446875 23.17078125 -13.3046875 22.36328125 C-12.35509985 18.92102602 -12.39505612 17.34903069 -12.7421875 13.92578125 C-12.86589463 9.13758763 -11.4200215 7.02372688 -8.1796875 3.55078125 C-4.24626468 -0.3362881 -4.24626468 -0.3362881 0 0 Z " fill="#F83E2D" transform="translate(34.3046875,12.26171875)"/>
<path d="M0 0 C0 0.99 0 1.98 0 3 C-3.12290635 2.51421457 -5.99580359 2.0013988 -9 1 C-9.2502157 3.91634129 -9.2502157 3.91634129 -9 7 C-8.01 7.66 -7.02 8.32 -6 9 C-7 10 -7 10 -9.5625 10.0625 C-10.366875 10.041875 -11.17125 10.02125 -12 10 C-12 10.99 -12 11.98 -12 13 C-10.35 13 -8.7 13 -7 13 C-6.67 12.01 -6.34 11.02 -6 10 C-4.35 10 -2.7 10 -1 10 C-1 10.99 -1 11.98 -1 13 C-2.32 13 -3.64 13 -5 13 C-5 14.65 -5 16.3 -5 18 C-6.60332791 18.08121924 -8.20784026 18.13929134 -9.8125 18.1875 C-11.15248047 18.23970703 -11.15248047 18.23970703 -12.51953125 18.29296875 C-15 18 -15 18 -16.80078125 16.70703125 C-18.79958597 13.86182713 -18.35896649 11.35035393 -18 8 C-16.27974216 5.62440584 -14.48676301 4.65784201 -12 3 C-12 2.01 -12 1.02 -12 0 C-7.91556885 -1.53166168 -4.20544343 -0.63081652 0 0 Z " fill="#683423" transform="translate(20,20)"/>
<path d="M0 0 C0.66 0.66 1.32 1.32 2 2 C1.875 4 1.875 4 1 6 C-1.93995019 8.02755186 -3.27704003 8 -7 8 C-7 8.66 -7 9.32 -7 10 C-7.66 10 -8.32 10 -9 10 C-9.66 7.03 -10.32 4.06 -11 1 C-6.91543861 -0.6148266 -4.23493122 -1.41164374 0 0 Z " fill="#D59FBC" transform="translate(40,21)"/>
<path d="M0 0 C2.31 0.33 4.62 0.66 7 1 C6.360625 1.226875 5.72125 1.45375 5.0625 1.6875 C2.72806339 2.85250896 2.72806339 2.85250896 2.25 5.625 C2.1675 6.40875 2.085 7.1925 2 8 C2.99 8 3.98 8 5 8 C5 7.01 5 6.02 5 5 C8.73639216 6.24546405 9.18756513 7.63404953 11 11 C6.1666528 11.08333357 1.76307437 10.95261487 -3 10 C-2.01 6.7 -1.02 3.4 0 0 Z " fill="#3B5709" transform="translate(23,27)"/>
<path d="M0 0 C3.125 0.375 3.125 0.375 6 1 C6.33 2.98 6.66 4.96 7 7 C6.34 6.34 5.68 5.68 5 5 C0.62297367 6.22556737 -3.69677317 7.53060547 -8 9 C-7.04270084 7.87411986 -6.08412105 6.7493285 -5.125 5.625 C-4.59132813 4.99851562 -4.05765625 4.37203125 -3.5078125 3.7265625 C-2.38567993 2.44163349 -1.20628025 1.20628025 0 0 Z " fill="#FA7361" transform="translate(31,12)"/>
<path d="M0 0 C0 0.99 0 1.98 0 3 C-3.12290635 2.51421457 -5.99580359 2.0013988 -9 1 C-9.33 2.98 -9.66 4.96 -10 7 C-11.98 7 -13.96 7 -16 7 C-15 5 -15 5 -12 3 C-12 2.01 -12 1.02 -12 0 C-7.91556885 -1.53166168 -4.20544343 -0.63081652 0 0 Z " fill="#857588" transform="translate(20,20)"/>
<path d="M0 0 C1.66611905 -0.042721 3.33382885 -0.04063832 5 0 C6 1 6 1 6.1875 3.9375 C6 7 6 7 4 9 C2.68 9 1.36 9 0 9 C0 6.03 0 3.06 0 0 Z " fill="#BCF759" transform="translate(40,28)"/>
<path d="M0 0 C0.66 0 1.32 0 2 0 C0.125 5.75 0.125 5.75 -1 8 C0.98 8 2.96 8 5 8 C5 8.33 5 8.66 5 9 C1.37 9 -2.26 9 -6 9 C-6 7.35 -6 5.7 -6 4 C-4.68 4 -3.36 4 -2 4 C-2 3.34 -2 2.68 -2 2 C-1.34 2 -0.68 2 0 2 C0 1.34 0 0.68 0 0 Z " fill="#CFAC3D" transform="translate(21,29)"/>
<path d="M0 0 C0.86625 0.37125 0.86625 0.37125 1.75 0.75 C0.76 1.245 0.76 1.245 -0.25 1.75 C-0.064375 2.554375 0.12125 3.35875 0.3125 4.1875 C0.456875 5.033125 0.60125 5.87875 0.75 6.75 C-0.25 7.75 -0.25 7.75 -3.3125 7.8125 C-4.281875 7.791875 -5.25125 7.77125 -6.25 7.75 C-6.25 3.75 -6.25 3.75 -4.5 1.4375 C-2.25 -0.25 -2.25 -0.25 0 0 Z " fill="#F67131" transform="translate(30.25,20.25)"/>
<path d="M0 0 C1.29409592 0.45142881 2.58521059 0.91141021 3.875 1.375 C4.95394531 1.75785156 4.95394531 1.75785156 6.0546875 2.1484375 C8 3 8 3 10 5 C10.625 7.625 10.625 7.625 11 10 C10.34 10 9.68 10 9 10 C9 8.68 9 7.36 9 6 C6.03 6 3.06 6 0 6 C0 4.02 0 2.04 0 0 Z " fill="#A0E1F3" transform="translate(11,14)"/>
<path d="M0 0 C0.598125 0.20625 1.19625 0.4125 1.8125 0.625 C1.4825 2.935 1.1525 5.245 0.8125 7.625 C-0.8375 7.295 -2.4875 6.965 -4.1875 6.625 C-4.1875 5.965 -4.1875 5.305 -4.1875 4.625 C-2.8675 4.625 -1.5475 4.625 -0.1875 4.625 C-1.8375 4.295 -3.4875 3.965 -5.1875 3.625 C-5.1875 2.965 -5.1875 2.305 -5.1875 1.625 C-2.1875 -0.375 -2.1875 -0.375 0 0 Z " fill="#E1749B" transform="translate(38.1875,27.375)"/>
<path d="M0 0 C0.66 0 1.32 0 2 0 C2.33 0.99 2.66 1.98 3 3 C3.66 3.66 4.32 4.32 5 5 C4.195625 5.12375 3.39125 5.2475 2.5625 5.375 C1.2940625 5.684375 1.2940625 5.684375 0 6 C-0.33 6.66 -0.66 7.32 -1 8 C-2.65 8 -4.3 8 -6 8 C-6 7.01 -6 6.02 -6 5 C-4.35 4.67 -2.7 4.34 -1 4 C-0.67 2.68 -0.34 1.36 0 0 Z " fill="#E18760" transform="translate(14,25)"/>
<path d="M0 0 C4.75 0.75 4.75 0.75 7 3 C6.625 5.125 6.625 5.125 6 7 C5.01 7 4.02 7 3 7 C0 2.77777778 0 2.77777778 0 0 Z " fill="#C0DBDC" transform="translate(35,20)"/>
<path d="M0 0 C2.31 0.33 4.62 0.66 7 1 C6.360625 1.226875 5.72125 1.45375 5.0625 1.6875 C2.72806339 2.85250896 2.72806339 2.85250896 2.25 5.625 C2.1675 6.40875 2.085 7.1925 2 8 C2.66 8.33 3.32 8.66 4 9 C1.03 8.505 1.03 8.505 -2 8 C-1.33333333 5.33333333 -0.66666667 2.66666667 0 0 Z " fill="#7F4E25" transform="translate(23,27)"/>
<path d="M0 0 C1.32 0 2.64 0 4 0 C4 0.66 4 1.32 4 2 C4.66 2 5.32 2 6 2 C6.33 3.32 6.66 4.64 7 6 C2.25 5.25 2.25 5.25 0 3 C0 2.01 0 1.02 0 0 Z " fill="#9C6A6D" transform="translate(2,32)"/>
<path d="M0 0 C1.98 0.495 1.98 0.495 4 1 C3.67 2.65 3.34 4.3 3 6 C1.68 6 0.36 6 -1 6 C-0.67 4.02 -0.34 2.04 0 0 Z " fill="#E5D9DF" transform="translate(11,21)"/>
<path d="M0 0 C1.258125 -0.04125 2.51625 -0.0825 3.8125 -0.125 C4.52019531 -0.14820312 5.22789063 -0.17140625 5.95703125 -0.1953125 C8 0 8 0 11 2 C8.69 2.66 6.38 3.32 4 4 C3.67 3.34 3.34 2.68 3 2 C1.68 2.33 0.36 2.66 -1 3 C-0.67 2.01 -0.34 1.02 0 0 Z " fill="#5F4057" transform="translate(3,27)"/>
<path d="M0 0 C1.32 0 2.64 0 4 0 C4 0.99 4 1.98 4 3 C3.34 3 2.68 3 2 3 C2 3.99 2 4.98 2 6 C1.01 6 0.02 6 -1 6 C-1.625 4.125 -1.625 4.125 -2 2 C-1.34 1.34 -0.68 0.68 0 0 Z " fill="#BAD276" transform="translate(26,29)"/>
<path d="M0 0 C2.69082872 0.17635452 5.32851446 0.61835921 8 1 C8 1.99 8 2.98 8 4 C4.26512223 3.5020163 2.18762365 3.12508244 -1 1 C-0.67 0.67 -0.34 0.34 0 0 Z " fill="#2D6779" transform="translate(12,19)"/>
<path d="M0 0 C0.99 0.33 1.98 0.66 3 1 C3.33 2.98 3.66 4.96 4 7 C3.34 6.34 2.68 5.68 2 5 C-0.06874034 4.3574765 -0.06874034 4.3574765 -2 4 C-1.34 2.68 -0.68 1.36 0 0 Z " fill="#E9CEC9" transform="translate(34,12)"/>
<path d="M0 0 C1.32 0 2.64 0 4 0 C4 1.65 4 3.3 4 5 C2.68 5 1.36 5 0 5 C0 3.35 0 1.7 0 0 Z " fill="#CAB6AC" transform="translate(15,33)"/>
<path d="M0 0 C0.33 0 0.66 0 1 0 C1.125 2.375 1.125 2.375 1 5 C0.34 5.66 -0.32 6.32 -1 7 C-2.32 7 -3.64 7 -5 7 C-5 6.01 -5 5.02 -5 4 C-4.0409375 3.8453125 -4.0409375 3.8453125 -3.0625 3.6875 C-2.381875 3.460625 -1.70125 3.23375 -1 3 C-0.67 2.01 -0.34 1.02 0 0 Z " fill="#FD8ACA" transform="translate(40,30)"/>
<path d="M0 0 C-0.66 0 -1.32 0 -2 0 C-1.67 1.32 -1.34 2.64 -1 4 C-3.97 3.505 -3.97 3.505 -7 3 C-6.67 2.01 -6.34 1.02 -6 0 C-3 -1 -3 -1 0 0 Z " fill="#321536" transform="translate(9,29)"/>
<path d="M0 0 C0.33 0 0.66 0 1 0 C1 1.98 1 3.96 1 6 C-0.65 6.33 -2.3 6.66 -4 7 C-4 6.34 -4 5.68 -4 5 C-3.01 5 -2.02 5 -1 5 C-0.67 3.35 -0.34 1.7 0 0 Z " fill="#8AD830" transform="translate(44,30)"/>
</svg>
