<?xml version="1.0" encoding="UTF-8"?>
<svg version="1.1" xmlns="http://www.w3.org/2000/svg" width="48" height="48">
<path d="M0 0 C3.69085647 0.02241411 6.66230657 1.08450221 10.125 2.3125 C16.44984985 4.4158803 22.02385309 4.62838164 28.60107422 4.33984375 C33.97525583 4.12933722 33.97525583 4.12933722 37.25 6.3125 C37.59057617 9.10986328 37.59057617 9.10986328 37.54296875 12.6328125 C37.5284668 14.51806641 37.5284668 14.51806641 37.51367188 16.44140625 C37.48853516 17.76011719 37.46339844 19.07882813 37.4375 20.4375 C37.42245483 21.77732903 37.40876613 23.11717404 37.39648438 24.45703125 C37.36102872 27.74258842 37.31160849 31.02734582 37.25 34.3125 C28.6561332 34.53901982 20.58150328 34.01995974 12.125 32.5 C11.13113281 32.33435547 10.13726563 32.16871094 9.11328125 31.99804688 C2.36739122 30.83268778 -4.17887657 29.22672488 -10.75 27.3125 C-11.29211994 22.16236055 -9.81552264 18.61433306 -7.8359375 13.98828125 C-6.41036302 10.4756247 -5.38195411 6.89396695 -4.36328125 3.24609375 C-3.42249709 0.27992715 -3.21877424 0.3657698 0 0 Z " fill="#4A4C4E" transform="translate(10.75,6.6875)"/>
<path d="M0 0 C0.33 0.66 0.66 1.32 1 2 C3.3260857 2.38063221 5.66055264 2.71269945 8 3 C8.66 3.33 9.32 3.66 10 4 C10 4.66 10 5.32 10 6 C10.84304687 6.04898437 11.68609375 6.09796875 12.5546875 6.1484375 C14.19824219 6.26058594 14.19824219 6.26058594 15.875 6.375 C16.96554688 6.44460937 18.05609375 6.51421875 19.1796875 6.5859375 C22 7 22 7 24 9 C26.58064129 9.14497985 29.04943884 9.18677545 31.625 9.125 C32.33140625 9.11597656 33.0378125 9.10695313 33.765625 9.09765625 C35.51056098 9.07407603 37.25532295 9.03820461 39 9 C39 10.98 39 12.96 39 15 C34.38 15 29.76 15 25 15 C26 13 26 13 27 12 C25.33388095 11.957279 23.66617115 11.95936168 22 12 C21.67 12.33 21.34 12.66 21 13 C21.99 13.33 22.98 13.66 24 14 C24 15.32 24 16.64 24 18 C24.99 17.34 25.98 16.68 27 16 C29.91796875 16.0234375 29.91796875 16.0234375 33.1875 16.375 C34.27417969 16.48585938 35.36085937 16.59671875 36.48046875 16.7109375 C37.31191406 16.80632813 38.14335938 16.90171875 39 17 C39 17.66 39 18.32 39 19 C37.68 19 36.36 19 35 19 C35 19.66 35 20.32 35 21 C36.32 21 37.64 21 39 21 C39 22.65 39 24.3 39 26 C34.05 25.67 29.1 25.34 24 25 C24 23.68 24 22.36 24 21 C20.9254644 21.7763932 20.9254644 21.7763932 19 24 C19.33 21.36 19.66 18.72 20 16 C19.34 16 18.68 16 18 16 C18 16.66 18 17.32 18 18 C16.63875 17.7525 16.63875 17.7525 15.25 17.5 C11.88912497 16.89862854 11.88912497 16.89862854 8 17 C6.22590192 18.92022703 6.22590192 18.92022703 5 21 C4.4225 20.67 3.845 20.34 3.25 20 C0.80116138 18.72924102 0.80116138 18.72924102 -3 19 C-2.34 16.36 -1.68 13.72 -1 11 C1.64 11.33 4.28 11.66 7 12 C4.69 11.01 2.38 10.02 0 9 C0.99 8.67 1.98 8.34 3 8 C3 7.01 3 6.02 3 5 C1.35 5.66 -0.3 6.32 -2 7 C-1.34 4.69 -0.68 2.38 0 0 Z " fill="#858581" transform="translate(7,8)"/>
<path d="M0 0 C4.85569621 -0.45169267 8.27632474 0.36132525 12.875 2 C19.19984985 4.1033803 24.77385309 4.31588164 31.35107422 4.02734375 C36.72525583 3.81683722 36.72525583 3.81683722 40 6 C40.34057617 8.79736328 40.34057617 8.79736328 40.29296875 12.3203125 C40.2784668 14.20556641 40.2784668 14.20556641 40.26367188 16.12890625 C40.23853516 17.44761719 40.21339844 18.76632813 40.1875 20.125 C40.17245483 21.46482903 40.15876613 22.80467404 40.14648438 24.14453125 C40.11102872 27.43008842 40.06160849 30.71484582 40 34 C39.67 33.34 39.34 32.68 39 32 C37.5459375 32.061875 37.5459375 32.061875 36.0625 32.125 C31.55110276 32.14348933 27.35162348 31.10517422 23 30 C23 29.34 23 28.68 23 28 C28.51858969 27.8825832 33.41167406 28.3790749 39 29 C38.67 22.4 38.34 15.8 38 9 C32.72 9.66 27.44 10.32 22 11 C21.67 10.34 21.34 9.68 21 9 C18.97479485 8.56978387 18.97479485 8.56978387 16.625 8.4375 C13.80522535 8.21246912 11.71336297 7.90445432 9 7 C9 6.34 9 5.68 9 5 C4.545 4.01 4.545 4.01 0 3 C0 2.01 0 1.02 0 0 Z " fill="#292928" transform="translate(8,7)"/>
<path d="M0 0 C0.33 0.66 0.66 1.32 1 2 C3.3260857 2.38063221 5.66055264 2.71269945 8 3 C8.66 3.33 9.32 3.66 10 4 C10 4.66 10 5.32 10 6 C10.99 6 11.98 6 13 6 C13.66 6.66 14.32 7.32 15 8 C15.99 8.33 16.98 8.66 18 9 C17.34 11.97 16.68 14.94 16 18 C15.236875 17.649375 14.47375 17.29875 13.6875 16.9375 C10.95240621 15.67639116 10.95240621 15.67639116 8 17 C6.31461399 18.99665314 6.31461399 18.99665314 5 21 C4.4225 20.67 3.845 20.34 3.25 20 C0.80116138 18.72924102 0.80116138 18.72924102 -3 19 C-2.34 16.36 -1.68 13.72 -1 11 C1.64 11.33 4.28 11.66 7 12 C4.69 11.01 2.38 10.02 0 9 C0.99 8.67 1.98 8.34 3 8 C3 7.01 3 6.02 3 5 C1.35 5.66 -0.3 6.32 -2 7 C-1.34 4.69 -0.68 2.38 0 0 Z " fill="#B5A6A0" transform="translate(7,8)"/>
<path d="M0 0 C0.33 0 0.66 0 1 0 C1 7.26 1 14.52 1 22 C-3.94736401 22.82456067 -5.85199203 23.1015694 -10.375 22.0625 C-11.24898437 21.86785156 -12.12296875 21.67320313 -13.0234375 21.47265625 C-13.67570312 21.31667969 -14.32796875 21.16070312 -15 21 C-15 21.66 -15 22.32 -15 23 C-14.14728516 23.09087891 -14.14728516 23.09087891 -13.27734375 23.18359375 C-8.50218963 23.70176573 -3.7507695 24.29243859 1 25 C1 25.66 1 26.32 1 27 C-7.72225853 27.26976057 -15.68670623 26.77109792 -24 24 C-24 23.34 -24 22.68 -24 22 C-22.35 22.33 -20.7 22.66 -19 23 C-19 20.69 -19 18.38 -19 16 C-17.68 15.67 -16.36 15.34 -15 15 C-15 16.32 -15 17.64 -15 19 C-14.33613281 18.98839844 -13.67226563 18.97679688 -12.98828125 18.96484375 C-4.21792619 18.87521968 -4.21792619 18.87521968 0 20 C0 18.35 0 16.7 0 15 C-1.32 15 -2.64 15 -4 15 C-4 14.34 -4 13.68 -4 13 C-2.68 13 -1.36 13 0 13 C0 12.34 0 11.68 0 11 C-2.10388569 10.94597726 -4.20816714 10.90719744 -6.3125 10.875 C-7.48425781 10.85179687 -8.65601563 10.82859375 -9.86328125 10.8046875 C-13.16393661 10.74679382 -13.16393661 10.74679382 -16 13 C-16.5625 11.0625 -16.5625 11.0625 -17 9 C-16.67 8.67 -16.34 8.34 -16 8 C-16.66 7.67 -17.32 7.34 -18 7 C-17.67 6.34 -17.34 5.68 -17 5 C-15.02 5 -13.04 5 -11 5 C-11 5.66 -11 6.32 -11 7 C-11.99 7.495 -11.99 7.495 -13 8 C-8.71 8.33 -4.42 8.66 0 9 C0 7.02 0 5.04 0 3 C-2.97 3 -5.94 3 -9 3 C-9 2.67 -9 2.34 -9 2 C-6.03 2 -3.06 2 0 2 C0 1.34 0 0.68 0 0 Z " fill="#333437" transform="translate(46,14)"/>
<path d="M0 0 C0.99 0 1.98 0 3 0 C3 1.32 3 2.64 3 4 C5.31 4 7.62 4 10 4 C10 4.33 10 4.66 10 5 C7.69 5.33 5.38 5.66 3 6 C3 6.66 3 7.32 3 8 C3.56847656 8.06058594 4.13695312 8.12117188 4.72265625 8.18359375 C9.49781037 8.70176573 14.2492305 9.29243859 19 10 C19 10.66 19 11.32 19 12 C10.27774147 12.26976057 2.31329377 11.77109792 -6 9 C-6 8.34 -6 7.68 -6 7 C-3.525 7.495 -3.525 7.495 -1 8 C-1.020625 6.865625 -1.04125 5.73125 -1.0625 4.5625 C-1 1 -1 1 0 0 Z " fill="#3B3B39" transform="translate(28,29)"/>
<path d="M0 0 C1 1 1 1 1.11352539 3.68383789 C1.10828857 4.85164795 1.10305176 6.01945801 1.09765625 7.22265625 C1.09443359 8.48271484 1.09121094 9.74277344 1.08789062 11.04101562 C1.07953403 12.38151109 1.07106907 13.72200588 1.0625 15.0625 C1.0574866 16.40689942 1.05292342 17.7513006 1.04882812 19.09570312 C1.03699488 22.39717941 1.02050971 25.69856803 1 29 C0.67 28.34 0.34 27.68 0 27 C-0.969375 27.04125 -1.93875 27.0825 -2.9375 27.125 C-7.44889724 27.14348933 -11.64837652 26.10517422 -16 25 C-16 24.34 -16 23.68 -16 23 C-10.48141031 22.8825832 -5.58832594 23.3790749 0 24 C-0.33 17.07 -0.66 10.14 -1 3 C-5.62 3 -10.24 3 -15 3 C-14.34 2.34 -13.68 1.68 -13 1 C-9.875 1.375 -9.875 1.375 -7 2 C-7 1.34 -7 0.68 -7 0 C-4.31633121 -1.3418344 -2.84719317 -0.73004953 0 0 Z " fill="#858784" transform="translate(47,12)"/>
<path d="M0 0 C0.99 0 1.98 0 3 0 C3 1.32 3 2.64 3 4 C5.42672567 5.78969026 5.42672567 5.78969026 8 7 C4.79937313 8.60031344 2.27728194 7.03173691 -1 6 C-1.144375 6.94875 -1.28875 7.8975 -1.4375 8.875 C-2 12 -2 12 -3 14 C-1.35 13.67 0.3 13.34 2 13 C2 13.66 2 14.32 2 15 C3.65 15.33 5.3 15.66 7 16 C6.67 16.99 6.34 17.98 6 19 C3.03 18.67 0.06 18.34 -3 18 C-3 17.34 -3 16.68 -3 16 C-3.66 16 -4.32 16 -5 16 C-4.24228029 4.24228029 -4.24228029 4.24228029 0 0 Z " fill="#36383B" transform="translate(7,13)"/>
<path d="M0 0 C0.33 0.99 0.66 1.98 1 3 C1.66 3 2.32 3 3 3 C3 3.66 3 4.32 3 5 C3.62648438 4.98839844 4.25296875 4.97679687 4.8984375 4.96484375 C5.71570313 4.95582031 6.53296875 4.94679688 7.375 4.9375 C8.18710938 4.92589844 8.99921875 4.91429687 9.8359375 4.90234375 C12 5 12 5 14 6 C14 4.35 14 2.7 14 1 C15.98 1 17.96 1 20 1 C20.66 3.31 21.32 5.62 22 8 C18.70184278 9.0842218 16.53900834 8.87002878 13.1875 8.0625 C8.98522347 7.13488637 5.29037448 6.81346198 1 7 C1 6.01 1 5.02 1 4 C0.34 4 -0.32 4 -1 4 C-0.67 2.68 -0.34 1.36 0 0 Z " fill="#939295" transform="translate(1,26)"/>
<path d="M0 0 C2.01822917 0.29296875 4.03645833 0.5859375 6.0546875 0.87890625 C8.08140667 1.1684297 8.08140667 1.1684297 10 0 C9.5205537 4.21912747 8.83374881 6.79663178 6 10 C5.4225 9.67 4.845 9.34 4.25 9 C1.80116138 7.72924102 1.80116138 7.72924102 -2 8 C-1.34 5.36 -0.68 2.72 0 0 Z " fill="#9A9B9C" transform="translate(6,19)"/>
<path d="M0 0 C3.96 0 7.92 0 12 0 C12 1.98 12 3.96 12 6 C7.38 6 2.76 6 -2 6 C-1.67 5.34 -1.34 4.68 -1 4 C-0.34 4 0.32 4 1 4 C0.67 2.68 0.34 1.36 0 0 Z " fill="#767778" transform="translate(34,17)"/>
<path d="M0 0 C0.33 0.66 0.66 1.32 1 2 C2.11375 2.144375 3.2275 2.28875 4.375 2.4375 C8 3 8 3 10 4.3125 C11 6 11 6 10.6875 8.1875 C10.460625 8.785625 10.23375 9.38375 10 10 C8.02 9.34 6.04 8.68 4 8 C3.67 8.66 3.34 9.32 3 10 C2.01 9.34 1.02 8.68 0 8 C0.99 8 1.98 8 3 8 C3 7.01 3 6.02 3 5 C1.35 5.66 -0.3 6.32 -2 7 C-1.34 4.69 -0.68 2.38 0 0 Z " fill="#6C6A65" transform="translate(7,8)"/>
<path d="M0 0 C4.95 0.33 9.9 0.66 15 1 C15 1.66 15 2.32 15 3 C12.69 3 10.38 3 8 3 C12.29 3.33 16.58 3.66 21 4 C21 4.33 21 4.66 21 5 C15.72 5.66 10.44 6.32 5 7 C4.67 6.34 4.34 5.68 4 5 C2.68 5 1.36 5 0 5 C-0.33 4.01 -0.66 3.02 -1 2 C-0.67 1.67 -0.34 1.34 0 1 C0 0.67 0 0.34 0 0 Z " fill="#494948" transform="translate(25,11)"/>
<path d="M0 0 C0.66 0 1.32 0 2 0 C2 0.99 2 1.98 2 3 C3.7015625 2.690625 3.7015625 2.690625 5.4375 2.375 C10.17129259 1.77589256 14.50494072 2.4052798 19 4 C19.66 4.66 20.32 5.32 21 6 C20 7 20 7 16.125 7.25 C10.47496455 7.21360686 5.3560775 5.68190845 0 4 C0 2.68 0 1.36 0 0 Z " fill="#2B2B2D" transform="translate(0,30)"/>
<path d="M0 0 C1.45792884 -0.05399736 2.91642712 -0.09279177 4.375 -0.125 C5.18710937 -0.14820313 5.99921875 -0.17140625 6.8359375 -0.1953125 C9 0 9 0 11 2 C11.99 2 12.98 2 14 2 C14 2.99 14 3.98 14 5 C12.35 5 10.7 5 9 5 C8.67 5.99 8.34 6.98 8 8 C7.67 7.34 7.34 6.68 7 6 C6.34 6 5.68 6 5 6 C5 7.65 5 9.3 5 11 C4.34 11 3.68 11 3 11 C3.66 8.03 4.32 5.06 5 2 C3.68 2.33 2.36 2.66 1 3 C0.67 2.01 0.34 1.02 0 0 Z " fill="#7F7457" transform="translate(20,15)"/>
<path d="M0 0 C0.33 0.99 0.66 1.98 1 3 C3.97 3.495 3.97 3.495 7 4 C7 3.34 7 2.68 7 2 C7.66 2 8.32 2 9 2 C9 3.32 9 4.64 9 6 C4.47907032 7.45606519 1.48351204 6.27032841 -3 5 C-3 6.65 -3 8.3 -3 10 C-3.66 9.01 -4.32 8.02 -5 7 C-4.125 4.3125 -4.125 4.3125 -3 2 C-2.01 2 -1.02 2 0 2 C0 1.34 0 0.68 0 0 Z " fill="#494649" transform="translate(18,22)"/>
<path d="M0 0 C0.99 0 1.98 0 3 0 C3 1.32 3 2.64 3 4 C5.42672567 5.78969026 5.42672567 5.78969026 8 7 C4.79937313 8.60031344 2.27728194 7.03173691 -1 6 C-1 6.99 -1 7.98 -1 9 C-1.66 8.67 -2.32 8.34 -3 8 C-1.125 1.125 -1.125 1.125 0 0 Z " fill="#222326" transform="translate(7,13)"/>
<path d="M0 0 C5.11791642 -0.10662326 9.92928099 0.28832014 15 1 C15 1.99 15 2.98 15 4 C9.9697924 3.47462276 4.98114761 2.89405214 0 2 C0 1.34 0 0.68 0 0 Z " fill="#AAA795" transform="translate(31,35)"/>
<path d="M0 0 C0.66 0 1.32 0 2 0 C1.5205537 4.21912747 0.83374881 6.79663178 -2 10 C-2.99 9.67 -3.98 9.34 -5 9 C-5.33 7.35 -5.66 5.7 -6 4 C-4.02 4 -2.04 4 0 4 C0 2.68 0 1.36 0 0 Z " fill="#797B7E" transform="translate(14,19)"/>
<path d="M0 0 C0.33 0 0.66 0 1 0 C1 2.31 1 4.62 1 7 C-4.34001821 8.33500455 -7.83955235 7.512545 -13 6 C-13 5.67 -13 5.34 -13 5 C-4.57142857 3.71428571 -4.57142857 3.71428571 0 5 C0 3.35 0 1.7 0 0 Z " fill="#262629" transform="translate(46,29)"/>
<path d="M0 0 C1.65 0 3.3 0 5 0 C3.68 0.33 2.36 0.66 1 1 C1 1.66 1 2.32 1 3 C2.32 3 3.64 3 5 3 C5 4.32 5 5.64 5 7 C3.68 7 2.36 7 1 7 C0.67 6.01 0.34 5.02 0 4 C-1.65 4 -3.3 4 -5 4 C-5.33 3.34 -5.66 2.68 -6 2 C-4.02 2 -2.04 2 0 2 C0 1.34 0 0.68 0 0 Z " fill="#B4B19B" transform="translate(41,26)"/>
<path d="M0 0 C0.33 0.66 0.66 1.32 1 2 C3.32156597 2.40729228 5.6568787 2.74438677 8 3 C7.01 4.485 7.01 4.485 6 6 C3 6.125 3 6.125 0 6 C-0.99 6.495 -0.99 6.495 -2 7 C-1.34 4.69 -0.68 2.38 0 0 Z " fill="#9D946E" transform="translate(7,8)"/>
<path d="M0 0 C0.33 0.99 0.66 1.98 1 3 C1.66 3 2.32 3 3 3 C3 3.66 3 4.32 3 5 C5.97 5 8.94 5 12 5 C7.78370866 7.10814567 5.60209225 7.17700355 1 7 C1 6.01 1 5.02 1 4 C0.34 4 -0.32 4 -1 4 C-0.67 2.68 -0.34 1.36 0 0 Z " fill="#606266" transform="translate(1,26)"/>
<path d="M0 0 C2.19050021 0.09017996 4.378466 0.24666208 6.5625 0.4375 C7.76003906 0.53933594 8.95757812 0.64117188 10.19140625 0.74609375 C11.11824219 0.82988281 12.04507813 0.91367187 13 1 C13 1.33 13 1.66 13 2 C11.35 2 9.7 2 8 2 C8 2.66 8 3.32 8 4 C2.46153846 4.36923077 2.46153846 4.36923077 0.125 2.5 C-0.24625 2.005 -0.6175 1.51 -1 1 C-0.67 0.67 -0.34 0.34 0 0 Z " fill="#646566" transform="translate(33,24)"/>
<path d="M0 0 C1.65 0 3.3 0 5 0 C5.33 1.65 5.66 3.3 6 5 C3.69 5 1.38 5 -1 5 C-0.67 3.35 -0.34 1.7 0 0 Z " fill="#9E9E9E" transform="translate(40,18)"/>
<path d="M0 0 C3.34252724 -0.07427838 5.8035914 -0.06546953 9 1 C9 1.66 9 2.32 9 3 C10.32 2.67 11.64 2.34 13 2 C12.67 2.99 12.34 3.98 12 5 C6.06 3.515 6.06 3.515 0 2 C0 1.34 0 0.68 0 0 Z " fill="#201F20" transform="translate(8,8)"/>
<path d="M0 0 C2.475 0.495 2.475 0.495 5 1 C4.67 2.98 4.34 4.96 4 7 C2.68 6.67 1.36 6.34 0 6 C0 4.02 0 2.04 0 0 Z " fill="#D8C05F" transform="translate(20,16)"/>
<path d="M0 0 C5.93002267 -0.37851209 10.47239641 0.89424625 16 3 C15.01 3.66 14.02 4.32 13 5 C13 4.34 13 3.68 13 3 C11.68 3.33 10.36 3.66 9 4 C9 3.34 9 2.68 9 2 C8.01 2.33 7.02 2.66 6 3 C6 2.34 6 1.68 6 1 C5.01 1.33 4.02 1.66 3 2 C2.01 1.34 1.02 0.68 0 0 Z " fill="#797966" transform="translate(8,7)"/>
<path d="M0 0 C0.33 0.66 0.66 1.32 1 2 C3.52733235 2.65555119 3.52733235 2.65555119 6 3 C5.67 3.99 5.34 4.98 5 6 C2.36 5.34 -0.28 4.68 -3 4 C-3 3.34 -3 2.68 -3 2 C-2.01 1.34 -1.02 0.68 0 0 Z " fill="#1A1C1F" transform="translate(8,26)"/>
<path d="M0 0 C1.32 0 2.64 0 4 0 C4.33 2.97 4.66 5.94 5 9 C4.34 9 3.68 9 3 9 C3 8.01 3 7.02 3 6 C2.34 5.67 1.68 5.34 1 5 C0.375 2.4375 0.375 2.4375 0 0 Z " fill="#62605C" transform="translate(22,28)"/>
<path d="M0 0 C1.98 0.495 1.98 0.495 4 1 C4 1.99 4 2.98 4 4 C5.32 4.33 6.64 4.66 8 5 C5.36 4.67 2.72 4.34 0 4 C0 2.68 0 1.36 0 0 Z " fill="#5B5B58" transform="translate(38,29)"/>
<path d="M0 0 C0.66 0 1.32 0 2 0 C2 1.32 2 2.64 2 4 C0.25 4.6875 0.25 4.6875 -2 5 C-4.25 3.5625 -4.25 3.5625 -6 2 C-4.02 2 -2.04 2 0 2 C0 1.34 0 0.68 0 0 Z " fill="#353638" transform="translate(25,24)"/>
<path d="M0 0 C6.75 0.75 6.75 0.75 9 3 C5.52176885 4.15941038 3.54104422 3.70820884 0 3 C0 2.01 0 1.02 0 0 Z " fill="#36383F" transform="translate(12,33)"/>
</svg>
