<?xml version="1.0" encoding="UTF-8"?>
<svg version="1.1" xmlns="http://www.w3.org/2000/svg" width="24" height="24">
<path d="M0 0 C2.93423195 1.79646854 4.47205355 2.9441071 6 6 C6.53118252 10.91996928 6.75105553 14.77327597 4.125 19.0625 C0.38214851 22.47509989 -2.60769925 22.32843064 -7.515625 22.29296875 C-10.97198834 21.88537873 -12.68663869 20.53723498 -15 18 C-16.84862688 14.30274625 -16.47587094 10.03538558 -16 6 C-11.95766104 -0.60248696 -7.2842127 -0.85898735 0 0 Z " fill="#0A7C04" transform="translate(17,1)"/>
<path d="M0 0 C3.0625 1.625 3.0625 1.625 5 4 C5.33 5.98 5.66 7.96 6 10 C-4.89 10.495 -4.89 10.495 -16 11 C-15 4 -15 4 -13.0625 1.5625 C-8.67367915 -0.67669431 -4.83254602 -0.77765108 0 0 Z " fill="#319D2C" transform="translate(17,1)"/>
<path d="M0 0 C0.66 0 1.32 0 2 0 C2 0.66 2 1.32 2 2 C5.63 2.66 9.26 3.32 13 4 C13 3.34 13 2.68 13 2 C14.98 1.34 16.96 0.68 19 0 C19.33 1.98 19.66 3.96 20 6 C9.11 6.495 9.11 6.495 -2 7 C-2 2 -2 2 0 0 Z " fill="#1A9314" transform="translate(3,5)"/>
<path d="M0 0 C0.33 1.32 0.66 2.64 1 4 C-1.31 4 -3.62 4 -6 4 C-6 3.34 -6 2.68 -6 2 C-2.25 0 -2.25 0 0 0 Z " fill="#23971E" transform="translate(22,5)"/>
</svg>
