<?xml version="1.0" encoding="UTF-8"?>
<svg version="1.1" xmlns="http://www.w3.org/2000/svg" width="24" height="24">
<path d="M0 0 C2.93423195 1.79646854 4.47205355 2.9441071 6 6 C6.53118252 10.91996928 6.75105553 14.77327597 4.125 19.0625 C0.38214851 22.47509989 -2.60769925 22.32843064 -7.515625 22.29296875 C-10.97198834 21.88537873 -12.68663869 20.53723498 -15 18 C-16.84862688 14.30274625 -16.47587094 10.03538558 -16 6 C-11.95766104 -0.60248696 -7.2842127 -0.85898735 0 0 Z " fill="#E80000" transform="translate(17,1)"/>
<path d="M0 0 C3.49642065 1.92659913 4.68231206 2.92474851 5.8125 6.75 C5.874375 7.4925 5.93625 8.235 6 9 C3.72926921 10.1353654 2.45716721 10.12892412 -0.0625 10.1328125 C-0.85914063 10.13410156 -1.65578125 10.13539062 -2.4765625 10.13671875 C-3.30929687 10.13285156 -4.14203125 10.12898437 -5 10.125 C-6.24910156 10.13080078 -6.24910156 10.13080078 -7.5234375 10.13671875 C-8.32007813 10.13542969 -9.11671875 10.13414063 -9.9375 10.1328125 C-10.66839844 10.13168457 -11.39929688 10.13055664 -12.15234375 10.12939453 C-14 10 -14 10 -16 9 C-15.72960418 5.75525016 -15.1742292 4.20795098 -13.0625 1.6875 C-8.69536109 -0.71888267 -4.88235152 -0.79368276 0 0 Z " fill="#FF2929" transform="translate(17,1)"/>
<path d="M0 0 C1.18613892 0.00785522 1.18613892 0.00785522 2.39624023 0.01586914 C3.67724609 0.02070313 3.67724609 0.02070313 4.98413086 0.02563477 C5.88196289 0.03401367 6.77979492 0.04239258 7.70483398 0.05102539 C8.6065332 0.05553711 9.50823242 0.06004883 10.43725586 0.06469727 C12.67234712 0.07652315 14.90730835 0.09300319 17.14233398 0.11352539 C15.77249896 3.27468315 15.15327019 4.10623459 12.14233398 6.11352539 C8.17347588 6.75257881 3.87526296 7.21385861 0.37670898 4.99243164 C-0.98266602 3.61352539 -0.98266602 3.61352539 -2.85766602 1.11352539 C-1.85766602 0.11352539 -1.85766602 0.11352539 0 0 Z " fill="#D00000" transform="translate(4.857666015625,16.886474609375)"/>
<path d="M0 0 C0.66 0 1.32 0 2 0 C2 0.66 2 1.32 2 2 C3.89551022 2.05441656 5.7914792 2.09298035 7.6875 2.125 C8.74324219 2.14820313 9.79898437 2.17140625 10.88671875 2.1953125 C14.02251859 1.99858729 16.17645373 1.33057654 19 0 C19.33 1.65 19.66 3.3 20 5 C17.72926921 6.1353654 16.45716721 6.12892412 13.9375 6.1328125 C13.14085937 6.13410156 12.34421875 6.13539062 11.5234375 6.13671875 C10.69070313 6.13285156 9.85796875 6.12898437 9 6.125 C7.75089844 6.13080078 7.75089844 6.13080078 6.4765625 6.13671875 C5.67992187 6.13542969 4.88328125 6.13414063 4.0625 6.1328125 C3.33160156 6.13168457 2.60070312 6.13055664 1.84765625 6.12939453 C0 6 0 6 -2 5 C-1.125 1.125 -1.125 1.125 0 0 Z " fill="#FF1313" transform="translate(3,5)"/>
<path d="M0 0 C7.26 0 14.52 0 22 0 C22 0.99 22 1.98 22 3 C5.63414634 4.87804878 5.63414634 4.87804878 0 3 C0 2.01 0 1.02 0 0 Z " fill="#FB0202" transform="translate(1,10)"/>
</svg>
