<?xml version="1.0" encoding="UTF-8"?>
<svg version="1.1" xmlns="http://www.w3.org/2000/svg" width="24" height="24">
<path d="M0 0 C2.93423195 1.79646854 4.47205355 2.9441071 6 6 C6.53118252 10.91996928 6.75105553 14.77327597 4.125 19.0625 C0.38214851 22.47509989 -2.60769925 22.32843064 -7.515625 22.29296875 C-10.97198834 21.88537873 -12.68663869 20.53723498 -15 18 C-16.84862688 14.30274625 -16.47587094 10.03538558 -16 6 C-11.95766104 -0.60248696 -7.2842127 -0.85898735 0 0 Z " fill="#FFE829" transform="translate(17,1)"/>
<path d="M0 0 C7.26 0 14.52 0 22 0 C19.60147262 5.99631845 19.60147262 5.99631845 16 8 C11.200769 8.86620267 7.18570208 8.67754405 2.9375 6.25 C1 4 1 4 0 0 Z " fill="#CDB700" transform="translate(1,15)"/>
<path d="M0 0 C6.93 0 13.86 0 21 0 C21 1.65 21 3.3 21 5 C13.74 5 6.48 5 -1 5 C-0.67 3.35 -0.34 1.7 0 0 Z " fill="#F7DD01" transform="translate(2,10)"/>
<path d="M0 0 C0.66 0 1.32 0 2 0 C2 0.66 2 1.32 2 2 C3.89551022 2.05441656 5.7914792 2.09298035 7.6875 2.125 C8.74324219 2.14820313 9.79898437 2.17140625 10.88671875 2.1953125 C14.02251859 1.99858729 16.17645373 1.33057654 19 0 C19.33 1.65 19.66 3.3 20 5 C17.59940183 6.20029908 16.10639351 6.11459743 13.4296875 6.09765625 C12.53378906 6.09443359 11.63789063 6.09121094 10.71484375 6.08789062 C9.77769531 6.07951172 8.84054687 6.07113281 7.875 6.0625 C6.93011719 6.05798828 5.98523438 6.05347656 5.01171875 6.04882812 C2.67441613 6.03702357 0.33723939 6.02055759 -2 6 C-1.125 1.125 -1.125 1.125 0 0 Z " fill="#FFE613" transform="translate(3,5)"/>
<path d="M0 0 C7.26 0 14.52 0 22 0 C21.34 1.32 20.68 2.64 20 4 C13.73 4 7.46 4 1 4 C0.67 2.68 0.34 1.36 0 0 Z " fill="#E0C900" transform="translate(1,15)"/>
</svg>
